<svg xmlns="http://www.w3.org/2000/svg" xmlns:xlink="http://www.w3.org/1999/xlink" id="Layer_1" x="0px" y="0px" viewBox="0 0 868 592" style="enable-background:new 0 0 868 592;" xml:space="preserve">
<style type="text/css">
	.st0{display:none;}
	.st1{display:inline;fill:none;stroke:#666666;stroke-linejoin:round;}
	.st2{display:inline;fill:#666666;}
	.st3{display:inline;fill:none;stroke:#666666;}
	.st4{display:inline;fill:none;stroke:#666666;stroke-width:1.0003;stroke-miterlimit:4.001;}
	.st5{display:inline;fill:#373737;}
	.st6{display:inline;fill:none;stroke:#666666;stroke-width:1.001;stroke-miterlimit:4.0021;}
	.st7{display:inline;fill:none;stroke:#666666;stroke-linecap:round;}
	.st8{display:inline;fill:#FFFFFF;}
	.st9{display:inline;fill:#707070;}
	.st10{display:inline;opacity:7.000000e-02;}
	.st11{fill:#FFFFFF;}
	.st12{fill:#707070;}
	.st13{display:inline;fill:none;stroke:#707070;}
	.st14{display:inline;fill:#373737;stroke:#666666;}
	.st15{display:inline;fill:none;stroke:#666666;stroke-width:0.9996;stroke-miterlimit:3.9992;}
	.st16{display:inline;fill:#373737;stroke:#666666;stroke-miterlimit:10;}
	.st17{display:inline;fill:#E0E0E0;}
	.st18{display:inline;}
	.st19{fill:none;stroke:#E0E0E0;stroke-miterlimit:10;}
	.st20{display:inline;fill:#E0E0E0;stroke:#E0E0E0;stroke-width:4;stroke-miterlimit:10;}
	.st21{fill:none;stroke:#666666;stroke-linejoin:round;}
	.st22{fill:#666666;}
	.st23{fill:none;stroke:#666666;}
	.st24{fill:none;stroke:#666666;stroke-width:1.0003;stroke-miterlimit:4.001;}
	.st25{fill:#373737;}
	.st26{fill:none;stroke:#666666;stroke-width:1.001;stroke-miterlimit:4.0021;}
	.st27{fill:none;stroke:#666666;stroke-linecap:round;}
	.st28{opacity:7.000000e-02;}
	.st29{fill:none;stroke:#707070;}
	.st30{fill:#373737;stroke:#666666;}
	.st31{fill:none;stroke:#666666;stroke-width:0.9996;stroke-miterlimit:3.9992;}
	.st32{fill:#373737;stroke:#666666;stroke-miterlimit:10;}
	.st33{fill:#E0E0E0;}
	.st34{fill:none;stroke:#E0E0E0;stroke-width:1.3707;stroke-miterlimit:10;}
</style>
<g id="SSD-43SK14200M" class="st0">
	<path class="st1" d="M741.4,437.1H125.9v103.4h615.6L741.4,437.1L741.4,437.1z"></path>
	<path class="st2" d="M241.3,540.9l-9.9,0.1l-43.3,42.5c-1.4,1.3-1.4,3.5,0,4.9c1.4,1.3,3.6,1.3,5,0L241.3,540.9z M243.4,540.1   l-49.7,48.8c-1.7,1.7-4.5,1.7-6.2,0c-1.7-1.6-1.7-4.4,0-6.1l43.5-42.7H243.4z"></path>
	<path class="st2" d="M622.8,541.2l48,47.1c1.4,1.3,3.6,1.3,4.9,0.1c1.4-1.3,1.3-3.5-0.1-4.8l-43.1-42.3L622.8,541.2z M620.7,540.4   H633l43.3,42.5c1.7,1.6,1.7,4.4,0.1,6c-1.7,1.6-4.4,1.6-6.1-0.1L620.7,540.4z"></path>
	<path class="st3" d="M280,489.2H133.7"></path>
	<path class="st1" d="M594.4,443.9H280v89.8h314.4V443.9z"></path>
	<path class="st3" d="M594.3,489.2h140.2"></path>
	<path class="st3" d="M587.3,443.9v89.8"></path>
	<path class="st3" d="M286.9,443.9v89.8"></path>
	<path class="st1" d="M734.5,443.9H133.7v89.8h600.8V443.9z"></path>
	<path class="st2" d="M166.4,382.3c-2.5,1.3-4.5,2.9-6.1,4.8c-1.5,1.8-2.6,4-3.3,6.5c-1.1,3.9-1.4,8.6-0.6,14   c0.6,4.3,1.8,9,3.7,14.1c2.6,7.4,5.8,13.3,6.8,14.9h16.8c1-1.6,4.3-7.5,7.1-14.9c1.9-5.1,3.2-9.8,3.9-14.1c0.8-5.3,0.6-10-0.6-13.9   c-0.8-2.5-1.9-4.7-3.6-6.5c-1.7-2-4-3.6-6.6-4.8h-17.5 M166.2,381.4c6.2,0,9.3,0,17.7,0c26.8,12.3,0,56,0,56h-17.7   C166.2,437.4,141,394.2,166.2,381.4z"></path>
	<path class="st3" d="M157,302.5c9.7,15.2,14.4,58.1,14.4,58.1"></path>
	<path class="st4" d="M196.8,317.7c-10.7,15.5-22.9,62.6-22.9,62.6"></path>
	<path class="st5" d="M183.3,381.7h-7.2c0.2-1.9,1.1-9.6,3.9-18.1c1.9-5.8,4.3-10.9,7.2-15.2c2.3-3.4,4.9-6.4,7.8-8.7   c-6.7,7.2-9.5,17-10.7,24.5C182.9,372.7,183.3,379.9,183.3,381.7z"></path>
	<path class="st2" d="M191.2,344.1c-1.2,1.4-2.5,2.9-3.6,4.7c-2.8,4.2-5.3,9.3-7.2,15.1c-2.6,8-3.6,15.1-3.9,17.6h6.3   c-0.1-0.9-0.1-2.4-0.1-4.4c0-3,0.2-7.6,1.1-12.7C185.2,356.3,187.6,349.5,191.2,344.1z M199.8,336.1   c-18.9,13.9-15.9,46.1-15.9,46.1h-8.2C175.7,382.2,178.2,347.8,199.8,336.1z"></path>
	<path class="st5" d="M179.1,381.7h-9.7c0.1-1.3,0.4-5.5,1-11.5c0.7-6.6,1.9-16.9,4.2-28c2.5-12.5,5.7-23.4,9.5-32.7   c3.7-8.9,7.8-16.1,12.6-21.5c-10.2,15.7-14.4,38.5-16.1,55.8c-1.1,10.9-1.3,20.6-1.4,27C178.9,376.6,179,380.4,179.1,381.7z"></path>
	<path class="st2" d="M192.6,293.9c-3,4.5-5.8,9.8-8.3,15.9c-3.8,9.1-6.9,20.1-9.5,32.6c-2.2,11.1-3.5,21.3-4.2,27.9   c-0.5,5.3-0.8,9.3-0.9,10.9h9c-0.1-1.6-0.2-5.3-0.2-10.3c0-6.3,0.3-16.1,1.4-27C181.3,328.7,184.8,309.2,192.6,293.9z M200.3,283.7   c-24.7,29.7-20.8,98.5-20.8,98.5h-10.7C168.9,382.2,172,308.5,200.3,283.7z"></path>
	<path class="st5" d="M173.3,381.8h-6.8c0-1,0.1-3.9-0.1-7.8c-0.2-4.7-0.8-11.9-2.3-19.9c-2.4-12.3-7.5-28.6-18.3-40.2   c5.2,4.2,9.7,9.6,13.5,15.9c4.1,6.9,7.5,14.9,9.9,24c2.1,8,3.2,15.4,3.6,20.2C173.2,377.8,173.3,380.7,173.3,381.8z"></path>
	<path class="st2" d="M150.5,318.7c8.1,11,12.1,24.6,14.1,35.2c1.5,8,2.1,15.3,2.3,20c0.2,3.5,0.2,6.2,0.1,7.5h5.8   c0-1.3-0.2-4-0.5-7.5c-0.4-4.7-1.5-12.1-3.6-20.1c-2.4-9-5.7-17.1-9.8-23.9C156.5,325.7,153.7,322,150.5,318.7z M140.3,309.3   c33.5,20.7,33.4,72.9,33.4,72.9h-7.6C166.1,382.2,168.4,331.4,140.3,309.3z"></path>
	<path class="st5" d="M190.8,324c-1.1,2.4-1,4.9,0.2,5.4s3.1-1,4.2-3.4c1.1-2.4,1-4.9-0.2-5.4C193.8,320,191.9,321.5,190.8,324z"></path>
	<path class="st6" d="M191.2,324.1c-1,2.2-1,4.4,0,4.8s2.7-1,3.7-3.2s1-4.4,0-4.8S192.2,321.9,191.2,324.1z"></path>
	<path class="st5" d="M159,305.5c-1.3,0.5-1.5,3.1-0.4,5.8c1,2.8,2.9,4.7,4.2,4.2s1.5-3.1,0.4-5.8C162.1,307,160.3,305.1,159,305.5z   "></path>
	<path class="st3" d="M159.2,306c-1,0.4-1.1,2.7-0.2,5.3c1,2.6,2.6,4.3,3.6,4c1-0.4,1.1-2.7,0.2-5.3   C161.8,307.4,160.2,305.6,159.2,306z"></path>
	<path class="st3" d="M158.9,388.5H192"></path>
	<path class="st5" d="M648.9,474.1c2.4,0,4.4-1.9,4.4-4.3s-2-4.3-4.4-4.3s-4.4,1.9-4.4,4.3C644.6,472.2,646.5,474.1,648.9,474.1z"></path>
	<path class="st3" d="M648.9,473.7c2.2,0,3.9-1.7,3.9-3.9c0-2.1-1.8-3.9-3.9-3.9c-2.2,0-4,1.7-4,3.9   C645,472,646.8,473.7,648.9,473.7z"></path>
	<path class="st5" d="M653.8,471.2c2.4,0,4.4-1.9,4.4-4.3s-2-4.3-4.4-4.3s-4.4,1.9-4.4,4.3C649.4,469.2,651.4,471.2,653.8,471.2z"></path>
	<path class="st3" d="M653.8,470.7c2.2,0,3.9-1.7,3.9-3.9c0-2.1-1.8-3.9-3.9-3.9c-2.2,0-4,1.7-4,3.9   C649.9,469,651.6,470.7,653.8,470.7z"></path>
	<path class="st5" d="M655.8,474.1c2.4,0,4.4-1.9,4.4-4.3s-2-4.3-4.4-4.3s-4.4,1.9-4.4,4.3C651.4,472.2,653.3,474.1,655.8,474.1z"></path>
	<path class="st3" d="M655.8,473.7c2.2,0,3.9-1.7,3.9-3.9c0-2.1-1.8-3.9-3.9-3.9c-2.2,0-4,1.7-4,3.9S653.6,473.7,655.8,473.7z"></path>
	<path class="st5" d="M667.5,472.1c2.4,0,4.4-1.9,4.4-4.3s-2-4.3-4.4-4.3s-4.4,1.9-4.4,4.3S665,472.1,667.5,472.1z"></path>
	<path class="st3" d="M667.5,471.7c2.2,0,3.9-1.7,3.9-3.9c0-2.1-1.8-3.9-3.9-3.9c-2.2,0-3.9,1.7-3.9,3.9   C663.5,470,665.3,471.7,667.5,471.7z"></path>
	<path class="st5" d="M661.6,470.2c2.4,0,4.4-1.9,4.4-4.3s-2-4.3-4.4-4.3s-4.4,1.9-4.4,4.3S659.2,470.2,661.6,470.2z"></path>
	<path class="st3" d="M661.6,469.8c2.2,0,4-1.7,4-3.9s-1.8-3.9-4-3.9s-3.9,1.7-3.9,3.9S659.4,469.8,661.6,469.8z"></path>
	<path class="st5" d="M663.4,474.1c2.4,0,4.4-1.9,4.4-4.3s-2-4.3-4.4-4.3s-4.4,1.9-4.4,4.3S660.9,474.1,663.4,474.1z"></path>
	<path class="st3" d="M663.4,473.7c2.2,0,3.9-1.7,3.9-3.9c0-2.1-1.8-3.9-3.9-3.9c-2.2,0-4,1.7-4,3.9S661.2,473.7,663.4,473.7z"></path>
	<path class="st5" d="M672.5,475.1c2.4,0,4.4-1.9,4.4-4.3s-2-4.3-4.4-4.3s-4.4,1.9-4.4,4.3C668.2,473.2,670.1,475.1,672.5,475.1z"></path>
	<path class="st3" d="M672.5,474.7c2.2,0,3.9-1.7,3.9-3.9c0-2.1-1.8-3.9-3.9-3.9c-2.2,0-3.9,1.7-3.9,3.9   C668.6,472.9,670.4,474.7,672.5,474.7z"></path>
	<path class="st5" d="M672.9,489.2h-23.8c-0.5-0.3-3.1-1.6-5.3-4.3c-1.4-1.7-2.4-3.8-2.9-5.9c-0.6-2.6-0.5-5.5,0.2-8.5H681   c0.8,2.9,0.9,5.7,0.3,8.3c-0.5,2.2-1.5,4.1-3,5.9C676.1,487.4,673.5,488.9,672.9,489.2z"></path>
	<path class="st2" d="M641.5,470.8c-0.6,2.8-0.7,5.5-0.1,8c0.5,2.1,1.4,4.1,2.8,5.8c2,2.6,4.5,3.9,5.1,4.2h23.5   c0.7-0.3,3.1-1.8,5.2-4.4c1.4-1.8,2.4-3.7,2.9-5.8c0.6-2.4,0.5-5-0.2-7.8L641.5,470.8 M640.8,470c12.9,0,22.3,0,40.5,0   c3.9,13.5-8.2,19.6-8.2,19.6h-24C649.1,489.6,637.1,484.3,640.8,470z"></path>
	<path class="st1" d="M253.8,515.7h-96.6v17.9h96.6L253.8,515.7L253.8,515.7z"></path>
	<path class="st1" d="M244.6,526.9c1.2,0,2.2-1,2.2-2.2s-1-2.2-2.2-2.2s-2.2,1-2.2,2.2C242.4,525.9,243.4,526.9,244.6,526.9z"></path>
	<path class="st7" d="M157.1,524.2h44.4"></path>
	<path class="st2" d="M168.8,476c-1.8,0-3.4,0.3-4.9,1.2c-1.8,0.9-3.6,2.5-5.4,4.7c-1.1,1.9-1.2,3.7-0.5,4.7   c0.6,0.9,1.8,1.1,2.5,1.1c1,0,2-0.3,3.2-0.7c1.1-0.3,1.8-0.7,2.5-1.2c1.9-1.2,4-2.5,10.8-2.5c0.3,0,0.6,0,1,0   c8,0.2,10.4,1.6,12.6,2.8c0.7,0.3,1.3,0.8,2.1,1c1.1,0.5,2.2,0.7,3.2,0.7c1.3,0,2.4-0.5,2.9-1.4c0.7-1.2,0.4-2.9-0.7-4.6   c-1.6-2.2-3.2-3.8-5.1-4.7c-1.5-0.8-3.2-1.1-5.1-1.1c-1.8,0-3.6,0.3-5.4,0.6c-1.5,0.3-3,0.5-4.3,0.6c-0.1,0-0.2,0-0.3,0   c-1.5,0-2.9-0.3-4.5-0.6C172,476.4,170.5,476,168.8,476z M168.8,475.2c3.3,0,6.5,1.2,9.4,1.2c0.1,0,0.2,0,0.3,0   c2.8-0.1,6.1-1.2,9.7-1.2c3.6,0,7.5,1.3,11,6.3c2.4,3.7,1,7.3-2.9,7.3c-1.1,0-2.2-0.3-3.5-0.8c-3.3-1.2-4.1-3.5-14.5-3.7   c-0.4,0-0.6,0-1,0c-9.4,0-9.4,2.7-13.1,3.7c-1.4,0.5-2.5,0.8-3.6,0.8c-3.9,0-4.8-3.4-2.7-7.2C161.7,476.5,165.4,475.2,168.8,475.2z   "></path>
	<path class="st7" d="M166.1,473.8h5.9"></path>
	<path class="st3" d="M168,474.8h2"></path>
	<path class="st3" d="M186.7,474.8h1.9"></path>
	<path class="st7" d="M184.9,473.8h5.6"></path>
	<path class="st8" d="M178.4,482c0.5,0,1-0.4,1-0.9s-0.4-0.9-1-0.9s-1,0.4-1,0.9S177.8,482,178.4,482z"></path>
	<path class="st3" d="M178.4,481.5c0.3,0,0.5-0.2,0.5-0.5s-0.2-0.5-0.5-0.5s-0.5,0.2-0.5,0.5C177.8,481.3,178.1,481.5,178.4,481.5z"></path>
	<path class="st3" d="M253.3,485.8h-36.9v3.4h36.9L253.3,485.8L253.3,485.8z"></path>
	<path class="st3" d="M254.1,482.4h-36.9v3.4h36.9V482.4z"></path>
	<path class="st3" d="M253.3,478.9h-36.9v3.4h36.9L253.3,478.9L253.3,478.9z"></path>
	<path class="st3" d="M254.1,475.5h-36.9v3.4h36.9V475.5z"></path>
	<path class="st3" d="M253.3,472.1h-36.9v3.4h36.9L253.3,472.1L253.3,472.1z"></path>
	<path class="st7" d="M204.1,524.3h2.6"></path>
	<path class="st7" d="M647.6,533.7h-33.1c-7.6,0-7.8-10.4,0-10.4h33.1"></path>
	<path class="st3" d="M646,533.7c-4.4-3.1-2.5-8.9,0-10.5"></path>
	<path class="st7" d="M715.6,514H688c-6,0-6.1-8.1,0-8.1h27.6"></path>
	<path class="st3" d="M714.2,514c-3.4-2.4-1.9-6.9,0-8.2"></path>
	<path class="st7" d="M678.3,523.2H714c7.6,0,7.8,10.4,0,10.4h-35.7"></path>
	<path class="st3" d="M679.8,523.2c4.4,3.1,2.5,8.9,0,10.5"></path>
	<path class="st7" d="M607.8,513.9h30.1c6.9,0,7.1,9.2,0,9.2h-30.1"></path>
	<path class="st3" d="M609.2,513.9c4,2.8,2.3,7.8,0,9.3"></path>
	<path class="st7" d="M680.9,513.9h32.7c6.9,0,7.1,9.2,0,9.2h-32.7"></path>
	<path class="st3" d="M682.3,513.9c4,2.8,2.3,7.8,0,9.3"></path>
	<path class="st2" d="M700.9,436.6c3.7-4.3,6.8-9,9-13.7c3.2-6.7,4.7-13.7,4.7-20.9c-0.3-9.5-2.5-19-6.6-28.4   c-1.9-4.5-4.4-9-7.1-13.2c-2.7-4.1-5.8-8.2-9.2-12c-0.1-0.1-0.2-0.2-0.3-0.2s-0.2,0.1-0.2,0.1c-0.1,0.1-0.1,0.3,0,0.4l0.1,0.1v0.1   c3.6,15.9-2.9,25.9-9.1,35.5c-2.1,3.2-4.2,6.5-6,9.9c-1.9,3.9-3,7.3-3.4,11c-0.5,4.3-0.1,8.8,1.4,13.6c0.8,2.6,1.8,5.4,3.2,8.3   c1.4,2.8,3.1,5.9,5.1,9c4.7,0,8.4,0.1,11.7,0.1C696.6,436.5,698.8,436.6,700.9,436.6z M701.4,437.4c-5.4,0-10.4-0.2-19.2-0.2   c-30.4-47.1,16.8-51.1,8.4-88c-0.5-0.9,0.1-1.9,1-1.9c0.3,0,0.6,0.1,1,0.4c13.7,15.3,22.6,34.5,23.2,54.2   C715.6,418.2,707.3,430.5,701.4,437.4z"></path>
	<path class="st3" d="M691.4,348.3c29.1,47-28.8,57.1-9.4,88.1"></path>
	<path class="st9" d="M405.3,485.8c-1.9,0-3.6,1.6-3.6,3.5s1.6,3.5,3.6,3.5h60.6c1.9,0,3.6-1.6,3.6-3.5s-1.6-3.5-3.6-3.5H405.3z    M405.3,484.9h60.6c2.5,0,4.5,2,4.5,4.4s-2,4.4-4.5,4.4h-60.6c-2.5,0-4.5-2-4.5-4.4S402.8,484.9,405.3,484.9z"></path>
	<g class="st10">
		<path class="st11" d="M237.9,380.5V187.4h184L237.9,380.5z"></path>
		<path class="st12" d="M238.4,187.4v192.1L421,187.4H238.4z M237.5,187.4H423L237.5,381.6V187.4z"></path>
	</g>
	<path class="st3" d="M0,590.1h868"></path>
	<path class="st5" d="M795.3,474h-7.6v111.9h7.6V474z"></path>
	<path class="st3" d="M794.9,474.4h-6.8v111h6.8V474.4z"></path>
	<path class="st5" d="M791.6,298.1c12.4,0,22.4,9.8,22.4,22v136.8c0,12.1-10,22-22.4,22s-22.4-9.8-22.4-22V320   C769.3,307.9,779.3,298.1,791.6,298.1z"></path>
	<path class="st3" d="M791.6,298.5c12.1,0,21.9,9.7,21.9,21.5v136.8c0,11.9-9.8,21.5-21.9,21.5c-12.1,0-21.9-9.7-21.9-21.5V320   C769.7,308.2,779.5,298.5,791.6,298.5z"></path>
	<path class="st5" d="M791.2,461.5c3.4,0,6.1-2.7,6.1-6s-2.8-6-6.1-6s-6.1,2.7-6.1,6C785.1,458.8,787.8,461.5,791.2,461.5z"></path>
	<path class="st13" d="M791.2,461.1c3.1,0,5.7-2.5,5.7-5.6s-2.6-5.6-5.7-5.6c-3.2,0-5.7,2.5-5.7,5.6S788.1,461.1,791.2,461.1z"></path>
	<path class="st5" d="M791.6,377.2c8.5,0,15.4-6.8,15.4-15.1c0-8.3-6.9-15.1-15.4-15.1s-15.4,6.8-15.4,15.1   C776.3,370.5,783.2,377.2,791.6,377.2z"></path>
	<path class="st13" d="M791.6,376.8c8.2,0,14.9-6.6,14.9-14.6c0-8.1-6.7-14.6-14.9-14.6s-14.9,6.6-14.9,14.6   C776.7,370.3,783.4,376.8,791.6,376.8z"></path>
	<path class="st5" d="M791.6,368.3c3.4,0,6.2-2.7,6.2-6.1s-2.8-6.1-6.2-6.1s-6.2,2.7-6.2,6.1S788.2,368.3,791.6,368.3z"></path>
	<path class="st13" d="M791.6,367.9c3.2,0,5.8-2.5,5.8-5.7c0-3.1-2.6-5.7-5.8-5.7s-5.8,2.5-5.8,5.7S788.4,367.9,791.6,367.9z"></path>
	<path class="st5" d="M813.8,584h-44.6v6.5h44.6V584z"></path>
	<path class="st3" d="M813.4,584.4h-43.7v5.7h43.7V584.4z"></path>
	<path class="st5" d="M791.6,430.7c8.5,0,15.4-6.8,15.4-15.1c0-8.3-6.9-15.1-15.4-15.1s-15.4,6.8-15.4,15.1   C776.3,423.9,783.2,430.7,791.6,430.7z"></path>
	<path class="st13" d="M791.6,430.2c8.2,0,14.9-6.6,14.9-14.6c0-8.1-6.7-14.6-14.9-14.6s-14.9,6.6-14.9,14.6   C776.7,423.7,783.4,430.2,791.6,430.2z"></path>
	<path class="st5" d="M791.6,421.8c3.4,0,6.2-2.7,6.2-6.1s-2.8-6.1-6.2-6.1s-6.2,2.7-6.2,6.1C785.4,419,788.2,421.8,791.6,421.8z"></path>
	<path class="st13" d="M791.6,421.3c3.2,0,5.8-2.5,5.8-5.7c0-3.1-2.6-5.7-5.8-5.7s-5.8,2.5-5.8,5.7S788.4,421.3,791.6,421.3z"></path>
	<path class="st5" d="M791.2,328c3.4,0,6.1-2.7,6.1-6s-2.8-6-6.1-6s-6.1,2.7-6.1,6C785.1,325.3,787.8,328,791.2,328z"></path>
	<path class="st13" d="M791.2,327.5c3.1,0,5.7-2.5,5.7-5.6s-2.6-5.6-5.7-5.6c-3.2,0-5.7,2.5-5.7,5.6S788.1,327.5,791.2,327.5z"></path>
	<path class="st5" d="M79.2,474h-7.6v111.9h7.6V474z"></path>
	<path class="st3" d="M78.7,474.4H72v111h6.8v-111L78.7,474.4L78.7,474.4z"></path>
	<path class="st5" d="M75.5,298.1c12.4,0,22.4,9.8,22.4,22v136.8c0,12.1-10,22-22.4,22s-22.4-9.8-22.4-22V320   C53.1,307.9,63.1,298.1,75.5,298.1z"></path>
	<path class="st3" d="M75.5,298.5c12.1,0,21.9,9.7,21.9,21.5v136.8c0,11.9-9.8,21.5-21.9,21.5s-21.9-9.7-21.9-21.5V320   C53.5,308.2,63.4,298.5,75.5,298.5z"></path>
	<path class="st5" d="M75,461.5c3.4,0,6.1-2.7,6.1-6s-2.8-6-6.1-6s-6.1,2.7-6.1,6S71.6,461.5,75,461.5z"></path>
	<path class="st13" d="M75,461.1c3.2,0,5.7-2.5,5.7-5.6s-2.6-5.6-5.7-5.6c-3.2,0-5.7,2.5-5.7,5.6S71.9,461.1,75,461.1z"></path>
	<path class="st5" d="M75.5,377.2c8.5,0,15.4-6.8,15.4-15.1c0-8.3-6.9-15.1-15.4-15.1s-15.4,6.8-15.4,15.1   C60.1,370.5,67,377.2,75.5,377.2z"></path>
	<path class="st13" d="M75.5,376.8c8.2,0,14.9-6.6,14.9-14.6c0-8.1-6.7-14.6-14.9-14.6s-14.9,6.6-14.9,14.6   C60.6,370.3,67.2,376.8,75.5,376.8z"></path>
	<path class="st5" d="M75.4,368.3c3.4,0,6.2-2.7,6.2-6.1s-2.8-6.1-6.2-6.1c-3.4,0-6.2,2.7-6.2,6.1S72,368.3,75.4,368.3z"></path>
	<path class="st13" d="M75.4,367.9c3.2,0,5.8-2.5,5.8-5.7c0-3.1-2.6-5.7-5.8-5.7s-5.8,2.5-5.8,5.7C69.7,365.4,72.2,367.9,75.4,367.9   z"></path>
	<path class="st5" d="M97.7,584H53.1v6.5h44.6V584z"></path>
	<path class="st3" d="M97.2,584.4H53.5v5.7h43.7V584.4z"></path>
	<path class="st5" d="M75.5,430.7c8.5,0,15.4-6.8,15.4-15.1c0-8.3-6.9-15.1-15.4-15.1s-15.4,6.8-15.4,15.1   C60.1,423.9,67,430.7,75.5,430.7z"></path>
	<path class="st13" d="M75.5,430.2c8.2,0,14.9-6.6,14.9-14.6c0-8.1-6.7-14.6-14.9-14.6s-14.9,6.6-14.9,14.6   C60.6,423.7,67.2,430.2,75.5,430.2z"></path>
	<path class="st5" d="M75.4,421.8c3.4,0,6.2-2.7,6.2-6.1s-2.8-6.1-6.2-6.1c-3.4,0-6.2,2.7-6.2,6.1C69.2,419,72,421.8,75.4,421.8z"></path>
	<path class="st13" d="M75.4,421.3c3.2,0,5.8-2.5,5.8-5.7c0-3.1-2.6-5.7-5.8-5.7s-5.8,2.5-5.8,5.7C69.7,418.8,72.2,421.3,75.4,421.3   z"></path>
	<path class="st5" d="M75,328c3.4,0,6.1-2.7,6.1-6s-2.8-6-6.1-6s-6.1,2.7-6.1,6S71.6,328,75,328z"></path>
	<path class="st13" d="M75,327.5c3.2,0,5.7-2.5,5.7-5.6s-2.6-5.6-5.7-5.6c-3.2,0-5.7,2.5-5.7,5.6S71.9,327.5,75,327.5z"></path>
	<path class="st14" d="M670.2,129H200.7v12.8h469.5V129z"></path>
	<path class="st5" d="M246,165.4h9v-24h-9V165.4z"></path>
	<path class="st3" d="M246.4,165h8.2v-23.2h-8.2V165z"></path>
	<path class="st5" d="M615.8,165.4h9v-24h-9V165.4z"></path>
	<path class="st3" d="M616.2,165h8.2v-23.2h-8.2V165z"></path>
	<path class="st5" d="M575.9,45.9h-26.5v83.6h26.5V45.9z"></path>
	<path class="st3" d="M575.5,46.4h-25.6v82.7h25.6V46.4z"></path>
	<path class="st5" d="M595.6,32.1h-20.4v97.4h20.4V32.1z"></path>
	<path class="st3" d="M595.2,32.6h-19.6v96.5h19.6V32.6z"></path>
	<path class="st5" d="M604.5,129.5l20.2-1.7L616,32l-20.2,1.7L604.5,129.5z"></path>
	<path class="st15" d="M604.9,129.1l19.3-1.6l-8.6-95l-19.3,1.6L604.9,129.1z"></path>
	<path class="st5" d="M603.7,121.9l20.3-1.7l-0.6-6.2l-20.4,1.7L603.7,121.9z"></path>
	<path class="st15" d="M604.1,121.5l19.5-1.6l-0.5-5.4l-19.5,1.6L604.1,121.5z"></path>
	<path class="st5" d="M309.2,98h37v18.9c0,6.6-5.5,12.1-12.3,12.1h-12.5c-6.8,0-12.3-5.4-12.3-12.1L309.2,98L309.2,98z"></path>
	<path class="st3" d="M310.1,98.5h35.3c0.3,0,0.4,0.2,0.4,0.4v18c0,6.5-5.3,11.6-11.8,11.6h-12.5c-6.6,0-11.8-5.2-11.8-11.6v-18   C309.6,98.6,309.9,98.5,310.1,98.5z"></path>
	<path class="st16" d="M329,98.7h3c0,0,0-15.3,16-19.1c8.2-1.7,18.3-0.3,26.8-4.1c8.5-4,53.8-34.1,53.8-34.1s-58-8.9-78.1,27.5   c-3.1,5.1-7.6,9.6-13.3,13.6c-0.2,0.1-0.3,0.2-0.4,0.3C331.5,87,329.5,93,329,98.7z"></path>
	<path class="st16" d="M327,98.7c-0.1-10.3,0.9-19.5,4.1-25.9c0.3-0.4,0.3-0.9,0-1.4c-2.7-5.3-4.7-11.2-0.7-21.3   c1-2.5,2.5-4.8,4.4-6.8c3.7-3.8,6.1-7.6,5.6-11.5c-0.3-5.6,2.8-10.5,9.2-14.7c2-1.3,4.1-2.3,6.5-2.9c3.7-1,6-2.8,6.9-5.4   c0.5-1.6,1.3-3.1,2.4-4.4c4.7-5.8,10.3-4.3,16-1.2c0.3,0.2,0.4,0.4,0.2,0.7c0,0,0,0,0,0.1c-17.4,21.3-33.2,45.3-48.4,70.1   c-0.5,0.9-1,1.8-1.2,2.8c-1.8,6.1-2.2,14-2.5,22.1L327,98.7z"></path>
	<path class="st16" d="M330.2,98.4c2.3-4.4,5.6-8.1,15-7.6c1.7,0.1,3.3-0.3,4.8-0.9c17.6-7.9,37.8,0.6,48.7,12.4   c-18.8,1.6-37.3,2-53.3-7.8c-2.1-1.3-4.7-1.7-7-1c-3.2,0.9-5.4,3.4-5.8,4.8L330.2,98.4z"></path>
	<path class="st16" d="M323.5,98.7h3c-0.4-5-1.3-6.7-4.6-12.3c-0.4-0.8-0.7-1.6-0.7-2.5c-0.3-6.5-4.1-14.6-8.3-18.7   c-1-0.9-1.8-2-2.7-3l-16.2-20c-6.5-6.2-15.4-9.6-26.1-10.8c5.1,8.3,9.5,16.1,10.5,22.1c6.1,18,15.4,27.2,27.6,28.5   C316.9,83.4,323,88.7,323.5,98.7z"></path>
	<path class="st16" d="M322.8,98.4c-2.2-4-6.7-7.1-12.6-9.4c-2.4-0.9-4.8-1.4-7.4-1.4c-21.2,0.4-40.4,1.9-56.5,5.3   c0.4-6.6,2.7-11.4,10.4-10.7c1.7,0.2,3.3-0.3,4.6-1.5c5.4-4.7,11.9-6,19.8-2.9c1.2,0.5,2.5,0.6,3.9,0.4c9.6-1.6,16.9,0,21.1,5.5   c0.6,0.8,1.4,1.4,2.3,1.7c8.4,3,14.4,7.1,17,12.8L322.8,98.4z"></path>
	<path class="st5" d="M346.2,113.8h-37v3.4h37V113.8z"></path>
	<path class="st3" d="M345.8,114.2h-36.2v2.6h36.2V114.2z"></path>
	<path class="st5" d="M346.2,108.4h-37v3.4h37V108.4z"></path>
	<path class="st3" d="M345.8,108.8h-36.2v2.6h36.2V108.8z"></path>
	<path class="st14" d="M550.5,41.2H524V129h26.5V41.2z"></path>
	<path class="st14" d="M542.1,59.1h-9.8v69.8h9.8V59.1z"></path>
	<path class="st17" d="M635.7,172.7H228.2v228h407.5V172.7z M226.4,170.8h411v231.6h-411L226.4,170.8L226.4,170.8z"></path>
	<rect x="226.2" y="397.6" class="st17" width="411.2" height="8.3"></rect>
	<path class="st17" d="M612.5,407.3h7.4v-1.8h-9v0.2C610.9,406.6,611.7,407.3,612.5,407.3z"></path>
	<g class="st18">
		<path class="st19" d="M598.6,404.9c0,0,11.9,12.2,14.3,14.5c2.4,2.3,12.2,11.5,12.3,12.2c0.1,0.3,0,0.8,0,1.2    c0,0.4,0.1,1.4-0.3,1.5h-5.2L586.2,405h12.4L598.6,404.9L598.6,404.9z"></path>
	</g>
	<g class="st18">
		<path class="st19" d="M264.4,404.9c0,0-11.9,12.2-14.3,14.5c-2.4,2.3-12.2,11.5-12.3,12.2c-0.1,0.3,0,0.8,0,1.2    c0,0.4-0.1,1.4,0.3,1.5h5.2l33.5-29.3h-12.4V404.9z"></path>
	</g>
</g>
<g id="SSD-50SA640U" class="st0">
	<path class="st1" d="M741.1,437.6H125.5V541h615.6V437.6z"></path>
	<path class="st2" d="M240.9,541.5l-9.9,0.1L187.8,584c-1.4,1.3-1.4,3.5,0,4.9c1.4,1.3,3.6,1.3,5,0L240.9,541.5z M243,540.6   l-49.7,48.8c-1.7,1.7-4.5,1.7-6.2,0c-1.7-1.6-1.7-4.4,0-6.1l43.5-42.7H243z"></path>
	<path class="st2" d="M622.4,541.8l48,47.1c1.4,1.3,3.6,1.3,4.9,0.1c1.4-1.3,1.3-3.5-0.1-4.8l-43.1-42.3L622.4,541.8z M620.3,540.9   h12.3l43.3,42.5c1.7,1.6,1.7,4.4,0.1,6c-1.7,1.6-4.4,1.6-6.1-0.1L620.3,540.9z"></path>
	<path class="st3" d="M279.6,489.7H133.3"></path>
	<path class="st1" d="M594,444.4H279.6v89.8H594V444.4z"></path>
	<path class="st3" d="M593.9,489.7H734"></path>
	<path class="st3" d="M586.9,444.4v89.8"></path>
	<path class="st3" d="M286.5,444.4v89.8"></path>
	<path class="st1" d="M734.2,444.4H133.3v89.8h600.8v-89.8L734.2,444.4L734.2,444.4z"></path>
	<path class="st2" d="M166.1,382.8c-2.5,1.3-4.5,2.9-6.1,4.8c-1.5,1.8-2.6,4-3.3,6.5c-1.1,3.9-1.4,8.6-0.6,14   c0.6,4.3,1.8,9,3.7,14.1c2.6,7.4,5.8,13.3,6.8,14.9h16.8c1-1.6,4.3-7.5,7.1-14.9c1.9-5.1,3.2-9.8,3.9-14.1c0.8-5.3,0.6-10-0.6-13.9   c-0.8-2.5-1.9-4.7-3.6-6.5c-1.7-2-4-3.6-6.6-4.8h-17.5 M165.8,381.9c6.2,0,9.3,0,17.7,0c26.8,12.3,0,56,0,56h-17.7   C165.8,437.9,140.6,394.7,165.8,381.9z"></path>
	<path class="st3" d="M156.6,303.1c9.7,15.2,14.4,58.1,14.4,58.1"></path>
	<path class="st4" d="M196.4,318.3c-10.7,15.5-22.9,62.6-22.9,62.6"></path>
	<path class="st5" d="M183,382.3h-7.2c0.2-1.9,1.1-9.6,3.9-18.1c1.9-5.8,4.3-10.9,7.2-15.2c2.3-3.4,4.9-6.4,7.8-8.7   c-6.7,7.2-9.5,17-10.7,24.5C182.5,373.2,182.9,380.5,183,382.3z"></path>
	<path class="st2" d="M190.8,344.6c-1.2,1.4-2.5,2.9-3.6,4.7c-2.8,4.2-5.3,9.3-7.2,15.1c-2.6,8-3.6,15.1-3.9,17.6h6.3   c-0.1-0.9-0.1-2.4-0.1-4.4c0-3,0.2-7.6,1.1-12.7C184.8,356.8,187.3,350,190.8,344.6z M199.4,336.7c-18.9,13.9-15.9,46.1-15.9,46.1   h-8.2C175.3,382.7,177.8,348.3,199.4,336.7z"></path>
	<path class="st5" d="M178.7,382.3H169c0.1-1.3,0.4-5.5,1-11.5c0.7-6.6,1.9-16.9,4.2-28c2.5-12.5,5.7-23.4,9.5-32.7   c3.7-8.9,7.8-16.1,12.6-21.5c-10.2,15.7-14.4,38.5-16.1,55.8c-1.1,10.9-1.3,20.6-1.4,27C178.5,377.1,178.6,381,178.7,382.3z"></path>
	<path class="st2" d="M192.2,294.5c-3,4.5-5.8,9.8-8.3,15.9c-3.8,9.1-6.9,20.1-9.5,32.6c-2.2,11.1-3.5,21.3-4.2,27.9   c-0.5,5.3-0.8,9.3-0.9,10.9h9c-0.1-1.6-0.2-5.3-0.2-10.3c0-6.3,0.3-16.1,1.4-27C181,329.3,184.4,309.7,192.2,294.5z M199.9,284.2   c-24.7,29.7-20.8,98.5-20.8,98.5h-10.7C168.5,382.7,171.7,309,199.9,284.2z"></path>
	<path class="st5" d="M172.9,382.3h-6.8c0-1,0.1-3.9-0.1-7.8c-0.2-4.7-0.8-11.9-2.3-19.9c-2.4-12.3-7.5-28.6-18.3-40.2   c5.2,4.2,9.7,9.6,13.5,15.9c4.1,6.9,7.5,14.9,9.9,24c2.1,8,3.2,15.4,3.6,20.2C172.8,378.3,172.9,381.3,172.9,382.3z"></path>
	<path class="st2" d="M150.1,319.2c8.1,11,12.1,24.6,14.1,35.2c1.5,8,2.1,15.3,2.3,20c0.2,3.5,0.2,6.2,0.1,7.5h5.8   c0-1.3-0.2-4-0.5-7.5c-0.4-4.7-1.5-12.1-3.6-20.1c-2.4-9-5.7-17.1-9.8-23.9C156.1,326.2,153.3,322.5,150.1,319.2z M139.9,309.8   c33.5,20.7,33.4,72.9,33.4,72.9h-7.6C165.7,382.7,168,332,139.9,309.8z"></path>
	<path class="st5" d="M190.5,324.5c-1.1,2.4-1,4.9,0.2,5.4s3.1-1,4.2-3.4c1.1-2.4,1-4.9-0.2-5.4   C193.5,320.5,191.6,322.1,190.5,324.5z"></path>
	<path class="st6" d="M190.9,324.7c-1,2.2-1,4.4,0,4.8s2.7-1,3.7-3.2s1-4.4,0-4.8C193.5,321,191.9,322.4,190.9,324.7z"></path>
	<path class="st5" d="M158.6,306.1c-1.3,0.5-1.5,3.1-0.4,5.8c1,2.8,2.9,4.7,4.2,4.2s1.5-3.1,0.4-5.8   C161.8,307.5,159.9,305.6,158.6,306.1z"></path>
	<path class="st3" d="M158.8,306.5c-1,0.4-1.1,2.7-0.2,5.3c1,2.6,2.6,4.3,3.6,4c1-0.4,1.1-2.7,0.2-5.3   C161.4,307.9,159.8,306.1,158.8,306.5z"></path>
	<path class="st3" d="M158.5,389.1h33.1"></path>
	<path class="st5" d="M648.6,474.7c2.4,0,4.4-1.9,4.4-4.3s-2-4.3-4.4-4.3s-4.4,1.9-4.4,4.3C644.2,472.7,646.1,474.7,648.6,474.7z"></path>
	<path class="st3" d="M648.6,474.2c2.2,0,3.9-1.7,3.9-3.9c0-2.1-1.8-3.9-3.9-3.9c-2.2,0-4,1.7-4,3.9S646.4,474.2,648.6,474.2z"></path>
	<path class="st5" d="M653.4,471.7c2.4,0,4.4-1.9,4.4-4.3s-2-4.3-4.4-4.3s-4.4,1.9-4.4,4.3C649,469.8,651,471.7,653.4,471.7z"></path>
	<path class="st3" d="M653.4,471.3c2.2,0,3.9-1.7,3.9-3.9c0-2.1-1.8-3.9-3.9-3.9c-2.2,0-4,1.7-4,3.9   C649.5,469.5,651.3,471.3,653.4,471.3z"></path>
	<path class="st5" d="M655.4,474.7c2.4,0,4.4-1.9,4.4-4.3s-2-4.3-4.4-4.3s-4.4,1.9-4.4,4.3C651,472.7,653,474.7,655.4,474.7z"></path>
	<path class="st3" d="M655.4,474.2c2.2,0,3.9-1.7,3.9-3.9c0-2.1-1.8-3.9-3.9-3.9c-2.2,0-4,1.7-4,3.9S653.2,474.2,655.4,474.2z"></path>
	<path class="st5" d="M667.1,472.7c2.4,0,4.4-1.9,4.4-4.3s-2-4.3-4.4-4.3s-4.4,1.9-4.4,4.3C662.7,470.7,664.7,472.7,667.1,472.7z"></path>
	<path class="st3" d="M667.1,472.2c2.2,0,3.9-1.7,3.9-3.9c0-2.1-1.8-3.9-3.9-3.9c-2.2,0-3.9,1.7-3.9,3.9   C663.1,470.5,664.9,472.2,667.1,472.2z"></path>
	<path class="st5" d="M661.2,470.7c2.4,0,4.4-1.9,4.4-4.3s-2-4.3-4.4-4.3s-4.4,1.9-4.4,4.3S658.8,470.7,661.2,470.7z"></path>
	<path class="st3" d="M661.2,470.3c2.2,0,4-1.7,4-3.9s-1.8-3.9-4-3.9s-3.9,1.7-3.9,3.9S659.1,470.3,661.2,470.3z"></path>
	<path class="st5" d="M663,474.7c2.4,0,4.4-1.9,4.4-4.3s-2-4.3-4.4-4.3s-4.4,1.9-4.4,4.3C658.6,472.7,660.6,474.7,663,474.7z"></path>
	<path class="st3" d="M663,474.2c2.2,0,3.9-1.7,3.9-3.9c0-2.1-1.8-3.9-3.9-3.9c-2.2,0-4,1.7-4,3.9S660.8,474.2,663,474.2z"></path>
	<path class="st5" d="M672.2,475.6c2.4,0,4.4-1.9,4.4-4.3s-2-4.3-4.4-4.3s-4.4,1.9-4.4,4.3S669.7,475.6,672.2,475.6z"></path>
	<path class="st3" d="M672.2,475.2c2.2,0,3.9-1.7,3.9-3.9c0-2.1-1.8-3.9-3.9-3.9c-2.2,0-3.9,1.7-3.9,3.9   C668.2,473.5,670,475.2,672.2,475.2z"></path>
	<path class="st5" d="M672.6,489.7h-23.8c-0.5-0.3-3.1-1.6-5.3-4.3c-1.4-1.7-2.4-3.8-2.9-5.9c-0.6-2.6-0.5-5.5,0.2-8.5h39.8   c0.8,2.9,0.9,5.7,0.3,8.3c-0.5,2.2-1.5,4.1-3,5.9C675.7,487.9,673.1,489.5,672.6,489.7z"></path>
	<path class="st2" d="M641.1,471.4c-0.6,2.8-0.7,5.5-0.1,8c0.5,2.1,1.4,4.1,2.8,5.8c2,2.6,4.5,3.9,5.1,4.2h23.5   c0.7-0.3,3.1-1.8,5.2-4.4c1.4-1.8,2.4-3.7,2.9-5.8c0.6-2.4,0.5-5-0.2-7.8L641.1,471.4 M640.4,470.5c12.9,0,22.3,0,40.5,0   c3.9,13.5-8.2,19.6-8.2,19.6h-24C648.7,490.1,636.8,484.8,640.4,470.5z"></path>
	<path class="st1" d="M253.5,516.2h-96.6v17.9h96.6V516.2z"></path>
	<path class="st1" d="M244.3,527.4c1.2,0,2.2-1,2.2-2.2s-1-2.2-2.2-2.2s-2.2,1-2.2,2.2S243.1,527.4,244.3,527.4z"></path>
	<path class="st7" d="M156.7,524.8h44.4"></path>
	<path class="st2" d="M168.4,476.6c-1.8,0-3.4,0.3-4.9,1.2c-1.8,0.9-3.6,2.5-5.4,4.7c-1.1,1.9-1.2,3.7-0.5,4.7   c0.6,0.9,1.8,1.1,2.5,1.1c1,0,2-0.3,3.2-0.7c1.1-0.3,1.8-0.7,2.5-1.2c1.9-1.2,4-2.5,10.8-2.5c0.3,0,0.6,0,1,0   c8,0.2,10.4,1.6,12.6,2.8c0.7,0.3,1.3,0.8,2.1,1c1.1,0.5,2.2,0.7,3.2,0.7c1.3,0,2.4-0.5,2.9-1.4c0.7-1.2,0.4-2.9-0.7-4.6   c-1.6-2.2-3.2-3.8-5.1-4.7c-1.5-0.8-3.2-1.1-5.1-1.1c-1.8,0-3.6,0.3-5.4,0.6c-1.5,0.3-3,0.5-4.3,0.6c-0.1,0-0.2,0-0.3,0   c-1.5,0-2.9-0.3-4.5-0.6C171.7,476.9,170.1,476.6,168.4,476.6z M168.4,475.7c3.3,0,6.5,1.2,9.4,1.2c0.1,0,0.2,0,0.3,0   c2.8-0.1,6.1-1.2,9.7-1.2c3.6,0,7.5,1.3,11,6.3c2.4,3.7,1,7.3-2.9,7.3c-1.1,0-2.2-0.3-3.5-0.8c-3.3-1.2-4.1-3.5-14.5-3.7   c-0.4,0-0.6,0-1,0c-9.4,0-9.4,2.7-13.1,3.7c-1.4,0.5-2.5,0.8-3.6,0.8c-3.9,0-4.8-3.4-2.7-7.2C161.3,477,165,475.7,168.4,475.7z"></path>
	<path class="st7" d="M165.7,474.3h5.9"></path>
	<path class="st3" d="M167.6,475.3h2"></path>
	<path class="st3" d="M186.3,475.3h1.9"></path>
	<path class="st7" d="M184.5,474.3h5.6"></path>
	<path class="st8" d="M178,482.5c0.5,0,1-0.4,1-0.9s-0.4-0.9-1-0.9s-1,0.4-1,0.9S177.5,482.5,178,482.5z"></path>
	<path class="st3" d="M178,482.1c0.3,0,0.5-0.2,0.5-0.5s-0.2-0.5-0.5-0.5s-0.5,0.2-0.5,0.5C177.5,481.8,177.7,482.1,178,482.1z"></path>
	<path class="st3" d="M252.9,486.3H216v3.4h36.9V486.3z"></path>
	<path class="st3" d="M253.8,482.9h-36.9v3.4h36.9L253.8,482.9L253.8,482.9z"></path>
	<path class="st3" d="M252.9,479.5H216v3.4h36.9V479.5z"></path>
	<path class="st3" d="M253.8,476.1h-36.9v3.4h36.9L253.8,476.1L253.8,476.1z"></path>
	<path class="st3" d="M252.9,472.6H216v3.4h36.9V472.6z"></path>
	<path class="st7" d="M203.8,524.8h2.6"></path>
	<path class="st7" d="M647.2,534.2h-33.1c-7.6,0-7.8-10.4,0-10.4h33.1"></path>
	<path class="st3" d="M645.6,534.2c-4.4-3.1-2.5-8.9,0-10.5"></path>
	<path class="st7" d="M715.2,514.6h-27.6c-6,0-6.1-8.1,0-8.1h27.6"></path>
	<path class="st3" d="M713.8,514.6c-3.4-2.4-1.9-6.9,0-8.2"></path>
	<path class="st7" d="M677.9,523.8h35.7c7.6,0,7.8,10.4,0,10.4h-35.7"></path>
	<path class="st3" d="M679.4,523.8c4.4,3.1,2.5,8.9,0,10.5"></path>
	<path class="st7" d="M607.4,514.4h30.1c6.9,0,7.1,9.2,0,9.2h-30.1"></path>
	<path class="st3" d="M608.8,514.4c4,2.8,2.3,7.8,0,9.3"></path>
	<path class="st7" d="M680.6,514.4h32.7c6.9,0,7.1,9.2,0,9.2h-32.7"></path>
	<path class="st3" d="M682,514.4c4,2.8,2.3,7.8,0,9.3"></path>
	<path class="st2" d="M700.5,437.1c3.7-4.3,6.8-9,9-13.7c3.2-6.7,4.7-13.7,4.7-20.9c-0.3-9.5-2.5-19-6.6-28.4   c-1.9-4.5-4.4-9-7.1-13.2c-2.7-4.1-5.8-8.2-9.2-12c-0.1-0.1-0.2-0.2-0.3-0.2s-0.2,0.1-0.2,0.1c-0.1,0.1-0.1,0.3,0,0.4l0.1,0.1v0.1   c3.6,15.9-2.9,25.9-9.1,35.5c-2.1,3.2-4.2,6.5-6,9.9c-1.9,3.9-3,7.3-3.4,11c-0.5,4.3-0.1,8.8,1.4,13.6c0.8,2.6,1.8,5.4,3.2,8.3   c1.4,2.8,3.1,5.9,5.1,9c4.7,0,8.4,0.1,11.7,0.1C696.2,437,698.4,437.1,700.5,437.1z M701,438c-5.4,0-10.4-0.2-19.2-0.2   c-30.4-47.1,16.8-51.1,8.4-88c-0.5-0.9,0.1-1.9,1-1.9c0.3,0,0.6,0.1,1,0.4c13.7,15.3,22.6,34.5,23.2,54.2   C715.2,418.8,707,431,701,438z"></path>
	<path class="st3" d="M691,348.8c29.1,47-28.8,57.1-9.4,88.1"></path>
	<path class="st9" d="M404.9,486.3c-1.9,0-3.6,1.6-3.6,3.5s1.6,3.5,3.6,3.5h60.6c1.9,0,3.6-1.6,3.6-3.5s-1.6-3.5-3.6-3.5H404.9z    M404.9,485.4h60.6c2.5,0,4.5,2,4.5,4.4s-2,4.4-4.5,4.4h-60.6c-2.5,0-4.5-2-4.5-4.4S402.5,485.4,404.9,485.4z"></path>
	<g class="st10">
		<path class="st11" d="M237.6,381.1V187.9h184L237.6,381.1z"></path>
		<path class="st12" d="M238,187.9V380l182.6-192.1H238z M237.1,187.9h185.5L237.1,382.2V187.9z"></path>
	</g>
	<path class="st3" d="M-0.4,590.6h868"></path>
	<path class="st5" d="M795,474.5h-7.6v111.9h7.6V474.5z"></path>
	<path class="st3" d="M794.5,474.9h-6.8v111h6.8V474.9z"></path>
	<path class="st5" d="M791.3,298.6c12.4,0,22.4,9.8,22.4,22v136.8c0,12.1-10,22-22.4,22s-22.4-9.8-22.4-22V320.6   C768.9,308.4,778.9,298.6,791.3,298.6z"></path>
	<path class="st3" d="M791.3,299c12.1,0,21.9,9.7,21.9,21.5v136.8c0,11.9-9.8,21.5-21.9,21.5c-12.1,0-21.9-9.7-21.9-21.5V320.6   C769.3,308.7,779.2,299,791.3,299z"></path>
	<path class="st5" d="M790.8,462.1c3.4,0,6.1-2.7,6.1-6s-2.8-6-6.1-6s-6.1,2.7-6.1,6S787.4,462.1,790.8,462.1z"></path>
	<path class="st13" d="M790.8,461.6c3.1,0,5.7-2.5,5.7-5.6s-2.6-5.6-5.7-5.6c-3.2,0-5.7,2.5-5.7,5.6S787.7,461.6,790.8,461.6z"></path>
	<path class="st5" d="M791.3,377.8c8.5,0,15.4-6.8,15.4-15.1c0-8.3-6.9-15.1-15.4-15.1s-15.4,6.8-15.4,15.1   C775.9,371,782.8,377.8,791.3,377.8z"></path>
	<path class="st13" d="M791.3,377.4c8.2,0,14.9-6.6,14.9-14.6c0-8.1-6.7-14.6-14.9-14.6s-14.9,6.6-14.9,14.6   C776.3,370.8,783,377.4,791.3,377.4z"></path>
	<path class="st5" d="M791.2,368.9c3.4,0,6.2-2.7,6.2-6.1s-2.8-6.1-6.2-6.1s-6.2,2.7-6.2,6.1S787.8,368.9,791.2,368.9z"></path>
	<path class="st13" d="M791.2,368.4c3.2,0,5.8-2.5,5.8-5.7c0-3.1-2.6-5.7-5.8-5.7s-5.8,2.5-5.8,5.7S788,368.4,791.2,368.4z"></path>
	<path class="st5" d="M813.5,584.5h-44.6v6.5h44.6V584.5z"></path>
	<path class="st3" d="M813,584.9h-43.7v5.7H813V584.9z"></path>
	<path class="st5" d="M791.3,431.2c8.5,0,15.4-6.8,15.4-15.1c0-8.3-6.9-15.1-15.4-15.1s-15.4,6.8-15.4,15.1   C775.9,424.5,782.8,431.2,791.3,431.2z"></path>
	<path class="st13" d="M791.3,430.8c8.2,0,14.9-6.6,14.9-14.6c0-8.1-6.7-14.6-14.9-14.6s-14.9,6.6-14.9,14.6   C776.3,424.2,783,430.8,791.3,430.8z"></path>
	<path class="st5" d="M791.2,422.3c3.4,0,6.2-2.7,6.2-6.1s-2.8-6.1-6.2-6.1s-6.2,2.7-6.2,6.1C785,419.6,787.8,422.3,791.2,422.3z"></path>
	<path class="st13" d="M791.2,421.9c3.2,0,5.8-2.5,5.8-5.7c0-3.1-2.6-5.7-5.8-5.7s-5.8,2.5-5.8,5.7   C785.4,419.3,788,421.9,791.2,421.9z"></path>
	<path class="st5" d="M790.8,328.5c3.4,0,6.1-2.7,6.1-6s-2.8-6-6.1-6s-6.1,2.7-6.1,6S787.4,328.5,790.8,328.5z"></path>
	<path class="st13" d="M790.8,328.1c3.1,0,5.7-2.5,5.7-5.6s-2.6-5.6-5.7-5.6c-3.2,0-5.7,2.5-5.7,5.6S787.7,328.1,790.8,328.1z"></path>
	<path class="st5" d="M78.8,474.5h-7.6v111.9h7.6V474.5z"></path>
	<path class="st3" d="M78.3,474.9h-6.8v111h6.8V474.9z"></path>
	<path class="st5" d="M75.1,298.6c12.4,0,22.4,9.8,22.4,22v136.8c0,12.1-10,22-22.4,22s-22.4-9.8-22.4-22V320.6   C52.7,308.4,62.7,298.6,75.1,298.6z"></path>
	<path class="st3" d="M75.1,299c12.1,0,21.9,9.7,21.9,21.5v136.8c0,11.9-9.8,21.5-21.9,21.5s-21.9-9.7-21.9-21.5V320.6   C53.2,308.7,63,299,75.1,299z"></path>
	<path class="st5" d="M74.7,462.1c3.4,0,6.1-2.7,6.1-6s-2.8-6-6.1-6s-6.1,2.7-6.1,6C68.5,459.4,71.3,462.1,74.7,462.1z"></path>
	<path class="st13" d="M74.7,461.6c3.2,0,5.7-2.5,5.7-5.6s-2.6-5.6-5.7-5.6c-3.2,0-5.7,2.5-5.7,5.6S71.5,461.6,74.7,461.6z"></path>
	<path class="st5" d="M75.1,377.8c8.5,0,15.4-6.8,15.4-15.1c0-8.3-6.9-15.1-15.4-15.1s-15.4,6.8-15.4,15.1   C59.7,371,66.6,377.8,75.1,377.8z"></path>
	<path class="st13" d="M75.1,377.4c8.2,0,14.9-6.6,14.9-14.6c0-8.1-6.7-14.6-14.9-14.6s-14.9,6.6-14.9,14.6   C60.2,370.8,66.9,377.4,75.1,377.4z"></path>
	<path class="st5" d="M75.1,368.9c3.4,0,6.2-2.7,6.2-6.1s-2.8-6.1-6.2-6.1c-3.4,0-6.2,2.7-6.2,6.1S71.6,368.9,75.1,368.9z"></path>
	<path class="st13" d="M75.1,368.4c3.2,0,5.8-2.5,5.8-5.7c0-3.1-2.6-5.7-5.8-5.7s-5.8,2.5-5.8,5.7C69.3,365.9,71.9,368.4,75.1,368.4   z"></path>
	<path class="st5" d="M97.3,584.5H52.7v6.5h44.6V584.5z"></path>
	<path class="st3" d="M96.9,584.9H53.2v5.7h43.7V584.9z"></path>
	<path class="st5" d="M75.1,431.2c8.5,0,15.4-6.8,15.4-15.1c0-8.3-6.9-15.1-15.4-15.1s-15.4,6.8-15.4,15.1   C59.7,424.5,66.6,431.2,75.1,431.2z"></path>
	<path class="st13" d="M75.1,430.8c8.2,0,14.9-6.6,14.9-14.6c0-8.1-6.7-14.6-14.9-14.6s-14.9,6.6-14.9,14.6   C60.2,424.2,66.9,430.8,75.1,430.8z"></path>
	<path class="st5" d="M75.1,422.3c3.4,0,6.2-2.7,6.2-6.1s-2.8-6.1-6.2-6.1c-3.4,0-6.2,2.7-6.2,6.1C68.8,419.6,71.6,422.3,75.1,422.3   z"></path>
	<path class="st13" d="M75.1,421.9c3.2,0,5.8-2.5,5.8-5.7c0-3.1-2.6-5.7-5.8-5.7s-5.8,2.5-5.8,5.7C69.3,419.3,71.9,421.9,75.1,421.9   z"></path>
	<path class="st5" d="M74.7,328.5c3.4,0,6.1-2.7,6.1-6s-2.8-6-6.1-6s-6.1,2.7-6.1,6C68.5,325.8,71.3,328.5,74.7,328.5z"></path>
	<path class="st13" d="M74.7,328.1c3.2,0,5.7-2.5,5.7-5.6s-2.6-5.6-5.7-5.6c-3.2,0-5.7,2.5-5.7,5.6S71.5,328.1,74.7,328.1z"></path>
	<path class="st14" d="M669.8,129.5H200.3v12.8h469.5V129.5z"></path>
	<path class="st5" d="M245.6,165.9h9v-24h-9V165.9z"></path>
	<path class="st3" d="M246,165.5h8.2v-23.2H246V165.5z"></path>
	<path class="st5" d="M615.4,165.9h9v-24h-9V165.9z"></path>
	<path class="st3" d="M615.8,165.5h8.2v-23.2h-8.2V165.5z"></path>
	<path class="st5" d="M575.5,46.5H549v83.6h26.5V46.5z"></path>
	<path class="st3" d="M575.1,46.9h-25.6v82.7h25.6V46.9z"></path>
	<path class="st5" d="M595.2,32.7h-20.4v97.4h20.4V32.7z"></path>
	<path class="st3" d="M594.8,33.1h-19.6v96.5h19.6V33.1z"></path>
	<path class="st5" d="M604.2,130.1l20.2-1.7l-8.7-95.8l-20.2,1.7L604.2,130.1z"></path>
	<path class="st15" d="M604.6,129.6l19.3-1.6l-8.6-95L596,34.6L604.6,129.6z"></path>
	<path class="st5" d="M603.3,122.5l20.3-1.7l-0.6-6.2l-20.4,1.7L603.3,122.5z"></path>
	<path class="st15" d="M603.7,122l19.5-1.6l-0.5-5.4l-19.5,1.6L603.7,122z"></path>
	<path class="st5" d="M308.8,98.6h37v18.9c0,6.6-5.5,12.1-12.3,12.1H321c-6.8,0-12.3-5.4-12.3-12.1L308.8,98.6L308.8,98.6z"></path>
	<path class="st3" d="M309.7,99H345c0.3,0,0.4,0.2,0.4,0.4v18c0,6.5-5.3,11.6-11.8,11.6h-12.5c-6.6,0-11.8-5.2-11.8-11.6v-18   C309.3,99.2,309.5,99,309.7,99z"></path>
	<path class="st16" d="M328.6,99.2h3c0,0,0-15.3,16-19.1c8.2-1.7,18.3-0.3,26.8-4.1c8.5-4,53.8-34.1,53.8-34.1s-58-8.9-78.1,27.5   c-3.1,5.1-7.6,9.6-13.3,13.6c-0.2,0.1-0.3,0.2-0.4,0.3C331.1,87.6,329.1,93.5,328.6,99.2z"></path>
	<path class="st16" d="M326.6,99.2c-0.1-10.3,0.9-19.5,4.1-25.9c0.3-0.4,0.3-0.9,0-1.4c-2.7-5.3-4.7-11.2-0.7-21.3   c1-2.5,2.5-4.8,4.4-6.8c3.7-3.8,6.1-7.6,5.6-11.5c-0.3-5.6,2.8-10.5,9.2-14.7c2-1.3,4.1-2.3,6.5-2.9c3.7-1,6-2.8,6.9-5.4   c0.5-1.6,1.3-3.1,2.4-4.4c4.7-5.8,10.3-4.3,16-1.2c0.3,0.2,0.4,0.4,0.2,0.7c0,0,0,0,0,0.1c-17.4,21.3-33.2,45.3-48.4,70.1   c-0.5,0.9-1,1.8-1.2,2.8c-1.8,6.1-2.2,14-2.5,22.1L326.6,99.2z"></path>
	<path class="st16" d="M329.8,98.9c2.3-4.4,5.6-8.1,15-7.6c1.7,0.1,3.3-0.3,4.8-0.9c17.6-7.9,37.8,0.6,48.7,12.4   c-18.8,1.6-37.3,2-53.3-7.8c-2.1-1.3-4.7-1.7-7-1c-3.2,0.9-5.4,3.4-5.8,4.8L329.8,98.9z"></path>
	<path class="st16" d="M323.1,99.2h3c-0.4-5-1.3-6.7-4.6-12.3c-0.4-0.8-0.7-1.6-0.7-2.5c-0.3-6.5-4.1-14.6-8.3-18.7   c-1-0.9-1.8-2-2.7-3l-16.2-20c-6.5-6.2-15.4-9.6-26.1-10.8C272.6,40.2,277,48,278,54c6.1,18,15.4,27.2,27.6,28.5   C316.5,83.9,322.7,89.2,323.1,99.2z"></path>
	<path class="st16" d="M322.4,98.9c-2.2-4-6.7-7.1-12.6-9.4c-2.4-0.9-4.8-1.4-7.4-1.4c-21.2,0.4-40.4,1.9-56.5,5.3   c0.4-6.6,2.7-11.4,10.4-10.7c1.7,0.2,3.3-0.3,4.6-1.5c5.4-4.7,11.9-6,19.8-2.9c1.2,0.5,2.5,0.6,3.9,0.4c9.6-1.6,16.9,0,21.1,5.5   c0.6,0.8,1.4,1.4,2.3,1.7c8.4,3,14.4,7.1,17,12.8L322.4,98.9z"></path>
	<path class="st5" d="M345.9,114.3h-37v3.4h37V114.3z"></path>
	<path class="st3" d="M345.4,114.7h-36.2v2.6h36.2V114.7z"></path>
	<path class="st5" d="M345.9,108.9h-37v3.4h37V108.9z"></path>
	<path class="st3" d="M345.4,109.3h-36.2v2.6h36.2V109.3z"></path>
	<path class="st14" d="M550.1,41.7h-26.5v87.8h26.5V41.7z"></path>
	<path class="st14" d="M541.7,59.6h-9.8v69.8h9.8V59.6z"></path>
	<path class="st17" d="M635.3,173.2H227.8v228h407.5V173.2z M226,171.4h411V403H226V171.4z"></path>
	<rect x="225.8" y="398.2" class="st17" width="411.2" height="8.3"></rect>
	<path class="st17" d="M612.2,407.8h7.4V406h-9v0.2C610.6,407.1,611.3,407.8,612.2,407.8z"></path>
	<g class="st18">
		<path class="st19" d="M598.2,405.4c0,0,11.9,12.2,14.3,14.5c2.4,2.3,12.2,11.5,12.3,12.2c0.1,0.3,0,0.8,0,1.2    c0,0.4,0.1,1.4-0.3,1.5h-5.2l-33.5-29.3h12.4V405.4z"></path>
	</g>
	<g class="st18">
		<path class="st19" d="M264,405.4c0,0-11.9,12.2-14.3,14.5c-2.4,2.3-12.2,11.5-12.3,12.2c-0.1,0.3,0,0.8,0,1.2    c0,0.4-0.1,1.4,0.3,1.5h5.2l33.5-29.3H264V405.4z"></path>
	</g>
</g>
<g id="SSD-55SK14400U" class="st0">
	<path class="st1" d="M741.1,437.5H125.6v103.4h615.6L741.1,437.5L741.1,437.5z"></path>
	<path class="st2" d="M241,541.4l-9.9,0.1L187.8,584c-1.4,1.3-1.4,3.5,0,4.9c1.4,1.3,3.6,1.3,5,0L241,541.4z M243.1,540.6   l-49.7,48.8c-1.7,1.7-4.5,1.7-6.2,0c-1.7-1.6-1.7-4.4,0-6.1l43.5-42.7H243.1z"></path>
	<path class="st2" d="M622.5,541.7l48,47.1c1.4,1.3,3.6,1.3,4.9,0.1c1.4-1.3,1.3-3.5-0.1-4.8l-43.1-42.3L622.5,541.7z M620.4,540.8   h12.3l43.3,42.5c1.7,1.6,1.7,4.4,0.1,6c-1.7,1.6-4.4,1.6-6.1-0.1L620.4,540.8z"></path>
	<path class="st3" d="M279.7,489.6H133.4"></path>
	<path class="st1" d="M594.1,444.3H279.7v89.8h314.4V444.3z"></path>
	<path class="st3" d="M594,489.6h140.2"></path>
	<path class="st3" d="M587,444.3v89.8"></path>
	<path class="st3" d="M286.6,444.3v89.8"></path>
	<path class="st1" d="M734.2,444.3H133.4v89.8h600.8L734.2,444.3L734.2,444.3z"></path>
	<path class="st2" d="M166.1,382.7c-2.5,1.3-4.5,2.9-6.1,4.8c-1.5,1.8-2.6,4-3.3,6.5c-1.1,3.9-1.4,8.6-0.6,14   c0.6,4.3,1.8,9,3.7,14.1c2.6,7.4,5.8,13.3,6.8,14.9h16.8c1-1.6,4.3-7.5,7.1-14.9c1.9-5.1,3.2-9.8,3.9-14.1c0.8-5.3,0.6-10-0.6-13.9   c-0.8-2.5-1.9-4.7-3.6-6.5c-1.7-2-4-3.6-6.6-4.8h-17.5 M165.9,381.9c6.2,0,9.3,0,17.7,0c26.8,12.3,0,56,0,56h-17.7   C165.9,437.9,140.7,394.6,165.9,381.9z"></path>
	<path class="st3" d="M156.7,303c9.7,15.2,14.4,58.1,14.4,58.1"></path>
	<path class="st4" d="M196.5,318.2c-10.7,15.5-22.9,62.6-22.9,62.6"></path>
	<path class="st5" d="M183,382.2h-7.2c0.2-1.9,1.1-9.6,3.9-18.1c1.9-5.8,4.3-10.9,7.2-15.2c2.3-3.4,4.9-6.4,7.8-8.7   c-6.7,7.2-9.5,17-10.7,24.5C182.6,373.1,183,380.4,183,382.2z"></path>
	<path class="st2" d="M190.9,344.5c-1.2,1.4-2.5,2.9-3.6,4.7c-2.8,4.2-5.3,9.3-7.2,15.1c-2.6,8-3.6,15.1-3.9,17.6h6.3   c-0.1-0.9-0.1-2.4-0.1-4.4c0-3,0.2-7.6,1.1-12.7C184.9,356.8,187.3,350,190.9,344.5z M199.5,336.6c-18.9,13.9-15.9,46.1-15.9,46.1   h-8.2C175.4,382.6,177.9,348.2,199.5,336.6z"></path>
	<path class="st5" d="M178.8,382.2H169c0.1-1.3,0.4-5.5,1-11.5c0.7-6.6,1.9-16.9,4.2-28c2.5-12.5,5.7-23.4,9.5-32.7   c3.7-8.9,7.8-16.1,12.6-21.5c-10.2,15.7-14.4,38.5-16.1,55.8c-1.1,10.9-1.3,20.6-1.4,27C178.6,377,178.7,380.9,178.8,382.2z"></path>
	<path class="st2" d="M192.3,294.4c-3,4.5-5.8,9.8-8.3,15.9c-3.8,9.1-6.9,20.1-9.5,32.6c-2.2,11.1-3.5,21.3-4.2,27.9   c-0.5,5.3-0.8,9.3-0.9,10.9h9c-0.1-1.6-0.2-5.3-0.2-10.3c0-6.3,0.3-16.1,1.4-27C181,329.2,184.5,309.6,192.3,294.4z M200,284.1   c-24.7,29.7-20.8,98.5-20.8,98.5h-10.7C168.6,382.6,171.7,308.9,200,284.1z"></path>
	<path class="st5" d="M173,382.2h-6.8c0-1,0.1-3.9-0.1-7.8c-0.2-4.7-0.8-11.9-2.3-19.9c-2.4-12.3-7.5-28.6-18.3-40.2   c5.2,4.2,9.7,9.6,13.5,15.9c4.1,6.9,7.5,14.9,9.9,24c2.1,8,3.2,15.4,3.6,20.2C172.9,378.3,173,381.2,173,382.2z"></path>
	<path class="st2" d="M150.2,319.1c8.1,11,12.1,24.6,14.1,35.2c1.5,8,2.1,15.3,2.3,20c0.2,3.5,0.2,6.2,0.1,7.5h5.8   c0-1.3-0.2-4-0.5-7.5c-0.4-4.7-1.5-12.1-3.6-20.1c-2.4-9-5.7-17.1-9.8-23.9C156.2,326.1,153.4,322.4,150.2,319.1z M140,309.7   c33.5,20.7,33.4,72.9,33.4,72.9h-7.6C165.8,382.6,168.1,331.9,140,309.7z"></path>
	<path class="st5" d="M190.5,324.4c-1.1,2.4-1,4.9,0.2,5.4s3.1-1,4.2-3.4c1.1-2.4,1-4.9-0.2-5.4C193.5,320.4,191.6,322,190.5,324.4z   "></path>
	<path class="st6" d="M190.9,324.6c-1,2.2-1,4.4,0,4.8s2.7-1,3.7-3.2s1-4.4,0-4.8C193.6,320.9,191.9,322.4,190.9,324.6z"></path>
	<path class="st5" d="M158.7,306c-1.3,0.5-1.5,3.1-0.4,5.8c1,2.8,2.9,4.7,4.2,4.2s1.5-3.1,0.4-5.8C161.8,307.4,160,305.5,158.7,306z   "></path>
	<path class="st3" d="M158.9,306.4c-1,0.4-1.1,2.7-0.2,5.3c1,2.6,2.6,4.3,3.6,4c1-0.4,1.1-2.7,0.2-5.3   C161.5,307.8,159.9,306,158.9,306.4z"></path>
	<path class="st3" d="M158.6,389h33.1"></path>
	<path class="st5" d="M648.6,474.6c2.4,0,4.4-1.9,4.4-4.3s-2-4.3-4.4-4.3s-4.4,1.9-4.4,4.3C644.3,472.7,646.2,474.6,648.6,474.6z"></path>
	<path class="st3" d="M648.6,474.2c2.2,0,3.9-1.7,3.9-3.9c0-2.1-1.8-3.9-3.9-3.9c-2.2,0-4,1.7-4,3.9   C644.7,472.4,646.5,474.2,648.6,474.2z"></path>
	<path class="st5" d="M653.5,471.6c2.4,0,4.4-1.9,4.4-4.3s-2-4.3-4.4-4.3s-4.4,1.9-4.4,4.3S651.1,471.6,653.5,471.6z"></path>
	<path class="st3" d="M653.5,471.2c2.2,0,3.9-1.7,3.9-3.9c0-2.1-1.8-3.9-3.9-3.9c-2.2,0-4,1.7-4,3.9   C649.6,469.5,651.3,471.2,653.5,471.2z"></path>
	<path class="st5" d="M655.5,474.6c2.4,0,4.4-1.9,4.4-4.3s-2-4.3-4.4-4.3s-4.4,1.9-4.4,4.3S653,474.6,655.5,474.6z"></path>
	<path class="st3" d="M655.5,474.2c2.2,0,3.9-1.7,3.9-3.9c0-2.1-1.8-3.9-3.9-3.9c-2.2,0-4,1.7-4,3.9   C651.5,472.4,653.3,474.2,655.5,474.2z"></path>
	<path class="st5" d="M667.2,472.6c2.4,0,4.4-1.9,4.4-4.3s-2-4.3-4.4-4.3s-4.4,1.9-4.4,4.3C662.8,470.6,664.7,472.6,667.2,472.6z"></path>
	<path class="st3" d="M667.2,472.1c2.2,0,3.9-1.7,3.9-3.9c0-2.1-1.8-3.9-3.9-3.9c-2.2,0-3.9,1.7-3.9,3.9   C663.2,470.4,665,472.1,667.2,472.1z"></path>
	<path class="st5" d="M661.3,470.7c2.4,0,4.4-1.9,4.4-4.3s-2-4.3-4.4-4.3s-4.4,1.9-4.4,4.3S658.9,470.7,661.3,470.7z"></path>
	<path class="st3" d="M661.3,470.2c2.2,0,4-1.7,4-3.9s-1.8-3.9-4-3.9s-3.9,1.7-3.9,3.9S659.1,470.2,661.3,470.2z"></path>
	<path class="st5" d="M663.1,474.6c2.4,0,4.4-1.9,4.4-4.3s-2-4.3-4.4-4.3s-4.4,1.9-4.4,4.3C658.7,472.7,660.6,474.6,663.1,474.6z"></path>
	<path class="st3" d="M663.1,474.2c2.2,0,3.9-1.7,3.9-3.9c0-2.1-1.8-3.9-3.9-3.9c-2.2,0-4,1.7-4,3.9   C659.1,472.4,660.9,474.2,663.1,474.2z"></path>
	<path class="st5" d="M672.2,475.5c2.4,0,4.4-1.9,4.4-4.3s-2-4.3-4.4-4.3s-4.4,1.9-4.4,4.3C667.9,473.6,669.8,475.5,672.2,475.5z"></path>
	<path class="st3" d="M672.2,475.1c2.2,0,3.9-1.7,3.9-3.9c0-2.1-1.8-3.9-3.9-3.9c-2.2,0-3.9,1.7-3.9,3.9S670.1,475.1,672.2,475.1z"></path>
	<path class="st5" d="M672.6,489.6h-23.8c-0.5-0.3-3.1-1.6-5.3-4.3c-1.4-1.7-2.4-3.8-2.9-5.9c-0.6-2.6-0.5-5.5,0.2-8.5h39.8   c0.8,2.9,0.9,5.7,0.3,8.3c-0.5,2.2-1.5,4.1-3,5.9C675.8,487.8,673.2,489.4,672.6,489.6z"></path>
	<path class="st2" d="M641.2,471.3c-0.6,2.8-0.7,5.5-0.1,8c0.5,2.1,1.4,4.1,2.8,5.8c2,2.6,4.5,3.9,5.1,4.2h23.5   c0.7-0.3,3.1-1.8,5.2-4.4c1.4-1.8,2.4-3.7,2.9-5.8c0.6-2.4,0.5-5-0.2-7.8L641.2,471.3 M640.5,470.4c12.9,0,22.3,0,40.5,0   c3.9,13.5-8.2,19.6-8.2,19.6h-24C648.8,490.1,636.8,484.7,640.5,470.4z"></path>
	<path class="st1" d="M253.5,516.2h-96.6v17.9h96.6V516.2z"></path>
	<path class="st1" d="M244.3,527.3c1.2,0,2.2-1,2.2-2.2s-1-2.2-2.2-2.2s-2.2,1-2.2,2.2S243.1,527.3,244.3,527.3z"></path>
	<path class="st7" d="M156.8,524.7h44.4"></path>
	<path class="st2" d="M168.5,476.5c-1.8,0-3.4,0.3-4.9,1.2c-1.8,0.9-3.6,2.5-5.4,4.7c-1.1,1.9-1.2,3.7-0.5,4.7   c0.6,0.9,1.8,1.1,2.5,1.1c1,0,2-0.3,3.2-0.7c1.1-0.3,1.8-0.7,2.5-1.2c1.9-1.2,4-2.5,10.8-2.5c0.3,0,0.6,0,1,0   c8,0.2,10.4,1.6,12.6,2.8c0.7,0.3,1.3,0.8,2.1,1c1.1,0.5,2.2,0.7,3.2,0.7c1.3,0,2.4-0.5,2.9-1.4c0.7-1.2,0.4-2.9-0.7-4.6   c-1.6-2.2-3.2-3.8-5.1-4.7c-1.5-0.8-3.2-1.1-5.1-1.1c-1.8,0-3.6,0.3-5.4,0.6c-1.5,0.3-3,0.5-4.3,0.6c-0.1,0-0.2,0-0.3,0   c-1.5,0-2.9-0.3-4.5-0.6C171.7,476.8,170.2,476.5,168.5,476.5z M168.5,475.6c3.3,0,6.5,1.2,9.4,1.2c0.1,0,0.2,0,0.3,0   c2.8-0.1,6.1-1.2,9.7-1.2c3.6,0,7.5,1.3,11,6.3c2.4,3.7,1,7.3-2.9,7.3c-1.1,0-2.2-0.3-3.5-0.8c-3.3-1.2-4.1-3.5-14.5-3.7   c-0.4,0-0.6,0-1,0c-9.4,0-9.4,2.7-13.1,3.7c-1.4,0.5-2.5,0.8-3.6,0.8c-3.9,0-4.8-3.4-2.7-7.2C161.4,476.9,165.1,475.6,168.5,475.6z   "></path>
	<path class="st7" d="M165.8,474.3h5.9"></path>
	<path class="st3" d="M167.7,475.2h2"></path>
	<path class="st3" d="M186.4,475.2h1.9"></path>
	<path class="st7" d="M184.6,474.3h5.6"></path>
	<path class="st8" d="M178.1,482.4c0.5,0,1-0.4,1-0.9s-0.4-0.9-1-0.9s-1,0.4-1,0.9S177.5,482.4,178.1,482.4z"></path>
	<path class="st3" d="M178.1,482c0.3,0,0.5-0.2,0.5-0.5s-0.2-0.5-0.5-0.5s-0.5,0.2-0.5,0.5C177.5,481.8,177.8,482,178.1,482z"></path>
	<path class="st3" d="M253,486.2h-36.9v3.4H253V486.2z"></path>
	<path class="st3" d="M253.8,482.8H217v3.4h36.9L253.8,482.8L253.8,482.8z"></path>
	<path class="st3" d="M253,479.4h-36.9v3.4H253V479.4z"></path>
	<path class="st3" d="M253.8,476H217v3.4h36.9L253.8,476L253.8,476z"></path>
	<path class="st3" d="M253,472.6h-36.9v3.4H253V472.6z"></path>
	<path class="st7" d="M203.8,524.7h2.6"></path>
	<path class="st7" d="M647.3,534.2h-33.1c-7.6,0-7.8-10.4,0-10.4h33.1"></path>
	<path class="st3" d="M645.7,534.2c-4.4-3.1-2.5-8.9,0-10.5"></path>
	<path class="st7" d="M715.3,514.5h-27.6c-6,0-6.1-8.1,0-8.1h27.6"></path>
	<path class="st3" d="M713.9,514.5c-3.4-2.4-1.9-6.9,0-8.2"></path>
	<path class="st7" d="M678,523.7h35.7c7.6,0,7.8,10.4,0,10.4H678"></path>
	<path class="st3" d="M679.5,523.7c4.4,3.1,2.5,8.9,0,10.5"></path>
	<path class="st7" d="M607.5,514.4h30.1c6.9,0,7.1,9.2,0,9.2h-30.1"></path>
	<path class="st3" d="M608.9,514.4c4,2.8,2.3,7.8,0,9.3"></path>
	<path class="st7" d="M680.6,514.4h32.7c6.9,0,7.1,9.2,0,9.2h-32.7"></path>
	<path class="st3" d="M682,514.4c4,2.8,2.3,7.8,0,9.3"></path>
	<path class="st2" d="M700.6,437c3.7-4.3,6.8-9,9-13.7c3.2-6.7,4.7-13.7,4.7-20.9c-0.3-9.5-2.5-19-6.6-28.4c-1.9-4.5-4.4-9-7.1-13.2   c-2.7-4.1-5.8-8.2-9.2-12c-0.1-0.1-0.2-0.2-0.3-0.2s-0.2,0.1-0.2,0.1c-0.1,0.1-0.1,0.3,0,0.4l0.1,0.1v0.1   c3.6,15.9-2.9,25.9-9.1,35.5c-2.1,3.2-4.2,6.5-6,9.9c-1.9,3.9-3,7.3-3.4,11c-0.5,4.3-0.1,8.8,1.4,13.6c0.8,2.6,1.8,5.4,3.2,8.3   c1.4,2.8,3.1,5.9,5.1,9c4.7,0,8.4,0.1,11.7,0.1C696.3,436.9,698.5,437,700.6,437z M701.1,437.9c-5.4,0-10.4-0.2-19.2-0.2   c-30.4-47.1,16.8-51.1,8.4-88c-0.5-0.9,0.1-1.9,1-1.9c0.3,0,0.6,0.1,1,0.4c13.7,15.3,22.6,34.5,23.2,54.2   C715.3,418.7,707,430.9,701.1,437.9z"></path>
	<path class="st3" d="M691.1,348.7c29.1,47-28.8,57.1-9.4,88.1"></path>
	<path class="st9" d="M405,486.2c-1.9,0-3.6,1.6-3.6,3.5s1.6,3.5,3.6,3.5h60.6c1.9,0,3.6-1.6,3.6-3.5s-1.6-3.5-3.6-3.5H405z    M405,485.3h60.6c2.5,0,4.5,2,4.5,4.4s-2,4.4-4.5,4.4H405c-2.5,0-4.5-2-4.5-4.4S402.5,485.3,405,485.3z"></path>
	<g class="st10">
		<path class="st11" d="M237.6,381V187.9h184L237.6,381z"></path>
		<path class="st12" d="M238.1,187.9V380l182.6-192.1H238.1z M237.2,187.9h185.5L237.2,382.1V187.9z"></path>
	</g>
	<path class="st3" d="M-0.3,590.6h868"></path>
	<path class="st5" d="M795,474.4h-7.6v111.9h7.6V474.4z"></path>
	<path class="st3" d="M794.6,474.9h-6.8v111h6.8V474.9z"></path>
	<path class="st5" d="M791.3,298.5c12.4,0,22.4,9.8,22.4,22v136.8c0,12.1-10,22-22.4,22s-22.4-9.8-22.4-22V320.5   C769,308.3,779,298.5,791.3,298.5z"></path>
	<path class="st3" d="M791.3,299c12.1,0,21.9,9.7,21.9,21.5v136.8c0,11.9-9.8,21.5-21.9,21.5c-12.1,0-21.9-9.7-21.9-21.5V320.5   C769.4,308.6,779.2,299,791.3,299z"></path>
	<path class="st5" d="M790.9,462c3.4,0,6.1-2.7,6.1-6s-2.8-6-6.1-6s-6.1,2.7-6.1,6C784.8,459.3,787.5,462,790.9,462z"></path>
	<path class="st13" d="M790.9,461.6c3.1,0,5.7-2.5,5.7-5.6s-2.6-5.6-5.7-5.6c-3.2,0-5.7,2.5-5.7,5.6S787.8,461.6,790.9,461.6z"></path>
	<path class="st5" d="M791.3,377.7c8.5,0,15.4-6.8,15.4-15.1c0-8.3-6.9-15.1-15.4-15.1s-15.4,6.8-15.4,15.1   C776,370.9,782.9,377.7,791.3,377.7z"></path>
	<path class="st13" d="M791.3,377.3c8.2,0,14.9-6.6,14.9-14.6c0-8.1-6.7-14.6-14.9-14.6s-14.9,6.6-14.9,14.6   C776.4,370.7,783.1,377.3,791.3,377.3z"></path>
	<path class="st5" d="M791.3,368.8c3.4,0,6.2-2.7,6.2-6.1s-2.8-6.1-6.2-6.1s-6.2,2.7-6.2,6.1S787.9,368.8,791.3,368.8z"></path>
	<path class="st13" d="M791.3,368.4c3.2,0,5.8-2.5,5.8-5.7c0-3.1-2.6-5.7-5.8-5.7s-5.8,2.5-5.8,5.7   C785.5,365.8,788.1,368.4,791.3,368.4z"></path>
	<path class="st5" d="M813.5,584.4H769v6.5h44.6L813.5,584.4L813.5,584.4z"></path>
	<path class="st3" d="M813.1,584.8h-43.7v5.7h43.7V584.8z"></path>
	<path class="st5" d="M791.3,431.1c8.5,0,15.4-6.8,15.4-15.1c0-8.3-6.9-15.1-15.4-15.1s-15.4,6.8-15.4,15.1   C776,424.4,782.9,431.1,791.3,431.1z"></path>
	<path class="st13" d="M791.3,430.7c8.2,0,14.9-6.6,14.9-14.6c0-8.1-6.7-14.6-14.9-14.6s-14.9,6.6-14.9,14.6   C776.4,424.1,783.1,430.7,791.3,430.7z"></path>
	<path class="st5" d="M791.3,422.2c3.4,0,6.2-2.7,6.2-6.1s-2.8-6.1-6.2-6.1s-6.2,2.7-6.2,6.1S787.9,422.2,791.3,422.2z"></path>
	<path class="st13" d="M791.3,421.8c3.2,0,5.8-2.5,5.8-5.7c0-3.1-2.6-5.7-5.8-5.7s-5.8,2.5-5.8,5.7   C785.5,419.2,788.1,421.8,791.3,421.8z"></path>
	<path class="st5" d="M790.9,328.4c3.4,0,6.1-2.7,6.1-6s-2.8-6-6.1-6s-6.1,2.7-6.1,6C784.8,325.7,787.5,328.4,790.9,328.4z"></path>
	<path class="st13" d="M790.9,328c3.1,0,5.7-2.5,5.7-5.6s-2.6-5.6-5.7-5.6c-3.2,0-5.7,2.5-5.7,5.6S787.8,328,790.9,328z"></path>
	<path class="st5" d="M78.9,474.4h-7.6v111.9h7.6V474.4z"></path>
	<path class="st3" d="M78.4,474.9h-6.8v111h6.8V474.9z"></path>
	<path class="st5" d="M75.2,298.5c12.4,0,22.4,9.8,22.4,22v136.8c0,12.1-10,22-22.4,22s-22.4-9.8-22.4-22V320.5   C52.8,308.3,62.8,298.5,75.2,298.5z"></path>
	<path class="st3" d="M75.2,299c12.1,0,21.9,9.7,21.9,21.5v136.8c0,11.9-9.8,21.5-21.9,21.5s-21.9-9.7-21.9-21.5V320.5   C53.2,308.6,63.1,299,75.2,299z"></path>
	<path class="st5" d="M74.7,462c3.4,0,6.1-2.7,6.1-6s-2.8-6-6.1-6s-6.1,2.7-6.1,6S71.3,462,74.7,462z"></path>
	<path class="st13" d="M74.7,461.6c3.2,0,5.7-2.5,5.7-5.6s-2.6-5.6-5.7-5.6c-3.2,0-5.7,2.5-5.7,5.6S71.6,461.6,74.7,461.6z"></path>
	<path class="st5" d="M75.2,377.7c8.5,0,15.4-6.8,15.4-15.1c0-8.3-6.9-15.1-15.4-15.1s-15.4,6.8-15.4,15.1   C59.8,370.9,66.7,377.7,75.2,377.7z"></path>
	<path class="st13" d="M75.2,377.3c8.2,0,14.9-6.6,14.9-14.6c0-8.1-6.7-14.6-14.9-14.6s-14.9,6.6-14.9,14.6   C60.3,370.7,66.9,377.3,75.2,377.3z"></path>
	<path class="st5" d="M75.1,368.8c3.4,0,6.2-2.7,6.2-6.1s-2.8-6.1-6.2-6.1c-3.4,0-6.2,2.7-6.2,6.1S71.7,368.8,75.1,368.8z"></path>
	<path class="st13" d="M75.1,368.4c3.2,0,5.8-2.5,5.8-5.7c0-3.1-2.6-5.7-5.8-5.7s-5.8,2.5-5.8,5.7C69.4,365.8,71.9,368.4,75.1,368.4   z"></path>
	<path class="st5" d="M97.4,584.4H52.8v6.5h44.6C97.4,590.9,97.4,584.4,97.4,584.4z"></path>
	<path class="st3" d="M96.9,584.8H53.2v5.7h43.7V584.8z"></path>
	<path class="st5" d="M75.2,431.1c8.5,0,15.4-6.8,15.4-15.1c0-8.3-6.9-15.1-15.4-15.1s-15.4,6.8-15.4,15.1   C59.8,424.4,66.7,431.1,75.2,431.1z"></path>
	<path class="st13" d="M75.2,430.7c8.2,0,14.9-6.6,14.9-14.6c0-8.1-6.7-14.6-14.9-14.6s-14.9,6.6-14.9,14.6   C60.3,424.1,66.9,430.7,75.2,430.7z"></path>
	<path class="st5" d="M75.1,422.2c3.4,0,6.2-2.7,6.2-6.1s-2.8-6.1-6.2-6.1c-3.4,0-6.2,2.7-6.2,6.1S71.7,422.2,75.1,422.2z"></path>
	<path class="st13" d="M75.1,421.8c3.2,0,5.8-2.5,5.8-5.7c0-3.1-2.6-5.7-5.8-5.7s-5.8,2.5-5.8,5.7C69.4,419.2,71.9,421.8,75.1,421.8   z"></path>
	<path class="st5" d="M74.7,328.4c3.4,0,6.1-2.7,6.1-6s-2.8-6-6.1-6s-6.1,2.7-6.1,6C68.6,325.7,71.3,328.4,74.7,328.4z"></path>
	<path class="st13" d="M74.7,328c3.2,0,5.7-2.5,5.7-5.6s-2.6-5.6-5.7-5.6c-3.2,0-5.7,2.5-5.7,5.6S71.6,328,74.7,328z"></path>
	<path class="st14" d="M669.9,129.5H200.4v12.8h469.5V129.5z"></path>
	<path class="st5" d="M245.7,165.9h9v-24h-9V165.9z"></path>
	<path class="st3" d="M246.1,165.4h8.2v-23.2h-8.2V165.4z"></path>
	<path class="st5" d="M615.5,165.9h9v-24h-9V165.9z"></path>
	<path class="st3" d="M615.9,165.4h8.2v-23.2h-8.2V165.4z"></path>
	<path class="st5" d="M575.6,46.4h-26.5V130h26.5V46.4z"></path>
	<path class="st3" d="M575.2,46.8h-25.6v82.7h25.6V46.8z"></path>
	<path class="st5" d="M595.3,32.6h-20.4V130h20.4V32.6z"></path>
	<path class="st3" d="M594.9,33h-19.6v96.5h19.6V33z"></path>
	<path class="st5" d="M604.2,130l20.2-1.7l-8.7-95.8l-20.2,1.7L604.2,130z"></path>
	<path class="st15" d="M604.6,129.5l19.3-1.6l-8.6-95L596,34.5L604.6,129.5z"></path>
	<path class="st5" d="M603.4,122.4l20.3-1.7l-0.6-6.2l-20.4,1.7L603.4,122.4z"></path>
	<path class="st15" d="M603.8,121.9l19.5-1.6l-0.5-5.4l-19.5,1.6L603.8,121.9z"></path>
	<path class="st5" d="M308.9,98.5h37v18.9c0,6.6-5.5,12.1-12.3,12.1h-12.5c-6.8,0-12.3-5.4-12.3-12.1L308.9,98.5L308.9,98.5z"></path>
	<path class="st3" d="M309.8,98.9h35.3c0.3,0,0.4,0.2,0.4,0.4v18c0,6.5-5.3,11.6-11.8,11.6h-12.5c-6.6,0-11.8-5.2-11.8-11.6v-18   C309.3,99.1,309.6,98.9,309.8,98.9z"></path>
	<path class="st16" d="M328.7,99.1h3c0,0,0-15.3,16-19.1c8.2-1.7,18.3-0.3,26.8-4.1c8.5-4,53.8-34.1,53.8-34.1s-58-8.9-78.1,27.5   c-3.1,5.1-7.6,9.6-13.3,13.6c-0.2,0.1-0.3,0.2-0.4,0.3C331.2,87.5,329.2,93.4,328.7,99.1z"></path>
	<path class="st16" d="M326.7,99.1c-0.1-10.3,0.9-19.5,4.1-25.9c0.3-0.4,0.3-0.9,0-1.4c-2.7-5.3-4.7-11.2-0.7-21.3   c1-2.5,2.5-4.8,4.4-6.8c3.7-3.8,6.1-7.6,5.6-11.5c-0.3-5.6,2.8-10.5,9.2-14.7c2-1.3,4.1-2.3,6.5-2.9c3.7-1,6-2.8,6.9-5.4   c0.5-1.6,1.3-3.1,2.4-4.4c4.7-5.8,10.3-4.3,16-1.2c0.3,0.2,0.4,0.4,0.2,0.7c0,0,0,0,0,0.1c-17.4,21.3-33.2,45.3-48.4,70.1   c-0.5,0.9-1,1.8-1.2,2.8c-1.8,6.1-2.2,14-2.5,22.1L326.7,99.1z"></path>
	<path class="st16" d="M329.9,98.9c2.3-4.4,5.6-8.1,15-7.6c1.7,0.1,3.3-0.3,4.8-0.9c17.6-7.9,37.8,0.6,48.7,12.4   c-18.8,1.6-37.3,2-53.3-7.8c-2.1-1.3-4.7-1.7-7-1c-3.2,0.9-5.4,3.4-5.8,4.8L329.9,98.9z"></path>
	<path class="st16" d="M323.2,99.1h3c-0.4-5-1.3-6.7-4.6-12.3c-0.4-0.8-0.7-1.6-0.7-2.5c-0.3-6.5-4.1-14.6-8.3-18.7   c-1-0.9-1.8-2-2.7-3l-16.2-20c-6.5-6.2-15.4-9.6-26.1-10.8c5.1,8.3,9.5,16.1,10.5,22.1c6.1,18,15.4,27.2,27.6,28.5   C316.6,83.9,322.7,89.1,323.2,99.1z"></path>
	<path class="st16" d="M322.5,98.9c-2.2-4-6.7-7.1-12.6-9.4c-2.4-0.9-4.8-1.4-7.4-1.4c-21.2,0.4-40.4,1.9-56.5,5.3   c0.4-6.6,2.7-11.4,10.4-10.7c1.7,0.2,3.3-0.3,4.6-1.5c5.4-4.7,11.9-6,19.8-2.9c1.2,0.5,2.5,0.6,3.9,0.4c9.6-1.6,16.9,0,21.1,5.5   c0.6,0.8,1.4,1.4,2.3,1.7c8.4,3,14.4,7.1,17,12.8L322.5,98.9z"></path>
	<path class="st5" d="M345.9,114.2h-37v3.4h37V114.2z"></path>
	<path class="st3" d="M345.5,114.7h-36.2v2.6h36.2V114.7z"></path>
	<path class="st5" d="M345.9,108.8h-37v3.4h37V108.8z"></path>
	<path class="st3" d="M345.5,109.2h-36.2v2.6h36.2V109.2z"></path>
	<path class="st14" d="M550.2,41.6h-26.5v87.8h26.5V41.6z"></path>
	<path class="st14" d="M541.8,59.6H532v69.8h9.8V59.6z"></path>
	<path class="st17" d="M635.4,173.1H227.9v228h407.5V173.1z M226.1,171.3h411v231.6h-411L226.1,171.3L226.1,171.3z"></path>
	<rect x="225.9" y="398.1" class="st17" width="411.2" height="8.3"></rect>
	<path class="st17" d="M612.2,407.7h7.4V406h-9v0.2C610.6,407,611.4,407.7,612.2,407.7z"></path>
	<g class="st18">
		<path class="st19" d="M598.3,405.3c0,0,11.9,12.2,14.3,14.5c2.4,2.3,12.2,11.5,12.3,12.2c0.1,0.3,0,0.8,0,1.2    c0,0.4,0.1,1.4-0.3,1.5h-5.2l-33.5-29.3h12.4V405.3z"></path>
	</g>
	<g class="st18">
		<path class="st19" d="M264.1,405.3c0,0-11.9,12.2-14.3,14.5c-2.4,2.3-12.2,11.5-12.3,12.2c-0.1,0.3,0,0.8,0,1.2    c0,0.4-0.1,1.4,0.3,1.5h5.2l33.5-29.3h-12.4V405.3z"></path>
	</g>
</g>
<g id="SSD-75SK15100U" class="st0">
	<path class="st1" d="M741,437.6H125.4V541H741V437.6z"></path>
	<path class="st2" d="M240.8,541.5l-9.9,0.1L187.7,584c-1.4,1.3-1.4,3.5,0,4.9c1.4,1.3,3.6,1.3,5,0L240.8,541.5z M243,540.6   l-49.7,48.8c-1.7,1.7-4.5,1.7-6.2,0c-1.7-1.6-1.7-4.4,0-6.1l43.5-42.7H243z"></path>
	<path class="st2" d="M622.4,541.8l48,47.1c1.4,1.3,3.6,1.3,4.9,0.1c1.4-1.3,1.3-3.5-0.1-4.8l-43.1-42.3L622.4,541.8z M620.3,540.9   h12.3l43.3,42.5c1.7,1.6,1.7,4.4,0.1,6c-1.7,1.6-4.4,1.6-6.1-0.1L620.3,540.9z"></path>
	<path class="st3" d="M279.6,489.7H133.2"></path>
	<path class="st1" d="M593.9,444.4H279.6v89.8H594L593.9,444.4L593.9,444.4z"></path>
	<path class="st3" d="M593.8,489.7H734"></path>
	<path class="st3" d="M586.9,444.4v89.8"></path>
	<path class="st3" d="M286.5,444.4v89.8"></path>
	<path class="st1" d="M734.1,444.4H133.3v89.8h600.8V444.4z"></path>
	<path class="st2" d="M166,382.8c-2.5,1.3-4.5,2.9-6.1,4.8c-1.5,1.8-2.6,4-3.3,6.5c-1.1,3.9-1.4,8.6-0.6,14c0.6,4.3,1.8,9,3.7,14.1   c2.6,7.4,5.8,13.3,6.8,14.9h16.8c1-1.6,4.3-7.5,7.1-14.9c1.9-5.1,3.2-9.8,3.9-14.1c0.8-5.3,0.6-10-0.6-13.9   c-0.8-2.5-1.9-4.7-3.6-6.5c-1.7-2-4-3.6-6.6-4.8H166 M165.7,381.9c6.2,0,9.3,0,17.7,0c26.8,12.3,0,56,0,56h-17.7   C165.7,437.9,140.6,394.7,165.7,381.9z"></path>
	<path class="st3" d="M156.6,303.1c9.7,15.2,14.4,58.1,14.4,58.1"></path>
	<path class="st4" d="M196.4,318.3c-10.7,15.5-22.9,62.6-22.9,62.6"></path>
	<path class="st5" d="M182.9,382.3h-7.2c0.2-1.9,1.1-9.6,3.9-18.1c1.9-5.8,4.3-10.9,7.2-15.2c2.3-3.4,4.9-6.4,7.8-8.7   c-6.7,7.2-9.5,17-10.7,24.5C182.5,373.2,182.8,380.5,182.9,382.3z"></path>
	<path class="st2" d="M190.7,344.6c-1.2,1.4-2.5,2.9-3.6,4.7c-2.8,4.2-5.3,9.3-7.2,15.1c-2.6,8-3.6,15.1-3.9,17.6h6.3   c-0.1-0.9-0.1-2.4-0.1-4.4c0-3,0.2-7.6,1.1-12.7C184.8,356.8,187.2,350,190.7,344.6z M199.3,336.7c-18.9,13.9-15.9,46.1-15.9,46.1   h-8.2C175.3,382.7,177.7,348.3,199.3,336.7z"></path>
	<path class="st5" d="M178.6,382.3h-9.7c0.1-1.3,0.4-5.5,1-11.5c0.7-6.6,1.9-16.9,4.2-28c2.5-12.5,5.7-23.4,9.5-32.7   c3.7-8.9,7.8-16.1,12.6-21.5c-10.2,15.7-14.4,38.5-16.1,55.8c-1.1,10.9-1.3,20.6-1.4,27C178.5,377.1,178.6,381,178.6,382.3z"></path>
	<path class="st2" d="M192.2,294.5c-3,4.5-5.8,9.8-8.3,15.9c-3.8,9.1-6.9,20.1-9.5,32.6c-2.2,11.1-3.5,21.3-4.2,27.9   c-0.5,5.3-0.8,9.3-0.9,10.9h9c-0.1-1.6-0.2-5.3-0.2-10.3c0-6.3,0.3-16.1,1.4-27C180.9,329.3,184.3,309.7,192.2,294.5z M199.9,284.2   c-24.7,29.7-20.8,98.5-20.8,98.5h-10.7C168.5,382.7,171.6,309,199.9,284.2z"></path>
	<path class="st5" d="M172.9,382.3h-6.8c0-1,0.1-3.9-0.1-7.8c-0.2-4.7-0.8-11.9-2.3-19.9c-2.4-12.3-7.5-28.6-18.3-40.2   c5.2,4.2,9.7,9.6,13.5,15.9c4.1,6.9,7.5,14.9,9.9,24c2.1,8,3.2,15.4,3.6,20.2C172.8,378.3,172.9,381.3,172.9,382.3z"></path>
	<path class="st2" d="M150.1,319.2c8.1,11,12.1,24.6,14.1,35.2c1.5,8,2.1,15.3,2.3,20c0.2,3.5,0.2,6.2,0.1,7.5h5.8   c0-1.3-0.2-4-0.5-7.5c-0.4-4.7-1.5-12.1-3.6-20.1c-2.4-9-5.7-17.1-9.8-23.9C156,326.2,153.2,322.5,150.1,319.2z M139.9,309.8   c33.5,20.7,33.4,72.9,33.4,72.9h-7.6C165.7,382.7,168,332,139.9,309.8z"></path>
	<path class="st5" d="M190.4,324.5c-1.1,2.4-1,4.9,0.2,5.4s3.1-1,4.2-3.4c1.1-2.4,1-4.9-0.2-5.4   C193.4,320.5,191.5,322.1,190.4,324.5z"></path>
	<path class="st6" d="M190.8,324.7c-1,2.2-1,4.4,0,4.8s2.7-1,3.7-3.2s1-4.4,0-4.8C193.5,321,191.8,322.4,190.8,324.7z"></path>
	<path class="st5" d="M158.6,306.1c-1.3,0.5-1.5,3.1-0.4,5.8c1,2.8,2.9,4.7,4.2,4.2s1.5-3.1,0.4-5.8   C161.7,307.5,159.8,305.6,158.6,306.1z"></path>
	<path class="st3" d="M158.7,306.5c-1,0.4-1.1,2.7-0.2,5.3c1,2.6,2.6,4.3,3.6,4c1-0.4,1.1-2.7,0.2-5.3   C161.4,307.9,159.8,306.1,158.7,306.5z"></path>
	<path class="st3" d="M158.5,389.1h33.1"></path>
	<path class="st5" d="M648.5,474.7c2.4,0,4.4-1.9,4.4-4.3s-2-4.3-4.4-4.3s-4.4,1.9-4.4,4.3C644.1,472.7,646.1,474.7,648.5,474.7z"></path>
	<path class="st3" d="M648.5,474.2c2.2,0,3.9-1.7,3.9-3.9c0-2.1-1.8-3.9-3.9-3.9c-2.2,0-4,1.7-4,3.9   C644.6,472.5,646.3,474.2,648.5,474.2z"></path>
	<path class="st5" d="M653.4,471.7c2.4,0,4.4-1.9,4.4-4.3s-2-4.3-4.4-4.3s-4.4,1.9-4.4,4.3C649,469.8,651,471.7,653.4,471.7z"></path>
	<path class="st3" d="M653.4,471.3c2.2,0,3.9-1.7,3.9-3.9c0-2.1-1.8-3.9-3.9-3.9c-2.2,0-4,1.7-4,3.9   C649.4,469.5,651.2,471.3,653.4,471.3z"></path>
	<path class="st5" d="M655.3,474.7c2.4,0,4.4-1.9,4.4-4.3s-2-4.3-4.4-4.3s-4.4,1.9-4.4,4.3C651,472.7,652.9,474.7,655.3,474.7z"></path>
	<path class="st3" d="M655.3,474.2c2.2,0,3.9-1.7,3.9-3.9c0-2.1-1.8-3.9-3.9-3.9c-2.2,0-4,1.7-4,3.9   C651.4,472.5,653.2,474.2,655.3,474.2z"></path>
	<path class="st5" d="M667,472.7c2.4,0,4.4-1.9,4.4-4.3s-2-4.3-4.4-4.3s-4.4,1.9-4.4,4.3C662.7,470.7,664.6,472.7,667,472.7z"></path>
	<path class="st3" d="M667,472.2c2.2,0,3.9-1.7,3.9-3.9c0-2.1-1.8-3.9-3.9-3.9c-2.2,0-3.9,1.7-3.9,3.9S664.9,472.2,667,472.2z"></path>
	<path class="st5" d="M661.2,470.7c2.4,0,4.4-1.9,4.4-4.3s-2-4.3-4.4-4.3s-4.4,1.9-4.4,4.3S658.8,470.7,661.2,470.7z"></path>
	<path class="st3" d="M661.2,470.3c2.2,0,4-1.7,4-3.9s-1.8-3.9-4-3.9s-3.9,1.7-3.9,3.9S659,470.3,661.2,470.3z"></path>
	<path class="st5" d="M662.9,474.7c2.4,0,4.4-1.9,4.4-4.3s-2-4.3-4.4-4.3s-4.4,1.9-4.4,4.3C658.5,472.7,660.5,474.7,662.9,474.7z"></path>
	<path class="st3" d="M662.9,474.2c2.2,0,3.9-1.7,3.9-3.9c0-2.1-1.8-3.9-3.9-3.9c-2.2,0-4,1.7-4,3.9   C659,472.5,660.8,474.2,662.9,474.2z"></path>
	<path class="st5" d="M672.1,475.6c2.4,0,4.4-1.9,4.4-4.3s-2-4.3-4.4-4.3s-4.4,1.9-4.4,4.3C667.7,473.7,669.7,475.6,672.1,475.6z"></path>
	<path class="st3" d="M672.1,475.2c2.2,0,3.9-1.7,3.9-3.9c0-2.1-1.8-3.9-3.9-3.9c-2.2,0-3.9,1.7-3.9,3.9   C668.2,473.5,669.9,475.2,672.1,475.2z"></path>
	<path class="st5" d="M672.5,489.7h-23.8c-0.5-0.3-3.1-1.6-5.3-4.3c-1.4-1.7-2.4-3.8-2.9-5.9c-0.6-2.6-0.5-5.5,0.2-8.5h39.8   c0.8,2.9,0.9,5.7,0.3,8.3c-0.5,2.2-1.5,4.1-3,5.9C675.7,487.9,673,489.5,672.5,489.7z"></path>
	<path class="st2" d="M641.1,471.4c-0.6,2.8-0.7,5.5-0.1,8c0.5,2.1,1.4,4.1,2.8,5.8c2,2.6,4.5,3.9,5.1,4.2h23.5   c0.7-0.3,3.1-1.8,5.2-4.4c1.4-1.8,2.4-3.7,2.9-5.8c0.6-2.4,0.5-5-0.2-7.8L641.1,471.4 M640.4,470.5c12.9,0,22.3,0,40.5,0   c3.9,13.5-8.2,19.6-8.2,19.6h-24C648.6,490.1,636.7,484.8,640.4,470.5z"></path>
	<path class="st1" d="M253.4,516.2h-96.6v17.9h96.6V516.2z"></path>
	<path class="st1" d="M244.2,527.4c1.2,0,2.2-1,2.2-2.2s-1-2.2-2.2-2.2s-2.2,1-2.2,2.2S243,527.4,244.2,527.4z"></path>
	<path class="st7" d="M156.7,524.8h44.4"></path>
	<path class="st2" d="M168.4,476.6c-1.8,0-3.4,0.3-4.9,1.2c-1.8,0.9-3.6,2.5-5.4,4.7c-1.1,1.9-1.2,3.7-0.5,4.7   c0.6,0.9,1.8,1.1,2.5,1.1c1,0,2-0.3,3.2-0.7c1.1-0.3,1.8-0.7,2.5-1.2c1.9-1.2,4-2.5,10.8-2.5c0.3,0,0.6,0,1,0   c8,0.2,10.4,1.6,12.6,2.8c0.7,0.3,1.3,0.8,2.1,1c1.1,0.5,2.2,0.7,3.2,0.7c1.3,0,2.4-0.5,2.9-1.4c0.7-1.2,0.4-2.9-0.7-4.6   c-1.6-2.2-3.2-3.8-5.1-4.7c-1.5-0.8-3.2-1.1-5.1-1.1c-1.8,0-3.6,0.3-5.4,0.6c-1.5,0.3-3,0.5-4.3,0.6c-0.1,0-0.2,0-0.3,0   c-1.5,0-2.9-0.3-4.5-0.6C171.6,476.9,170,476.6,168.4,476.6z M168.4,475.7c3.3,0,6.5,1.2,9.4,1.2c0.1,0,0.2,0,0.3,0   c2.8-0.1,6.1-1.2,9.7-1.2c3.6,0,7.5,1.3,11,6.3c2.4,3.7,1,7.3-2.9,7.3c-1.1,0-2.2-0.3-3.5-0.8c-3.3-1.2-4.1-3.5-14.5-3.7   c-0.4,0-0.6,0-1,0c-9.4,0-9.4,2.7-13.1,3.7c-1.4,0.5-2.5,0.8-3.6,0.8c-3.9,0-4.8-3.4-2.7-7.2C161.3,477,164.9,475.7,168.4,475.7z"></path>
	<path class="st7" d="M165.7,474.3h5.9"></path>
	<path class="st3" d="M167.6,475.3h2"></path>
	<path class="st3" d="M186.3,475.3h1.9"></path>
	<path class="st7" d="M184.4,474.3h5.6"></path>
	<path class="st8" d="M178,482.5c0.5,0,1-0.4,1-0.9s-0.4-0.9-1-0.9s-1,0.4-1,0.9S177.4,482.5,178,482.5z"></path>
	<path class="st3" d="M177.9,482.1c0.3,0,0.5-0.2,0.5-0.5s-0.2-0.5-0.5-0.5s-0.5,0.2-0.5,0.5C177.4,481.8,177.7,482.1,177.9,482.1z"></path>
	<path class="st3" d="M252.9,486.3H216v3.4h36.9V486.3z"></path>
	<path class="st3" d="M253.7,482.9h-36.9v3.4h36.9L253.7,482.9L253.7,482.9z"></path>
	<path class="st3" d="M252.9,479.5H216v3.4h36.9V479.5z"></path>
	<path class="st3" d="M253.7,476.1h-36.9v3.4h36.9L253.7,476.1L253.7,476.1z"></path>
	<path class="st3" d="M252.9,472.6H216v3.4h36.9V472.6z"></path>
	<path class="st7" d="M203.7,524.8h2.6"></path>
	<path class="st7" d="M647.1,534.2H614c-7.6,0-7.8-10.4,0-10.4h33.1"></path>
	<path class="st3" d="M645.6,534.2c-4.4-3.1-2.5-8.9,0-10.5"></path>
	<path class="st7" d="M715.2,514.6h-27.6c-6,0-6.1-8.1,0-8.1h27.6"></path>
	<path class="st3" d="M713.8,514.6c-3.4-2.4-1.9-6.9,0-8.2"></path>
	<path class="st7" d="M677.9,523.8h35.7c7.6,0,7.8,10.4,0,10.4h-35.7"></path>
	<path class="st3" d="M679.4,523.8c4.4,3.1,2.5,8.9,0,10.5"></path>
	<path class="st7" d="M607.4,514.4h30.1c6.9,0,7.1,9.2,0,9.2h-30.1"></path>
	<path class="st3" d="M608.8,514.4c4,2.8,2.3,7.8,0,9.3"></path>
	<path class="st7" d="M680.5,514.4h32.7c6.9,0,7.1,9.2,0,9.2h-32.7"></path>
	<path class="st3" d="M681.9,514.4c4,2.8,2.3,7.8,0,9.3"></path>
	<path class="st2" d="M700.5,437.1c3.7-4.3,6.8-9,9-13.7c3.2-6.7,4.7-13.7,4.7-20.9c-0.3-9.5-2.5-19-6.6-28.4   c-1.9-4.5-4.4-9-7.1-13.2c-2.7-4.1-5.8-8.2-9.2-12c-0.1-0.1-0.2-0.2-0.3-0.2s-0.2,0.1-0.2,0.1c-0.1,0.1-0.1,0.3,0,0.4l0.1,0.1v0.1   c3.6,15.9-2.9,25.9-9.1,35.5c-2.1,3.2-4.2,6.5-6,9.9c-1.9,3.9-3,7.3-3.4,11c-0.5,4.3-0.1,8.8,1.4,13.6c0.8,2.6,1.8,5.4,3.2,8.3   c1.4,2.8,3.1,5.9,5.1,9c4.7,0,8.4,0.1,11.7,0.1C696.2,437,698.4,437.1,700.5,437.1z M700.9,438c-5.4,0-10.4-0.2-19.2-0.2   c-30.4-47.1,16.8-51.1,8.4-88c-0.5-0.9,0.1-1.9,1-1.9c0.3,0,0.6,0.1,1,0.4c13.7,15.3,22.6,34.5,23.2,54.2   C715.2,418.8,706.9,431,700.9,438z"></path>
	<path class="st3" d="M691,348.8c29.1,47-28.8,57.1-9.4,88.1"></path>
	<path class="st9" d="M404.9,486.3c-1.9,0-3.6,1.6-3.6,3.5s1.6,3.5,3.6,3.5h60.6c1.9,0,3.6-1.6,3.6-3.5s-1.6-3.5-3.6-3.5H404.9z    M404.9,485.4h60.6c2.5,0,4.5,2,4.5,4.4s-2,4.4-4.5,4.4h-60.6c-2.5,0-4.5-2-4.5-4.4S402.4,485.4,404.9,485.4z"></path>
	<g class="st10">
		<path class="st11" d="M237.5,382.1V188.9h184L237.5,382.1z"></path>
		<path class="st12" d="M237.9,188.9V381l182.6-192.1H237.9z M237.1,188.9h185.5L237.1,383.2V188.9z"></path>
	</g>
	<path class="st3" d="M-0.4,590.6h868"></path>
	<path class="st5" d="M794.9,474.5h-7.6v111.9h7.6V474.5z"></path>
	<path class="st3" d="M794.5,474.9h-6.8v111h6.8V474.9z"></path>
	<path class="st5" d="M791.2,298.6c12.4,0,22.4,9.8,22.4,22v136.8c0,12.1-10,22-22.4,22s-22.4-9.8-22.4-22V320.6   C768.8,308.4,778.8,298.6,791.2,298.6z"></path>
	<path class="st3" d="M791.2,299c12.1,0,21.9,9.7,21.9,21.5v136.8c0,11.9-9.8,21.5-21.9,21.5c-12.1,0-21.9-9.7-21.9-21.5V320.6   C769.3,308.7,779.1,299,791.2,299z"></path>
	<path class="st5" d="M790.8,462.1c3.4,0,6.1-2.7,6.1-6s-2.8-6-6.1-6s-6.1,2.7-6.1,6C784.6,459.4,787.4,462.1,790.8,462.1z"></path>
	<path class="st13" d="M790.8,461.6c3.1,0,5.7-2.5,5.7-5.6s-2.6-5.6-5.7-5.6c-3.2,0-5.7,2.5-5.7,5.6S787.6,461.6,790.8,461.6z"></path>
	<path class="st5" d="M791.2,377.8c8.5,0,15.4-6.8,15.4-15.1c0-8.3-6.9-15.1-15.4-15.1s-15.4,6.8-15.4,15.1   C775.9,371,782.7,377.8,791.2,377.8z"></path>
	<path class="st13" d="M791.2,377.4c8.2,0,14.9-6.6,14.9-14.6c0-8.1-6.7-14.6-14.9-14.6s-14.9,6.6-14.9,14.6S783,377.4,791.2,377.4z   "></path>
	<path class="st5" d="M791.2,368.9c3.4,0,6.2-2.7,6.2-6.1s-2.8-6.1-6.2-6.1s-6.2,2.7-6.2,6.1S787.8,368.9,791.2,368.9z"></path>
	<path class="st13" d="M791.2,368.4c3.2,0,5.8-2.5,5.8-5.7c0-3.1-2.6-5.7-5.8-5.7s-5.8,2.5-5.8,5.7S788,368.4,791.2,368.4z"></path>
	<path class="st5" d="M813.4,584.5h-44.6v6.5h44.6V584.5z"></path>
	<path class="st3" d="M813,584.9h-43.7v5.7H813V584.9z"></path>
	<path class="st5" d="M791.2,431.2c8.5,0,15.4-6.8,15.4-15.1c0-8.3-6.9-15.1-15.4-15.1s-15.4,6.8-15.4,15.1   C775.9,424.5,782.7,431.2,791.2,431.2z"></path>
	<path class="st13" d="M791.2,430.8c8.2,0,14.9-6.6,14.9-14.6c0-8.1-6.7-14.6-14.9-14.6s-14.9,6.6-14.9,14.6   C776.3,424.2,783,430.8,791.2,430.8z"></path>
	<path class="st5" d="M791.2,422.3c3.4,0,6.2-2.7,6.2-6.1s-2.8-6.1-6.2-6.1s-6.2,2.7-6.2,6.1C785,419.6,787.8,422.3,791.2,422.3z"></path>
	<path class="st13" d="M791.2,421.9c3.2,0,5.8-2.5,5.8-5.7c0-3.1-2.6-5.7-5.8-5.7s-5.8,2.5-5.8,5.7   C785.4,419.3,788,421.9,791.2,421.9z"></path>
	<path class="st5" d="M790.8,328.5c3.4,0,6.1-2.7,6.1-6s-2.8-6-6.1-6s-6.1,2.7-6.1,6C784.6,325.8,787.4,328.5,790.8,328.5z"></path>
	<path class="st13" d="M790.8,328.1c3.1,0,5.7-2.5,5.7-5.6s-2.6-5.6-5.7-5.6c-3.2,0-5.7,2.5-5.7,5.6S787.6,328.1,790.8,328.1z"></path>
	<path class="st5" d="M78.7,474.5h-7.6v111.9h7.6V474.5z"></path>
	<path class="st3" d="M78.3,474.9h-6.8v111h6.8V474.9z"></path>
	<path class="st5" d="M75.1,298.6c12.4,0,22.4,9.8,22.4,22v136.8c0,12.1-10,22-22.4,22s-22.4-9.8-22.4-22V320.6   C52.7,308.4,62.7,298.6,75.1,298.6z"></path>
	<path class="st3" d="M75.1,299c12.1,0,21.9,9.7,21.9,21.5v136.8c0,11.9-9.8,21.5-21.9,21.5s-21.9-9.7-21.9-21.5V320.6   C53.1,308.7,62.9,299,75.1,299z"></path>
	<path class="st5" d="M74.6,462.1c3.4,0,6.1-2.7,6.1-6s-2.8-6-6.1-6s-6.1,2.7-6.1,6S71.2,462.1,74.6,462.1z"></path>
	<path class="st13" d="M74.6,461.6c3.2,0,5.7-2.5,5.7-5.6s-2.6-5.6-5.7-5.6c-3.2,0-5.7,2.5-5.7,5.6S71.5,461.6,74.6,461.6z"></path>
	<path class="st5" d="M75.1,377.8c8.5,0,15.4-6.8,15.4-15.1c0-8.3-6.9-15.1-15.4-15.1s-15.4,6.8-15.4,15.1   C59.7,371,66.6,377.8,75.1,377.8z"></path>
	<path class="st13" d="M75.1,377.4c8.2,0,14.9-6.6,14.9-14.6c0-8.1-6.7-14.6-14.9-14.6s-14.9,6.6-14.9,14.6   C60.1,370.8,66.8,377.4,75.1,377.4z"></path>
	<path class="st5" d="M75,368.9c3.4,0,6.2-2.7,6.2-6.1s-2.8-6.1-6.2-6.1c-3.4,0-6.2,2.7-6.2,6.1S71.6,368.9,75,368.9z"></path>
	<path class="st13" d="M75,368.4c3.2,0,5.8-2.5,5.8-5.7c0-3.1-2.6-5.7-5.8-5.7s-5.8,2.5-5.8,5.7S71.8,368.4,75,368.4z"></path>
	<path class="st5" d="M97.3,584.5H52.7v6.5h44.6V584.5z"></path>
	<path class="st3" d="M96.8,584.9H53.1v5.7h43.7V584.9z"></path>
	<path class="st5" d="M75.1,431.2c8.5,0,15.4-6.8,15.4-15.1c0-8.3-6.9-15.1-15.4-15.1s-15.4,6.8-15.4,15.1   C59.7,424.5,66.6,431.2,75.1,431.2z"></path>
	<path class="st13" d="M75.1,430.8c8.2,0,14.9-6.6,14.9-14.6c0-8.1-6.7-14.6-14.9-14.6s-14.9,6.6-14.9,14.6   C60.1,424.2,66.8,430.8,75.1,430.8z"></path>
	<path class="st5" d="M75,422.3c3.4,0,6.2-2.7,6.2-6.1s-2.8-6.1-6.2-6.1c-3.4,0-6.2,2.7-6.2,6.1C68.8,419.6,71.6,422.3,75,422.3z"></path>
	<path class="st13" d="M75,421.9c3.2,0,5.8-2.5,5.8-5.7c0-3.1-2.6-5.7-5.8-5.7s-5.8,2.5-5.8,5.7C69.2,419.3,71.8,421.9,75,421.9z"></path>
	<path class="st5" d="M74.6,328.5c3.4,0,6.1-2.7,6.1-6s-2.8-6-6.1-6s-6.1,2.7-6.1,6S71.2,328.5,74.6,328.5z"></path>
	<path class="st13" d="M74.6,328.1c3.2,0,5.7-2.5,5.7-5.6s-2.6-5.6-5.7-5.6c-3.2,0-5.7,2.5-5.7,5.6S71.5,328.1,74.6,328.1z"></path>
	<path class="st14" d="M669.8,129.5H200.3v12.8h469.5V129.5z"></path>
	<path class="st5" d="M245.6,165.9h9v-24h-9V165.9z"></path>
	<path class="st3" d="M246,165.5h8.2v-23.2H246V165.5z"></path>
	<path class="st5" d="M615.3,165.9h9v-24h-9V165.9z"></path>
	<path class="st3" d="M615.8,165.5h8.2v-23.2h-8.2V165.5z"></path>
	<path class="st5" d="M575.5,46.5H549v83.6h26.5V46.5z"></path>
	<path class="st3" d="M575.1,46.9h-25.6v82.7h25.6V46.9z"></path>
	<path class="st5" d="M595.2,32.7h-20.4v97.4h20.4V32.7z"></path>
	<path class="st3" d="M594.8,33.1h-19.6v96.5h19.6V33.1z"></path>
	<path class="st5" d="M604.1,130.1l20.2-1.7l-8.7-95.8l-20.2,1.7L604.1,130.1z"></path>
	<path class="st15" d="M604.5,129.6l19.3-1.6l-8.6-95l-19.3,1.6L604.5,129.6z"></path>
	<path class="st5" d="M603.3,122.5l20.3-1.7l-0.6-6.2l-20.4,1.7L603.3,122.5z"></path>
	<path class="st15" d="M603.7,122l19.5-1.6l-0.5-5.4l-19.5,1.6L603.7,122z"></path>
	<path class="st5" d="M308.8,98.6h37v18.9c0,6.6-5.5,12.1-12.3,12.1H321c-6.8,0-12.3-5.4-12.3-12.1L308.8,98.6L308.8,98.6z"></path>
	<path class="st3" d="M309.7,99H345c0.3,0,0.4,0.2,0.4,0.4v18c0,6.5-5.3,11.6-11.8,11.6h-12.5c-6.6,0-11.8-5.2-11.8-11.6v-18   C309.2,99.2,309.5,99,309.7,99z"></path>
	<path class="st16" d="M328.6,99.2h3c0,0,0-15.3,16-19.1c8.2-1.7,18.3-0.3,26.8-4.1c8.5-4,53.8-34.1,53.8-34.1s-58-8.9-78.1,27.5   c-3.1,5.1-7.6,9.6-13.3,13.6c-0.2,0.1-0.3,0.2-0.4,0.3C331,87.6,329.1,93.5,328.6,99.2z"></path>
	<path class="st16" d="M326.6,99.2c-0.1-10.3,0.9-19.5,4.1-25.9c0.3-0.4,0.3-0.9,0-1.4c-2.7-5.3-4.7-11.2-0.7-21.3   c1-2.5,2.5-4.8,4.4-6.8c3.7-3.8,6.1-7.6,5.6-11.5c-0.3-5.6,2.8-10.5,9.2-14.7c2-1.3,4.1-2.3,6.5-2.9c3.7-1,6-2.8,6.9-5.4   c0.5-1.6,1.3-3.1,2.4-4.4c4.7-5.8,10.3-4.3,16-1.2c0.3,0.2,0.4,0.4,0.2,0.7c0,0,0,0,0,0.1c-17.4,21.3-33.2,45.3-48.4,70.1   c-0.5,0.9-1,1.8-1.2,2.8c-1.8,6.1-2.2,14-2.5,22.1L326.6,99.2z"></path>
	<path class="st16" d="M329.8,98.9c2.3-4.4,5.6-8.1,15-7.6c1.7,0.1,3.3-0.3,4.8-0.9c17.6-7.9,37.8,0.6,48.7,12.4   c-18.8,1.6-37.3,2-53.3-7.8c-2.1-1.3-4.7-1.7-7-1c-3.2,0.9-5.4,3.4-5.8,4.8L329.8,98.9z"></path>
	<path class="st16" d="M323,99.2h3c-0.4-5-1.3-6.7-4.6-12.3c-0.4-0.8-0.7-1.6-0.7-2.5c-0.3-6.5-4.1-14.6-8.3-18.7   c-1-0.9-1.8-2-2.7-3l-16.2-20c-6.5-6.2-15.4-9.6-26.1-10.8c5.1,8.3,9.5,16.1,10.5,22.1c6.1,18,15.4,27.2,27.6,28.5   C316.5,83.9,322.6,89.2,323,99.2z"></path>
	<path class="st16" d="M322.3,98.9c-2.2-4-6.7-7.1-12.6-9.4c-2.4-0.9-4.8-1.4-7.4-1.4c-21.2,0.4-40.4,1.9-56.5,5.3   c0.4-6.6,2.7-11.4,10.4-10.7c1.7,0.2,3.3-0.3,4.6-1.5c5.4-4.7,11.9-6,19.8-2.9c1.2,0.5,2.5,0.6,3.9,0.4c9.6-1.6,16.9,0,21.1,5.5   c0.6,0.8,1.4,1.4,2.3,1.7c8.4,3,14.4,7.1,17,12.8L322.3,98.9z"></path>
	<path class="st5" d="M345.8,114.3h-37v3.4h37V114.3z"></path>
	<path class="st3" d="M345.4,114.7h-36.2v2.6h36.2V114.7z"></path>
	<path class="st5" d="M345.8,108.9h-37v3.4h37V108.9z"></path>
	<path class="st3" d="M345.4,109.3h-36.2v2.6h36.2V109.3z"></path>
	<path class="st14" d="M550,41.7h-26.5v87.8H550V41.7z"></path>
	<path class="st14" d="M541.7,59.6h-9.8v69.8h9.8V59.6z"></path>
	<path class="st20" d="M635.3,174.2H227.8v228h407.5V174.2z M226,172.4h411V404H226V172.4z"></path>
	<rect x="223.9" y="399.1" class="st17" width="415" height="7.5"></rect>
	<path class="st17" d="M612.1,408.8h7.4V407h-9v0.2C610.5,408.1,611.2,408.8,612.1,408.8z"></path>
	<g class="st18">
		<path class="st19" d="M598.2,406.3c0,0,45.2,27.3,45.3,27.9c0.1,0.3,0.2,1.3-0.2,1.4h-3.4l-54.2-29.3H598.2z"></path>
	</g>
	<g class="st18">
		<path class="st19" d="M262.1,406.3c0,0-45.2,27.3-45.3,27.9c-0.1,0.3-0.2,1.3,0.2,1.4h3.7l54-29.3H262.1z"></path>
	</g>
</g>
<g id="SQL-65QK16000U">
	<path class="st21" d="M741.6,437.3H126v103.4h615.6V437.3z"></path>
	<path class="st22" d="M241.4,541.2l-9.9,0.1l-43.3,42.5c-1.4,1.3-1.4,3.5,0,4.9c1.4,1.3,3.6,1.3,5,0L241.4,541.2z M243.5,540.4   l-49.7,48.8c-1.7,1.7-4.5,1.7-6.2,0c-1.7-1.6-1.7-4.4,0-6.1l43.5-42.7H243.5z"></path>
	<path class="st22" d="M622.9,541.5l48,47.1c1.4,1.3,3.6,1.3,4.9,0.1c1.4-1.3,1.3-3.5-0.1-4.8l-43.1-42.3L622.9,541.5z M620.8,540.7   h12.3l43.3,42.5c1.7,1.6,1.7,4.4,0.1,6c-1.7,1.6-4.4,1.6-6.1-0.1L620.8,540.7z"></path>
	<path class="st23" d="M280.1,489.5H133.8"></path>
	<path class="st21" d="M594.5,444.2H280.1V534h314.4V444.2z"></path>
	<path class="st23" d="M594.4,489.5h140.2"></path>
	<path class="st23" d="M587.5,444.1v89.8"></path>
	<path class="st23" d="M287,444.1v89.8"></path>
	<path class="st21" d="M734.7,444.2H133.8V534h600.8v-89.8H734.7z"></path>
	<path class="st22" d="M166.6,382.5c-2.5,1.3-4.5,2.9-6.1,4.8c-1.5,1.8-2.6,4-3.3,6.5c-1.1,3.9-1.4,8.6-0.6,14   c0.6,4.3,1.8,9,3.7,14.1c2.6,7.4,5.8,13.3,6.8,14.9h16.8c1-1.6,4.3-7.5,7.1-14.9c1.9-5.1,3.2-9.8,3.9-14.1c0.8-5.3,0.6-10-0.6-13.9   c-0.8-2.5-1.9-4.7-3.6-6.5c-1.7-2-4-3.6-6.6-4.8h-17.5 M166.3,381.7c6.2,0,9.3,0,17.7,0c26.8,12.3,0,56,0,56h-17.7   C166.3,437.7,141.1,394.4,166.3,381.7z"></path>
	<path class="st23" d="M157.1,302.8c9.7,15.2,14.4,58.1,14.4,58.1"></path>
	<path class="st24" d="M197,318c-10.7,15.5-22.9,62.6-22.9,62.6"></path>
	<path class="st25" d="M183.5,382h-7.2c0.2-1.9,1.1-9.6,3.9-18.1c1.9-5.8,4.3-10.9,7.2-15.2c2.3-3.4,4.9-6.4,7.8-8.7   c-6.7,7.2-9.5,17-10.7,24.5C183,373,183.4,380.2,183.5,382z"></path>
	<path class="st22" d="M191.3,344.4c-1.2,1.4-2.5,2.9-3.6,4.7c-2.8,4.2-5.3,9.3-7.2,15.1c-2.6,8-3.6,15.1-3.9,17.6h6.3   c-0.1-0.9-0.1-2.4-0.1-4.4c0-3,0.2-7.6,1.1-12.7C185.3,356.6,187.8,349.8,191.3,344.4z M199.9,336.4C181,350.3,184,382.5,184,382.5   h-8.2C175.8,382.5,178.3,348.1,199.9,336.4z"></path>
	<path class="st25" d="M179.2,382h-9.7c0.1-1.3,0.4-5.5,1-11.5c0.7-6.6,1.9-16.9,4.2-28c2.5-12.5,5.7-23.4,9.5-32.7   c3.7-8.9,7.8-16.1,12.6-21.5c-10.2,15.7-14.4,38.5-16.1,55.8c-1.1,10.9-1.3,20.6-1.4,27C179,376.9,179.1,380.7,179.2,382z"></path>
	<path class="st22" d="M192.7,294.2c-3,4.5-5.8,9.8-8.3,15.9c-3.8,9.1-6.9,20.1-9.5,32.6c-2.2,11.1-3.5,21.3-4.2,27.9   c-0.5,5.3-0.8,9.3-0.9,10.9h9c-0.1-1.6-0.2-5.3-0.2-10.3c0-6.3,0.3-16.1,1.4-27C181.5,329,184.9,309.5,192.7,294.2z M200.4,284   c-24.7,29.7-20.8,98.5-20.8,98.5h-10.7C169,382.5,172.2,308.8,200.4,284z"></path>
	<path class="st25" d="M173.5,382h-6.8c0-1,0.1-3.9-0.1-7.8c-0.2-4.7-0.8-11.9-2.3-19.9c-2.4-12.3-7.5-28.6-18.3-40.2   c5.2,4.2,9.7,9.6,13.5,15.9c4.1,6.9,7.5,14.9,9.9,24c2.1,8,3.2,15.4,3.6,20.2C173.4,378.1,173.5,381,173.5,382z"></path>
	<path class="st22" d="M150.6,319c8.1,11,12.1,24.6,14.1,35.2c1.5,8,2.1,15.3,2.3,20c0.2,3.5,0.2,6.2,0.1,7.5h5.8   c0-1.3-0.2-4-0.5-7.5c-0.4-4.7-1.5-12.1-3.6-20.1c-2.4-9-5.7-17.1-9.8-23.9C156.6,325.9,153.8,322.2,150.6,319z M140.5,309.6   c33.5,20.7,33.4,72.9,33.4,72.9h-7.6C166.3,382.5,168.5,331.7,140.5,309.6z"></path>
	<path class="st25" d="M191,324.2c-1.1,2.4-1,4.9,0.2,5.4s3.1-1,4.2-3.4c1.1-2.4,1-4.9-0.2-5.4C194,320.3,192.1,321.8,191,324.2z"></path>
	<path class="st26" d="M191.4,324.4c-1,2.2-1,4.4,0,4.8s2.7-1,3.7-3.2s1-4.4,0-4.8C194,320.7,192.4,322.2,191.4,324.4z"></path>
	<path class="st25" d="M159.1,305.8c-1.3,0.5-1.5,3.1-0.4,5.8c1,2.8,2.9,4.7,4.2,4.2s1.5-3.1,0.4-5.8   C162.3,307.3,160.4,305.4,159.1,305.8z"></path>
	<path class="st23" d="M159.3,306.2c-1,0.4-1.1,2.7-0.2,5.3c1,2.6,2.6,4.3,3.6,4c1-0.4,1.1-2.7,0.2-5.3   C162,307.6,160.3,305.9,159.3,306.2z"></path>
	<path class="st23" d="M159,388.8h33.1"></path>
	<path class="st25" d="M649.1,474.4c2.4,0,4.4-1.9,4.4-4.3s-2-4.3-4.4-4.3s-4.4,1.9-4.4,4.3C644.7,472.5,646.7,474.4,649.1,474.4z"></path>
	<path class="st23" d="M649.1,474c2.2,0,3.9-1.7,3.9-3.9c0-2.1-1.8-3.9-3.9-3.9c-2.2,0-4,1.7-4,3.9S646.9,474,649.1,474z"></path>
	<path class="st25" d="M654,471.4c2.4,0,4.4-1.9,4.4-4.3s-2-4.3-4.4-4.3s-4.4,1.9-4.4,4.3S651.5,471.4,654,471.4z"></path>
	<path class="st23" d="M654,471c2.2,0,3.9-1.7,3.9-3.9c0-2.1-1.8-3.9-3.9-3.9c-2.2,0-4,1.7-4,3.9S651.8,471,654,471z"></path>
	<path class="st25" d="M655.9,474.4c2.4,0,4.4-1.9,4.4-4.3s-2-4.3-4.4-4.3s-4.4,1.9-4.4,4.3S653.5,474.4,655.9,474.4z"></path>
	<path class="st23" d="M655.9,474c2.2,0,3.9-1.7,3.9-3.9c0-2.1-1.8-3.9-3.9-3.9c-2.2,0-4,1.7-4,3.9C652,472.3,653.7,474,655.9,474z"></path>
	<path class="st25" d="M667.6,472.4c2.4,0,4.4-1.9,4.4-4.3s-2-4.3-4.4-4.3s-4.4,1.9-4.4,4.3C663.2,470.5,665.2,472.4,667.6,472.4z"></path>
	<path class="st23" d="M667.6,472c2.2,0,3.9-1.7,3.9-3.9c0-2.1-1.8-3.9-3.9-3.9c-2.2,0-3.9,1.7-3.9,3.9   C663.7,470.2,665.4,472,667.6,472z"></path>
	<path class="st25" d="M661.8,470.5c2.4,0,4.4-1.9,4.4-4.3s-2-4.3-4.4-4.3s-4.4,1.9-4.4,4.3S659.3,470.5,661.8,470.5z"></path>
	<path class="st23" d="M661.8,470.1c2.2,0,4-1.7,4-3.9s-1.8-3.9-4-3.9s-3.9,1.7-3.9,3.9S659.6,470.1,661.8,470.1z"></path>
	<path class="st25" d="M663.5,474.4c2.4,0,4.4-1.9,4.4-4.3s-2-4.3-4.4-4.3s-4.4,1.9-4.4,4.3S661.1,474.4,663.5,474.4z"></path>
	<path class="st23" d="M663.5,474c2.2,0,3.9-1.7,3.9-3.9c0-2.1-1.8-3.9-3.9-3.9c-2.2,0-4,1.7-4,3.9C659.6,472.3,661.3,474,663.5,474   z"></path>
	<path class="st25" d="M672.7,475.4c2.4,0,4.4-1.9,4.4-4.3s-2-4.3-4.4-4.3s-4.4,1.9-4.4,4.3S670.3,475.4,672.7,475.4z"></path>
	<path class="st23" d="M672.7,474.9c2.2,0,3.9-1.7,3.9-3.9c0-2.1-1.8-3.9-3.9-3.9c-2.2,0-3.9,1.7-3.9,3.9   C668.7,473.2,670.5,474.9,672.7,474.9z"></path>
	<path class="st25" d="M673.1,489.5h-23.8c-0.5-0.3-3.1-1.6-5.3-4.3c-1.4-1.7-2.4-3.8-2.9-5.9c-0.6-2.6-0.5-5.5,0.2-8.5h39.8   c0.8,2.9,0.9,5.7,0.3,8.3c-0.5,2.2-1.5,4.1-3,5.9C676.2,487.7,673.6,489.2,673.1,489.5z"></path>
	<path class="st22" d="M641.7,471.1c-0.6,2.8-0.7,5.5-0.1,8c0.5,2.1,1.4,4.1,2.8,5.8c2,2.6,4.5,3.9,5.1,4.2H673   c0.7-0.3,3.1-1.8,5.2-4.4c1.4-1.8,2.4-3.7,2.9-5.8c0.6-2.4,0.5-5-0.2-7.8L641.7,471.1 M641,470.2c12.9,0,22.3,0,40.5,0   c3.9,13.5-8.2,19.6-8.2,19.6h-24C649.2,489.9,637.3,484.6,641,470.2z"></path>
	<path class="st21" d="M254,516h-96.6v17.9H254V516z"></path>
	<path class="st21" d="M244.8,527.1c1.2,0,2.2-1,2.2-2.2s-1-2.2-2.2-2.2s-2.2,1-2.2,2.2C242.6,526.2,243.6,527.1,244.8,527.1z"></path>
	<path class="st27" d="M157.3,524.5h44.4"></path>
	<path class="st22" d="M168.9,476.3c-1.8,0-3.4,0.3-4.9,1.2c-1.8,0.9-3.6,2.5-5.4,4.7c-1.1,1.9-1.2,3.7-0.5,4.7   c0.6,0.9,1.8,1.1,2.5,1.1c1,0,2-0.3,3.2-0.7c1.1-0.3,1.8-0.7,2.5-1.2c1.9-1.2,4-2.5,10.8-2.5c0.3,0,0.6,0,1,0   c8,0.2,10.4,1.6,12.6,2.8c0.7,0.3,1.3,0.8,2.1,1c1.1,0.5,2.2,0.7,3.2,0.7c1.3,0,2.4-0.5,2.9-1.4c0.7-1.2,0.4-2.9-0.7-4.6   c-1.6-2.2-3.2-3.8-5.1-4.7c-1.5-0.8-3.2-1.1-5.1-1.1c-1.8,0-3.6,0.3-5.4,0.6c-1.5,0.3-3,0.5-4.3,0.6c-0.1,0-0.2,0-0.3,0   c-1.5,0-2.9-0.3-4.5-0.6C172.2,476.7,170.6,476.3,168.9,476.3z M168.9,475.5c3.3,0,6.5,1.2,9.4,1.2c0.1,0,0.2,0,0.3,0   c2.8-0.1,6.1-1.2,9.7-1.2c3.6,0,7.5,1.3,11,6.3c2.4,3.7,1,7.3-2.9,7.3c-1.1,0-2.2-0.3-3.5-0.8c-3.3-1.2-4.1-3.5-14.5-3.7   c-0.4,0-0.6,0-1,0c-9.4,0-9.4,2.7-13.1,3.7c-1.4,0.5-2.5,0.8-3.6,0.8c-3.9,0-4.8-3.4-2.7-7.2C161.8,476.7,165.5,475.5,168.9,475.5z   "></path>
	<path class="st27" d="M166.2,474.1h5.9"></path>
	<path class="st23" d="M168.2,475h2"></path>
	<path class="st23" d="M186.8,475h1.9"></path>
	<path class="st27" d="M185,474.1h5.6"></path>
	<path class="st11" d="M178.5,482.3c0.5,0,1-0.4,1-0.9s-0.4-0.9-1-0.9s-1,0.4-1,0.9C177.5,481.8,178,482.3,178.5,482.3z"></path>
	<path class="st23" d="M178.5,481.8c0.3,0,0.5-0.2,0.5-0.5s-0.2-0.5-0.5-0.5s-0.5,0.2-0.5,0.5C178,481.6,178.2,481.8,178.5,481.8z"></path>
	<path class="st23" d="M253.4,486.1h-36.9v3.4h36.9V486.1z"></path>
	<path class="st23" d="M254.3,482.6h-36.9v3.4h36.9L254.3,482.6L254.3,482.6z"></path>
	<path class="st23" d="M253.4,479.2h-36.9v3.4h36.9V479.2z"></path>
	<path class="st23" d="M254.3,475.8h-36.9v3.4h36.9L254.3,475.8L254.3,475.8z"></path>
	<path class="st23" d="M253.4,472.4h-36.9v3.4h36.9V472.4z"></path>
	<path class="st27" d="M204.3,524.6h2.6"></path>
	<path class="st27" d="M647.7,534h-33.1c-7.6,0-7.8-10.4,0-10.4h33.1"></path>
	<path class="st23" d="M646.1,534c-4.4-3.1-2.5-8.9,0-10.5"></path>
	<path class="st27" d="M715.7,514.3h-27.6c-6,0-6.1-8.1,0-8.1h27.6"></path>
	<path class="st23" d="M714.3,514.3c-3.4-2.4-1.9-6.9,0-8.2"></path>
	<path class="st27" d="M678.5,523.5h35.7c7.6,0,7.8,10.4,0,10.4h-35.7"></path>
	<path class="st23" d="M680,523.5c4.4,3.1,2.5,8.9,0,10.5"></path>
	<path class="st27" d="M607.9,514.2H638c6.9,0,7.1,9.2,0,9.2h-30.1"></path>
	<path class="st23" d="M609.3,514.2c4,2.8,2.3,7.8,0,9.3"></path>
	<path class="st27" d="M681.1,514.2h32.7c6.9,0,7.1,9.2,0,9.2h-32.7"></path>
	<path class="st23" d="M682.5,514.2c4,2.8,2.3,7.8,0,9.3"></path>
	<path class="st22" d="M701.1,436.9c3.7-4.3,6.8-9,9-13.7c3.2-6.7,4.7-13.7,4.7-20.9c-0.3-9.5-2.5-19-6.6-28.4   c-1.9-4.5-4.4-9-7.1-13.2c-2.7-4.1-5.8-8.2-9.2-12c-0.1-0.1-0.2-0.2-0.3-0.2s-0.2,0.1-0.2,0.1c-0.1,0.1-0.1,0.3,0,0.4l0.1,0.1v0.1   c3.6,15.9-2.9,25.9-9.1,35.5c-2.1,3.2-4.2,6.5-6,9.9c-1.9,3.9-3,7.3-3.4,11c-0.5,4.3-0.1,8.8,1.4,13.6c0.8,2.6,1.8,5.4,3.2,8.3   c1.4,2.8,3.1,5.9,5.1,9c4.7,0,8.4,0.1,11.7,0.1C696.8,436.8,699,436.9,701.1,436.9z M701.5,437.7c-5.4,0-10.4-0.2-19.2-0.2   c-30.4-47.1,16.8-51.1,8.4-88c-0.5-0.9,0.1-1.9,1-1.9c0.3,0,0.6,0.1,1,0.4c13.7,15.3,22.6,34.5,23.2,54.2   C715.7,418.5,707.5,430.7,701.5,437.7z"></path>
	<path class="st23" d="M691.5,348.6c29.1,47-28.8,57.1-9.4,88.1"></path>
	<path class="st12" d="M405.4,486c-1.9,0-3.6,1.6-3.6,3.5s1.6,3.5,3.6,3.5H466c1.9,0,3.6-1.6,3.6-3.5S468,486,466,486H405.4z    M405.4,485.2H466c2.5,0,4.5,2,4.5,4.4s-2,4.4-4.5,4.4h-60.6c-2.5,0-4.5-2-4.5-4.4C401,487.2,403,485.2,405.4,485.2z"></path>
	<g class="st28">
		<path class="st11" d="M238.1,392.2V199.1h184L238.1,392.2z"></path>
		<path class="st12" d="M238.5,199.1v192.1l182.6-192.1H238.5z M237.6,199.1h185.5L237.6,393.4V199.1z"></path>
	</g>
	<path class="st23" d="M0.1,590.4h868"></path>
	<path class="st25" d="M795.5,474.3h-7.6v111.9h7.6V474.3z"></path>
	<path class="st23" d="M795,474.7h-6.8v111h6.8V474.7z"></path>
	<path class="st25" d="M791.8,298.4c12.4,0,22.4,9.8,22.4,22v136.8c0,12.1-10,22-22.4,22s-22.4-9.8-22.4-22V320.3   C769.4,308.2,779.4,298.4,791.8,298.4z"></path>
	<path class="st23" d="M791.8,298.8c12.1,0,21.9,9.7,21.9,21.5v136.8c0,11.9-9.8,21.5-21.9,21.5c-12.1,0-21.9-9.7-21.9-21.5V320.3   C769.8,308.4,779.7,298.8,791.8,298.8z"></path>
	<path class="st25" d="M791.3,461.8c3.4,0,6.1-2.7,6.1-6s-2.8-6-6.1-6s-6.1,2.7-6.1,6C785.2,459.1,788,461.8,791.3,461.8z"></path>
	<path class="st29" d="M791.3,461.4c3.1,0,5.7-2.5,5.7-5.6s-2.6-5.6-5.7-5.6c-3.2,0-5.7,2.5-5.7,5.6S788.2,461.4,791.3,461.4z"></path>
	<path class="st25" d="M791.8,377.5c8.5,0,15.4-6.8,15.4-15.1c0-8.3-6.9-15.1-15.4-15.1s-15.4,6.8-15.4,15.1   C776.4,370.8,783.3,377.5,791.8,377.5z"></path>
	<path class="st29" d="M791.8,377.1c8.2,0,14.9-6.6,14.9-14.6c0-8.1-6.7-14.6-14.9-14.6s-14.9,6.6-14.9,14.6   C776.9,370.5,783.5,377.1,791.8,377.1z"></path>
	<path class="st25" d="M791.8,368.6c3.4,0,6.2-2.7,6.2-6.1s-2.8-6.1-6.2-6.1s-6.2,2.7-6.2,6.1S788.3,368.6,791.8,368.6z"></path>
	<path class="st29" d="M791.8,368.2c3.2,0,5.8-2.5,5.8-5.7c0-3.1-2.6-5.7-5.8-5.7s-5.8,2.5-5.8,5.7   C786,365.6,788.6,368.2,791.8,368.2z"></path>
	<path class="st25" d="M814,584.2h-44.6v6.5H814V584.2z"></path>
	<path class="st23" d="M813.6,584.7h-43.7v5.7h43.7V584.7z"></path>
	<path class="st25" d="M791.8,431c8.5,0,15.4-6.8,15.4-15.1c0-8.3-6.9-15.1-15.4-15.1s-15.4,6.8-15.4,15.1   C776.4,424.2,783.3,431,791.8,431z"></path>
	<path class="st29" d="M791.8,430.5c8.2,0,14.9-6.6,14.9-14.6c0-8.1-6.7-14.6-14.9-14.6s-14.9,6.6-14.9,14.6   C776.9,424,783.5,430.5,791.8,430.5z"></path>
	<path class="st25" d="M791.8,422.1c3.4,0,6.2-2.7,6.2-6.1s-2.8-6.1-6.2-6.1s-6.2,2.7-6.2,6.1C785.5,419.3,788.3,422.1,791.8,422.1z   "></path>
	<path class="st29" d="M791.8,421.6c3.2,0,5.8-2.5,5.8-5.7c0-3.1-2.6-5.7-5.8-5.7s-5.8,2.5-5.8,5.7S788.6,421.6,791.8,421.6z"></path>
	<path class="st25" d="M791.3,328.3c3.4,0,6.1-2.7,6.1-6s-2.8-6-6.1-6s-6.1,2.7-6.1,6C785.2,325.6,788,328.3,791.3,328.3z"></path>
	<path class="st29" d="M791.3,327.8c3.1,0,5.7-2.5,5.7-5.6s-2.6-5.6-5.7-5.6c-3.2,0-5.7,2.5-5.7,5.6S788.2,327.8,791.3,327.8z"></path>
	<path class="st25" d="M79.3,474.3h-7.6v111.9h7.6V474.3z"></path>
	<path class="st23" d="M78.9,474.7h-6.8v111h6.8V474.7z"></path>
	<path class="st25" d="M75.6,298.4c12.4,0,22.4,9.8,22.4,22v136.8c0,12.1-10,22-22.4,22s-22.4-9.8-22.4-22V320.3   C53.2,308.2,63.2,298.4,75.6,298.4z"></path>
	<path class="st23" d="M75.6,298.8c12.1,0,21.9,9.7,21.9,21.5v136.8c0,11.9-9.8,21.5-21.9,21.5s-21.9-9.7-21.9-21.5V320.3   C53.7,308.4,63.5,298.8,75.6,298.8z"></path>
	<path class="st25" d="M75.2,461.8c3.4,0,6.1-2.7,6.1-6s-2.8-6-6.1-6s-6.1,2.7-6.1,6C69,459.1,71.8,461.8,75.2,461.8z"></path>
	<path class="st29" d="M75.2,461.4c3.2,0,5.7-2.5,5.7-5.6s-2.6-5.6-5.7-5.6c-3.2,0-5.7,2.5-5.7,5.6S72,461.4,75.2,461.4z"></path>
	<path class="st25" d="M75.6,377.5c8.5,0,15.4-6.8,15.4-15.1c0-8.3-6.9-15.1-15.4-15.1s-15.4,6.8-15.4,15.1   C60.3,370.8,67.1,377.5,75.6,377.5z"></path>
	<path class="st29" d="M75.6,377.1c8.2,0,14.9-6.6,14.9-14.6c0-8.1-6.7-14.6-14.9-14.6s-14.9,6.6-14.9,14.6   C60.7,370.5,67.4,377.1,75.6,377.1z"></path>
	<path class="st25" d="M75.6,368.6c3.4,0,6.2-2.7,6.2-6.1s-2.8-6.1-6.2-6.1c-3.4,0-6.2,2.7-6.2,6.1S72.2,368.6,75.6,368.6z"></path>
	<path class="st29" d="M75.6,368.2c3.2,0,5.8-2.5,5.8-5.7c0-3.1-2.6-5.7-5.8-5.7s-5.8,2.5-5.8,5.7C69.8,365.6,72.4,368.2,75.6,368.2   z"></path>
	<path class="st25" d="M97.8,584.2H53.2v6.5h44.6V584.2z"></path>
	<path class="st23" d="M97.4,584.7H53.7v5.7h43.7V584.7z"></path>
	<path class="st25" d="M75.6,431c8.5,0,15.4-6.8,15.4-15.1c0-8.3-6.9-15.1-15.4-15.1s-15.4,6.8-15.4,15.1   C60.3,424.2,67.1,431,75.6,431z"></path>
	<path class="st29" d="M75.6,430.5c8.2,0,14.9-6.6,14.9-14.6c0-8.1-6.7-14.6-14.9-14.6s-14.9,6.6-14.9,14.6   C60.7,424,67.4,430.5,75.6,430.5z"></path>
	<path class="st25" d="M75.6,422.1c3.4,0,6.2-2.7,6.2-6.1s-2.8-6.1-6.2-6.1c-3.4,0-6.2,2.7-6.2,6.1   C69.4,419.3,72.2,422.1,75.6,422.1z"></path>
	<path class="st29" d="M75.6,421.6c3.2,0,5.8-2.5,5.8-5.7c0-3.1-2.6-5.7-5.8-5.7s-5.8,2.5-5.8,5.7C69.8,419.1,72.4,421.6,75.6,421.6   z"></path>
	<path class="st25" d="M75.2,328.3c3.4,0,6.1-2.7,6.1-6s-2.8-6-6.1-6s-6.1,2.7-6.1,6C69,325.6,71.8,328.3,75.2,328.3z"></path>
	<path class="st29" d="M75.2,327.8c3.2,0,5.7-2.5,5.7-5.6s-2.6-5.6-5.7-5.6c-3.2,0-5.7,2.5-5.7,5.6S72,327.8,75.2,327.8z"></path>
	<path class="st30" d="M670.3,129.3H200.9V142h469.5v-12.7H670.3z"></path>
	<path class="st25" d="M246.1,165.7h9v-24h-9V165.7z"></path>
	<path class="st23" d="M246.6,165.3h8.2v-23.2h-8.2V165.3z"></path>
	<path class="st25" d="M615.9,165.7h9v-24h-9V165.7z"></path>
	<path class="st23" d="M616.3,165.3h8.2v-23.2h-8.2V165.3z"></path>
	<path class="st25" d="M576.1,46.2h-26.5v83.6h26.5V46.2z"></path>
	<path class="st23" d="M575.6,46.6H550v82.7h25.6V46.6z"></path>
	<path class="st25" d="M595.8,32.4h-20.4v97.4h20.4V32.4z"></path>
	<path class="st23" d="M595.3,32.9h-19.6v96.5h19.6V32.9z"></path>
	<path class="st25" d="M604.7,129.8l20.2-1.7l-8.7-95.8L596,34L604.7,129.8z"></path>
	<path class="st31" d="M605.1,129.3l19.3-1.6l-8.6-95l-19.3,1.6L605.1,129.3z"></path>
	<path class="st25" d="M603.9,122.2l20.3-1.7l-0.6-6.2l-20.4,1.7L603.9,122.2z"></path>
	<path class="st31" d="M604.3,121.8l19.5-1.6l-0.5-5.4l-19.5,1.6L604.3,121.8z"></path>
	<path class="st25" d="M309.4,98.3h37v18.9c0,6.6-5.5,12.1-12.3,12.1h-12.5c-6.8,0-12.3-5.4-12.3-12.1L309.4,98.3L309.4,98.3z"></path>
	<path class="st23" d="M310.2,98.8h35.3c0.3,0,0.4,0.2,0.4,0.4v18c0,6.5-5.3,11.6-11.8,11.6h-12.5c-6.6,0-11.8-5.2-11.8-11.6v-18   C309.8,98.9,310.1,98.8,310.2,98.8z"></path>
	<path class="st32" d="M329.1,99h3c0,0,0-15.3,16-19.1c8.2-1.7,18.3-0.3,26.8-4.1c8.5-4,53.8-34.1,53.8-34.1s-58-8.9-78.1,27.5   c-3.1,5.1-7.6,9.6-13.3,13.6c-0.2,0.1-0.3,0.2-0.4,0.3C331.6,87.3,329.7,93.3,329.1,99z"></path>
	<path class="st32" d="M327.1,99c-0.1-10.3,0.9-19.5,4.1-25.9c0.3-0.4,0.3-0.9,0-1.4c-2.7-5.3-4.7-11.2-0.7-21.3   c1-2.5,2.5-4.8,4.4-6.8c3.7-3.8,6.1-7.6,5.6-11.5c-0.3-5.6,2.8-10.5,9.2-14.7c2-1.3,4.1-2.3,6.5-2.9c3.7-1,6-2.8,6.9-5.4   c0.5-1.6,1.3-3.1,2.4-4.4c4.7-5.8,10.3-4.3,16-1.2c0.3,0.2,0.4,0.4,0.2,0.7c0,0,0,0,0,0.1c-17.4,21.3-33.2,45.3-48.4,70.1   c-0.5,0.9-1,1.8-1.2,2.8c-1.8,6.1-2.2,14-2.5,22.1L327.1,99z"></path>
	<path class="st32" d="M330.4,98.7c2.3-4.4,5.6-8.1,15-7.6c1.7,0.1,3.3-0.3,4.8-0.9c17.6-7.9,37.8,0.6,48.7,12.4   c-18.8,1.6-37.3,2-53.3-7.8c-2.1-1.3-4.7-1.7-7-1c-3.2,0.9-5.4,3.4-5.8,4.8L330.4,98.7z"></path>
	<path class="st32" d="M323.6,99h3c-0.4-5-1.3-6.7-4.6-12.3c-0.4-0.8-0.7-1.6-0.7-2.5c-0.3-6.5-4.1-14.6-8.3-18.7   c-1-0.9-1.8-2-2.7-3l-16.2-20c-6.5-6.2-15.4-9.6-26.1-10.8c5.1,8.3,9.5,16.1,10.5,22.1c6.1,18,15.4,27.2,27.6,28.5   C317,83.7,323.2,89,323.6,99z"></path>
	<path class="st32" d="M322.9,98.7c-2.2-4-6.7-7.1-12.6-9.4c-2.4-0.9-4.8-1.4-7.4-1.4c-21.2,0.4-40.4,1.9-56.5,5.3   c0.4-6.6,2.7-11.4,10.4-10.7c1.7,0.2,3.3-0.3,4.6-1.5c5.4-4.7,11.9-6,19.8-2.9c1.2,0.5,2.5,0.6,3.9,0.4c9.6-1.6,16.9,0,21.1,5.5   c0.6,0.8,1.4,1.4,2.3,1.7c8.4,3,14.4,7.1,17,12.8L322.9,98.7z"></path>
	<path class="st25" d="M346.4,114.1h-37v3.4h37V114.1z"></path>
	<path class="st23" d="M345.9,114.5h-36.2v2.6h36.2V114.5z"></path>
	<path class="st25" d="M346.4,108.6h-37v3.4h37V108.6z"></path>
	<path class="st23" d="M345.9,109.1h-36.2v2.6h36.2V109.1z"></path>
	<path class="st30" d="M550.6,41.5h-26.5v87.8h26.5V41.5z"></path>
	<path class="st30" d="M542.3,59.4h-9.8v69.8h9.8V59.4z"></path>
	<path class="st33" d="M635.8,184.4H228.3v228h407.5V184.4z M226.6,182.6h411v231.6h-411L226.6,182.6L226.6,182.6z"></path>
	<rect x="227.4" y="409.3" class="st33" width="411.2" height="7.5"></rect>
	<g>
		<g>
			<g>
				<polygon class="st34" points="605.5,429.4 605.5,435.9 588.9,435.9 588.9,429.4 594.2,429.4 594.2,414.5 600.9,414.5       600.9,429.4     "></polygon>
				<line class="st34" x1="601.7" y1="429.4" x2="593.4" y2="429.4"></line>
			</g>
		</g>
		<g>
			<g>
				<polygon class="st34" points="277.1,429.4 277.1,435.9 260.5,435.9 260.5,429.4 265.7,429.4 265.7,414.5 272.5,414.5       272.5,429.4     "></polygon>
				<line class="st34" x1="273.2" y1="429.4" x2="264.9" y2="429.4"></line>
			</g>
		</g>
	</g>
</g>
<g id="_x33_2NY12200M" class="st0">
</g>
</svg>