<svg xmlns="http://www.w3.org/2000/svg" xmlns:xlink="http://www.w3.org/1999/xlink" viewBox="0 0 72 72"><defs><style>.cls-1,.cls-4,.cls-5{fill:none;}.cls-2{isolation:isolate;opacity:0.4;fill:url(#linear-gradient);}.cls-3{fill:#242021;}.cls-4,.cls-5{stroke:#333;stroke-linecap:round;stroke-linejoin:round;}.cls-4{stroke-width:2px;}.cls-5{stroke-width:1.72px;}</style><linearGradient id="linear-gradient" x1="40.35" y1="56.63" x2="62.73" y2="56.63" gradientUnits="userSpaceOnUse"><stop offset="0" stop-color="#00bee6"/><stop offset="1" stop-color="#78be1e"/></linearGradient></defs><g id="Layer_2" data-name="Layer 2"><g id="Layer_1-2" data-name="Layer 1"><rect class="cls-1" width="72" height="72"/><path class="cls-2" d="M62.6,49.79H40.47s-.06,0-.09,0l.08.07A3.84,3.84,0,0,1,41.89,54a4.3,4.3,0,0,1-1.46,2.27c-.06,0-.06.07,0,.12a3.18,3.18,0,0,1,.59.45,4,4,0,0,1,.7,5.42,3.49,3.49,0,0,1-1.38,1.23H62.62c.1,0,.11,0,.11-.12V49.91C62.73,49.81,62.71,49.79,62.6,49.79Z"/><path class="cls-3" d="M40.6,60.62a3,3,0,0,1-1.38,2,5,5,0,0,1-1.92.7,8,8,0,0,1-1.29.08H28.18s0-.07,0-.1l.9-1.82a.15.15,0,0,1,.16-.09h6.08a2.94,2.94,0,0,0,1.24-.23,1.85,1.85,0,0,0,1.12-1.56,1.79,1.79,0,0,0-.17-1.16,2.05,2.05,0,0,0-1.45-1,1.8,1.8,0,0,0-.46,0H33.16s0-.06,0-.08c.29-.61.57-1.22.85-1.83a.14.14,0,0,1,.15-.09c.43,0,.85,0,1.27,0A2,2,0,0,0,37.2,52.9a1.46,1.46,0,0,0-1.05-1,3.06,3.06,0,0,0-1-.14H31.9a.18.18,0,0,0-.19.12L26.46,63.29a.13.13,0,0,1-.15.1H23c-.09,0-.12,0-.16-.1l-3.54-9a3.81,3.81,0,0,0-1.33-1.78,3.73,3.73,0,0,0-2.12-.65h-3.5c-.08,0-.09,0-.09.1v9.13c0,.08,0,.1.09.1.9,0,1.79,0,2.69,0a4.91,4.91,0,0,0,2.56-.68,4,4,0,0,0,1.66-2.08.19.19,0,0,0,0-.07l1.31,3.24a6.27,6.27,0,0,1-3,1.58,8.27,8.27,0,0,1-1.86.19H9.41c-.11,0-.13,0-.13-.14V49.84c0-.06,0-.13.09-.13h7a6.64,6.64,0,0,1,2.68.52,5.28,5.28,0,0,1,2.9,3c.35.86.64,1.73,1,2.6l1.83,5,0,.09s0-.07.06-.11l4.65-11a.16.16,0,0,1,.18-.12h7a4.12,4.12,0,0,1,2.14.55,2.87,2.87,0,0,1,1.4,2.24,3.89,3.89,0,0,1-.27,2,3.11,3.11,0,0,1-2,1.73.37.37,0,0,0-.16.07.62.62,0,0,0,.26.06,3.3,3.3,0,0,1,2,1.15,3.45,3.45,0,0,1,.68,1.69A3.88,3.88,0,0,1,40.6,60.62Z"/><path class="cls-3" d="M52,51.32v1.45c0,.09,0,.11-.11.11H48.91c-.09,0-.12,0-.12.13,0,1.5,0,3,0,4.51s0,3,0,4.51c0,.08,0,.11-.11.11H46.92c-.1,0-.12,0-.12-.11q0-4.5,0-9c0-.16,0-.14-.14-.14H43.8c-.09,0-.12,0-.12-.12,0-.48,0-1,0-1.45,0-.07,0-.1.1-.1h8.06C51.94,51.21,52,51.24,52,51.32Z"/><path class="cls-3" d="M60.15,60.56c0,.49,0,1,0,1.48,0,.07,0,.09-.1.09H52.89c-.07,0-.09,0-.09-.09V61a.2.2,0,0,1,.06-.15c1-.89,1.93-1.75,2.85-2.68a12.41,12.41,0,0,0,1.5-1.74,3.56,3.56,0,0,0,.62-1.47,2.11,2.11,0,0,0-.14-1.19,1.54,1.54,0,0,0-1.19-.91,3.19,3.19,0,0,0-2.2.39,3.51,3.51,0,0,0-.61.39c-.09.07-.11,0-.14,0-.16-.42-.34-.84-.52-1.26,0-.07,0-.1,0-.15a5.29,5.29,0,0,1,1.77-.86,5,5,0,0,1,2.91,0,2.94,2.94,0,0,1,2.12,2.58,4.17,4.17,0,0,1-.7,2.87,11.58,11.58,0,0,1-1.55,1.87c-.59.59-1.22,1.15-1.85,1.69l-.07.08s.08,0,.13,0H60C60.13,60.42,60.15,60.46,60.15,60.56Z"/><path class="cls-4" d="M61.65,45.93H9.78"/><path class="cls-5" d="M31.59,45.81,34,38.12l3.62,0,2.26,7.73"/><path class="cls-4" d="M39,32.26H32.4a3,3,0,0,0-3,3h0a3,3,0,0,0,3,3H39a3,3,0,0,0,3-3h0a3,3,0,0,0-3-3Z"/><path class="cls-4" d="M28.18,9.64a10.66,10.66,0,0,0,15.07,0"/><path class="cls-4" d="M23.62,14.2a17.1,17.1,0,0,0,24.19,0"/><path class="cls-4" d="M19.31,18.84a23.21,23.21,0,0,0,32.82,0"/></g></g></svg>