<svg xmlns="http://www.w3.org/2000/svg" xmlns:xlink="http://www.w3.org/1999/xlink" viewBox="0 0 72 72"><defs><style>.cls-1{isolation:isolate;opacity:0.4;fill:url(#linear-gradient);}.cls-2,.cls-3{fill:none;}.cls-3{stroke:#333;stroke-linecap:round;stroke-linejoin:round;stroke-width:2px;}</style><linearGradient id="linear-gradient" x1="377.67" y1="-641.37" x2="355.73" y2="-628.7" gradientTransform="translate(401.94 -598.36) rotate(180)" gradientUnits="userSpaceOnUse"><stop offset="0" stop-color="#78be1e"/><stop offset="1" stop-color="#00bee6"/></linearGradient></defs><g id="Layer_2" data-name="Layer 2"><g id="Layer_1-2" data-name="Layer 1"><circle class="cls-1" cx="35.24" cy="36.68" r="12.67"/><rect class="cls-2" width="72" height="72"/><circle class="cls-3" cx="35.24" cy="36.68" r="3"/><path class="cls-3" d="M20,24.13a17.89,17.89,0,0,1,1.68-1.8"/><path class="cls-3" d="M24.39,20.15A19.73,19.73,0,1,1,17.47,28"/><path class="cls-3" d="M42.71,11.1c.82.24,1.62.51,2.4.82"/><path class="cls-3" d="M59.52,18.47l-4.87,0a26.63,26.63,0,1,1-16.58-8.24"/><line class="cls-3" x1="54.48" y1="24.3" x2="54.45" y2="18.43"/><line class="cls-3" x1="28.82" y1="30.34" x2="32.99" y2="34.51"/><line class="cls-3" x1="45.16" y1="26.68" x2="37.32" y2="34.51"/><line class="cls-3" x1="35.24" y1="21.18" x2="35.24" y2="24.18"/><line class="cls-3" x1="35.24" y1="49.18" x2="35.24" y2="52.18"/><line class="cls-3" x1="19.74" y1="36.68" x2="22.74" y2="36.68"/><line class="cls-3" x1="47.74" y1="36.68" x2="50.74" y2="36.68"/></g></g></svg>