<svg xmlns="http://www.w3.org/2000/svg" xmlns:xlink="http://www.w3.org/1999/xlink" viewBox="0 0 72 72"><defs><style>.cls-1,.cls-3{fill:none;}.cls-2{isolation:isolate;opacity:0.4;fill:url(#linear-gradient);}.cls-3{stroke:#333;stroke-linecap:round;stroke-linejoin:round;stroke-width:2px;}.cls-4{fill:#333;}</style><linearGradient id="linear-gradient" x1="313.29" y1="-901.31" x2="312.31" y2="-902.13" gradientTransform="matrix(29.35, 0, 0, -29.35, -9133.62, -26434.13)" gradientUnits="userSpaceOnUse"><stop offset="0" stop-color="#00bee6"/><stop offset="1" stop-color="#78be1e"/></linearGradient></defs><g id="Layer_2" data-name="Layer 2"><g id="Layer_1-2" data-name="Layer 1"><rect class="cls-1" width="72" height="72"/><path id="Path_6356" data-name="Path 6356" class="cls-2" d="M15.89,16H56V56Z"/><path id="Path_6357" data-name="Path 6357" class="cls-3" d="M11,22V11H61V61H11V28"/><line class="cls-3" x1="11.22" y1="39.67" x2="60.22" y2="39.67"/><circle class="cls-3" cx="19.47" cy="50.3" r="3"/><path class="cls-3" d="M38.93,19H22.24a1.86,1.86,0,0,0-1.86,1.85V32.93a1.86,1.86,0,0,0,1.86,1.85H38.93a1.85,1.85,0,0,0,1.85-1.85v-12A1.85,1.85,0,0,0,38.93,19Z"/><path class="cls-3" d="M48.29,20.81l-7.51,3V30l7.51,3c1.74.69,2.18.23,2.18-1.15V22c0-1.38-.44-1.84-2.18-1.15Z"/><circle class="cls-4" cx="25.22" cy="23.42" r="1.5"/><line class="cls-3" x1="25.22" y1="29.67" x2="35.6" y2="29.67"/><path class="cls-4" d="M28.55,51.64h-.47v4.09H25.66V44.22H28.8c2.77,0,4.88,1.14,4.88,3.63S31.42,51.64,28.55,51.64Zm.24-5.54h-.71v3.65h.59c1.6,0,2.59-.6,2.59-1.9S30.31,46.1,28.79,46.1Z"/><path class="cls-4" d="M42.24,44.22h2.52L40.89,55.73h-2.8L34.22,44.22h2.52l2.75,9.06Z"/><path class="cls-4" d="M51.68,51.08l3.89,4.65h-3l-3.34-4.2h-.78v4.2H46V44.22h3.44c2.86,0,4.9,1.16,4.9,3.51A3.44,3.44,0,0,1,51.68,51.08Zm-2.23-5h-1v3.6h.73c1.66,0,2.77-.66,2.77-1.92S50.92,46.1,49.45,46.1Z"/></g></g></svg>