<svg xmlns="http://www.w3.org/2000/svg" xmlns:xlink="http://www.w3.org/1999/xlink" viewBox="0 0 72.01 72.03"><defs><style>.cls-1{opacity:0.36;fill:url(#linear-gradient);}.cls-2,.cls-3{fill:none;}.cls-2{stroke:#333;stroke-linecap:round;stroke-linejoin:round;stroke-width:2px;}</style><linearGradient id="linear-gradient" x1="42.32" y1="34.42" x2="58.32" y2="34.42" gradientUnits="userSpaceOnUse"><stop offset="0" stop-color="#78be1e"/><stop offset="0.1" stop-color="#72be28"/><stop offset="0.27" stop-color="#63be42"/><stop offset="0.49" stop-color="#49be6c"/><stop offset="0.75" stop-color="#26bea6"/><stop offset="1" stop-color="#00bee6"/></linearGradient></defs><g id="Layer_2" data-name="Layer 2"><g id="Layer_1-2" data-name="Layer 1"><path class="cls-1" d="M58.32,19.84v23h0c-.21,0-.43,0-.65,0A8.82,8.82,0,0,0,49.22,49,16.29,16.29,0,0,1,47,47.15a15.91,15.91,0,0,1-4.69-11.31v-.1a16,16,0,0,1,16-15.9Z"/><path class="cls-2" d="M35.62,22.16V15.85h22.6a4,4,0,0,1,4,4v24.3a8.67,8.67,0,0,0-4-1.32h0c-.21,0-.43,0-.65,0a8.76,8.76,0,0,0-8.8,8.8v.15a8.82,8.82,0,0,0,1.09,4.1H35.62V37.94"/><line class="cls-2" x1="35.62" y1="30.62" x2="35.62" y2="26.98"/><path class="cls-2" d="M58.22,19.85v23h0c-.21,0-.43,0-.65,0A8.82,8.82,0,0,0,49.12,49a16.29,16.29,0,0,1-2.21-1.85,15.91,15.91,0,0,1-4.69-11.31v-.1a16,16,0,0,1,16-15.9Z"/><path class="cls-2" d="M35.62,55.86H13.22a4,4,0,0,1-4-4v-32a4,4,0,0,1,4-4h22.4"/><path class="cls-2" d="M29.22,19.86h0a0,0,0,0,1,0,0v32a0,0,0,0,1,0,0h0a16,16,0,0,1-16-16v0a16,16,0,0,1,16-16Z" transform="translate(42.44 71.72) rotate(180)"/><line class="cls-2" x1="57.54" y1="46.22" x2="57.54" y2="57"/><line class="cls-2" x1="52.15" y1="51.61" x2="62.93" y2="51.61"/><path class="cls-2" d="M66.34,51.6a8.8,8.8,0,0,1-17.6.15V51.6a8.76,8.76,0,0,1,8.8-8.8c.22,0,.44,0,.65,0h0a8.67,8.67,0,0,1,4,1.32A8.78,8.78,0,0,1,66.34,51.6Z"/><rect class="cls-3" x="0.01" y="0.01" width="71.99" height="72"/></g></g></svg>