<svg xmlns="http://www.w3.org/2000/svg" xmlns:xlink="http://www.w3.org/1999/xlink" viewBox="0 0 72.24 72.24"><defs><style>.cls-1,.cls-3,.cls-4{fill:none;}.cls-2{isolation:isolate;opacity:0.4;fill:url(#linear-gradient);}.cls-3{stroke:#333;}.cls-3,.cls-4{stroke-linecap:round;stroke-linejoin:round;stroke-width:2px;}.cls-4{stroke:#2b2929;}.cls-5{fill:#333;}</style><linearGradient id="linear-gradient" x1="231.42" y1="-730.02" x2="230.74" y2="-730.6" gradientTransform="matrix(29.35, 0, 0, -29.35, -6738.14, -21401.3)" gradientUnits="userSpaceOnUse"><stop offset="0" stop-color="#00bee6"/><stop offset="1" stop-color="#78be1e"/></linearGradient></defs><g id="Layer_2" data-name="Layer 2"><g id="Layer_1-2" data-name="Layer 1"><rect class="cls-1" x="0.24" y="0.24" width="72" height="72"/><path id="Path_6356" data-name="Path 6356" class="cls-2" d="M22.24,22.24h28v28Z"/><line id="Line_808" data-name="Line 808" class="cls-3" x1="11.24" y1="40.05" x2="11.24" y2="38.22"/><path id="Path_6357" data-name="Path 6357" class="cls-3" d="M11.24,34.24v-23h50v50h-50v-15"/><path id="Path_6358" data-name="Path 6358" class="cls-4" d="M53.55,54.51H18.93a.91.91,0,0,1-1-.85V18.93a.91.91,0,0,1,.85-1H53.55a.91.91,0,0,1,1,.85V53.55a.91.91,0,0,1-.85,1Z"/><path class="cls-5" d="M33.16,34.85v3.58H30.32V34.85H24.66l-.42-2.12,5.4-8.31h3.52v8.2h1.89v2.23Zm-2.84-7.8-3.39,5.57h3.39Z"/><path class="cls-5" d="M37.1,38.43v-14H40v6.73l4.86-6.73h3.41l-5.15,6.92,5.51,7.09H45l-5-6.88v6.88Z"/><path class="cls-5" d="M29.32,41.17h1.75v5.32c0,1.89-1.29,3.14-3.43,3.14s-3.43-1.25-3.43-3.14V41.17H26v5.39a1.52,1.52,0,0,0,1.69,1.67,1.51,1.51,0,0,0,1.68-1.67Z"/><path class="cls-5" d="M38,49.48V46H34.54v3.49H32.79V41.17h1.75v3.37H38V41.17h1.75v8.31Z"/><path class="cls-5" d="M41.47,41.17H44c2.93,0,4.83,1.76,4.83,4.16s-1.9,4.15-4.83,4.15H41.47ZM44,48.08a2.77,2.77,0,1,0,0-5.51h-.8v5.51Z"/><rect class="cls-1" x="0.24" y="0.24" width="72" height="72"/><rect class="cls-1" width="72" height="72"/><rect class="cls-1" width="72" height="72"/></g></g></svg>