<svg xmlns="http://www.w3.org/2000/svg" xmlns:xlink="http://www.w3.org/1999/xlink" viewBox="0 0 72 72"><defs><style>.cls-1,.cls-4{fill:none;}.cls-2{isolation:isolate;opacity:0.4;fill:url(#linear-gradient);}.cls-3{fill:#333;}.cls-4{stroke:#333;stroke-linecap:round;stroke-linejoin:round;stroke-width:2px;}</style><linearGradient id="linear-gradient" x1="160.61" y1="-1231.54" x2="161.72" y2="-1231.29" gradientTransform="matrix(21.49, 0, 0, -17.45, -3421.94, -21453.78)" gradientUnits="userSpaceOnUse"><stop offset="0" stop-color="#78be1e"/><stop offset="1" stop-color="#00bee6"/></linearGradient></defs><g id="Layer_2" data-name="Layer 2"><g id="Layer_1-2" data-name="Layer 1"><rect class="cls-1" width="72" height="72"/><g id="Group_8304" data-name="Group 8304"><g id="Group_8268" data-name="Group 8268"><g id="Group_8271" data-name="Group 8271"><path id="Path_6392" data-name="Path 6392" class="cls-2" d="M26,30.75h20.6V47.48Z"/></g><g id="Group_8272" data-name="Group 8272"><circle id="Ellipse_1030" data-name="Ellipse 1030" class="cls-3" cx="29.99" cy="17.14" r="1.27"/><circle id="Ellipse_1031" data-name="Ellipse 1031" class="cls-3" cx="42.56" cy="17.14" r="1.27"/></g></g></g><path class="cls-4" d="M21.88,30.07V26.63H50.5V47.11a6,6,0,0,1-6,6H27.88a6,6,0,0,1-6-6v-6.2"/><line class="cls-4" x1="21.88" y1="35.74" x2="21.88" y2="33.86"/><rect class="cls-4" x="11.5" y="26.63" width="6" height="20.36" rx="3"/><rect class="cls-4" x="54.5" y="26.63" width="6" height="20.36" rx="3"/><path class="cls-4" d="M50.29,23a14,14,0,0,0-28,0Z"/><path class="cls-4" d="M27.21,53.08h6a0,0,0,0,1,0,0V62a3,3,0,0,1-3,3h0a3,3,0,0,1-3-3V53.08A0,0,0,0,1,27.21,53.08Z"/><path class="cls-4" d="M39.21,53.08h6a0,0,0,0,1,0,0V62a3,3,0,0,1-3,3h0a3,3,0,0,1-3-3V53.08A0,0,0,0,1,39.21,53.08Z"/><line class="cls-4" x1="47.64" y1="7.05" x2="43.97" y2="11.02"/><line class="cls-4" x1="24.97" y1="7.05" x2="28.64" y2="11.02"/></g></g></svg>