<svg xmlns="http://www.w3.org/2000/svg" xmlns:xlink="http://www.w3.org/1999/xlink" viewBox="0 0 72 72"><defs><style>.cls-1,.cls-3{fill:none;}.cls-2{opacity:0.36;fill:url(#linear-gradient);}.cls-3{stroke:#333;stroke-linecap:round;stroke-linejoin:round;stroke-width:2px;}.cls-4{fill:#333;}</style><linearGradient id="linear-gradient" x1="32.92" y1="25.66" x2="49.19" y2="16.26" gradientUnits="userSpaceOnUse"><stop offset="0" stop-color="#78be1e"/><stop offset="0.1" stop-color="#72be28"/><stop offset="0.27" stop-color="#63be42"/><stop offset="0.49" stop-color="#49be6c"/><stop offset="0.75" stop-color="#26bea6"/><stop offset="1" stop-color="#00bee6"/></linearGradient></defs><g id="Layer_2" data-name="Layer 2"><g id="Layer_1-2" data-name="Layer 1"><rect class="cls-1" width="72" height="72"/><polygon class="cls-2" points="24.41 10.92 46.11 10.92 46.11 37.69 24.41 10.92"/><path class="cls-3" d="M21,7.87H49.51a0,0,0,0,1,0,0V50.64A14.26,14.26,0,0,1,35.26,64.9h0A14.26,14.26,0,0,1,21,50.64V7.87A0,0,0,0,1,21,7.87Z"/><circle class="cls-3" cx="35.26" cy="50.93" r="7.6"/><circle class="cls-3" cx="35.26" cy="50.93" r="2.85"/><line class="cls-3" x1="30.05" y1="45.76" x2="33.24" y2="48.96"/><line class="cls-3" x1="37.27" y1="52.99" x2="40.47" y2="56.18"/><line class="cls-3" x1="40.47" y1="45.76" x2="37.27" y2="48.96"/><line class="cls-3" x1="33.24" y1="52.99" x2="30.05" y2="56.18"/><line class="cls-3" x1="25.64" y1="13.46" x2="32.05" y2="13.46"/><line class="cls-3" x1="42.74" y1="13.46" x2="45.36" y2="13.46"/><circle class="cls-4" cx="27.54" cy="21.61" r="1.9"/><circle class="cls-4" cx="35.14" cy="21.61" r="1.9"/><circle class="cls-4" cx="42.74" cy="21.61" r="1.9"/><circle class="cls-4" cx="27.54" cy="29.22" r="1.9"/><circle class="cls-4" cx="35.14" cy="29.22" r="1.9"/><circle class="cls-4" cx="42.74" cy="29.22" r="1.9"/><circle class="cls-4" cx="27.54" cy="36.82" r="1.9"/><circle class="cls-4" cx="35.14" cy="36.82" r="1.9"/><circle class="cls-4" cx="42.74" cy="36.82" r="1.9"/></g></g></svg>