<svg xmlns="http://www.w3.org/2000/svg" xmlns:xlink="http://www.w3.org/1999/xlink" viewBox="0 0 72.03 72.03"><defs><style>.cls-1{opacity:0.36;fill:url(#linear-gradient);}.cls-2,.cls-4{fill:none;}.cls-3{fill:#333;}.cls-4{stroke:#333;stroke-linecap:round;stroke-linejoin:round;stroke-width:2px;}</style><linearGradient id="linear-gradient" x1="27.31" y1="37.48" x2="44.83" y2="37.48" gradientUnits="userSpaceOnUse"><stop offset="0" stop-color="#78be1e"/><stop offset="0.1" stop-color="#72be28"/><stop offset="0.27" stop-color="#63be42"/><stop offset="0.49" stop-color="#49be6c"/><stop offset="0.75" stop-color="#26bea6"/><stop offset="1" stop-color="#00bee6"/></linearGradient></defs><g id="Layer_2" data-name="Layer 2"><g id="Layer_1-2" data-name="Layer 1"><circle class="cls-1" cx="36.07" cy="37.48" r="8.76"/><rect class="cls-2" x="0.01" y="0.01" width="72" height="72"/><circle class="cls-3" cx="36.07" cy="13.73" r="2.4"/><circle class="cls-3" cx="27.99" cy="15.15" r="2.4"/><circle class="cls-3" cx="20.89" cy="19.25" r="2.4"/><circle class="cls-3" cx="15.62" cy="25.53" r="2.4"/><circle class="cls-3" cx="12.82" cy="33.24" r="2.4"/><circle class="cls-3" cx="12.82" cy="41.44" r="2.4"/><circle class="cls-3" cx="15.62" cy="49.14" r="2.4"/><circle class="cls-3" cx="20.89" cy="55.42" r="2.4"/><circle class="cls-3" cx="27.99" cy="59.52" r="2.4"/><circle class="cls-3" cx="36.07" cy="60.94" r="2.4"/><circle class="cls-3" cx="44.14" cy="59.52" r="2.4"/><circle class="cls-3" cx="51.24" cy="55.42" r="2.4"/><circle class="cls-3" cx="56.51" cy="49.14" r="2.4"/><circle class="cls-3" cx="59.32" cy="41.44" r="2.4"/><circle class="cls-3" cx="59.32" cy="33.24" r="2.4"/><circle class="cls-3" cx="56.51" cy="25.53" r="2.4"/><circle class="cls-3" cx="51.24" cy="19.25" r="2.4"/><circle class="cls-3" cx="44.14" cy="15.15" r="2.4"/><rect class="cls-3" x="34.67" y="17.98" width="2.81" height="2.81" rx="1.4"/><rect class="cls-3" x="28.53" y="19.06" width="2.81" height="2.81" rx="1.4" transform="translate(-5.2 11.47) rotate(-20)"/><rect class="cls-3" x="23.13" y="22.18" width="2.81" height="2.81" rx="1.4" transform="translate(-9.42 21.29) rotate(-40)"/><rect class="cls-3" x="19.12" y="26.96" width="2.81" height="2.81" rx="1.4" transform="translate(-14.3 31.95) rotate(-60)"/><rect class="cls-3" x="16.99" y="32.81" width="2.81" height="2.81" rx="1.4" transform="translate(-18.5 46.39) rotate(-80)"/><rect class="cls-3" x="16.99" y="39.05" width="2.81" height="2.81" rx="1.4" transform="translate(-18.25 65.59) rotate(-100)"/><rect class="cls-3" x="19.12" y="44.91" width="2.81" height="2.81" rx="1.4" transform="translate(-9.32 87.24) rotate(-120)"/><rect class="cls-3" x="23.13" y="49.68" width="2.81" height="2.81" rx="1.4" transform="translate(10.48 105.99) rotate(-140)"/><rect class="cls-3" x="28.53" y="52.8" width="2.81" height="2.81" rx="1.4" transform="translate(39.52 115.37) rotate(-160)"/><rect class="cls-3" x="34.67" y="53.88" width="2.81" height="2.81" rx="1.4" transform="translate(72.14 110.57) rotate(180)"/><rect class="cls-3" x="40.8" y="52.8" width="2.81" height="2.81" rx="1.4" transform="translate(100.41 90.7) rotate(160)"/><rect class="cls-3" x="46.2" y="49.68" width="2.81" height="2.81" rx="1.4" transform="translate(116.91 59.62) rotate(140)"/><rect class="cls-3" x="50.21" y="44.91" width="2.81" height="2.81" rx="1.4" transform="translate(117.53 24.77) rotate(120)"/><rect class="cls-3" x="52.34" y="39.05" width="2.81" height="2.81" rx="1.4" transform="translate(102.92 -5.45) rotate(100)"/><rect class="cls-3" x="52.34" y="32.81" width="2.81" height="2.81" rx="1.4" transform="translate(78.11 -24.65) rotate(80)"/><rect class="cls-3" x="50.21" y="26.96" width="2.81" height="2.81" rx="1.4" transform="translate(50.37 -30.52) rotate(60)"/><rect class="cls-3" x="46.2" y="22.18" width="2.81" height="2.81" rx="1.4" transform="translate(26.3 -25.08) rotate(40)"/><rect class="cls-3" x="40.8" y="19.06" width="2.81" height="2.81" rx="1.4" transform="translate(9.55 -13.2) rotate(20)"/><rect class="cls-3" x="52.68" y="57.62" width="5.08" height="5.08" rx="2.54" transform="translate(136.2 70.75) rotate(140)"/><rect class="cls-3" x="43.72" y="46.67" width="2.21" height="2.21" rx="1.11" transform="translate(109.88 55.56) rotate(140)"/><path class="cls-4" d="M23.14,40.78a12.91,12.91,0,0,1-.43-2.87"/><path class="cls-4" d="M39.15,50.24a13.65,13.65,0,0,1-3.22.39,13.23,13.23,0,0,1-11.07-6"/><path class="cls-4" d="M23.81,32.08A13.23,13.23,0,0,1,49.16,37.4a13.45,13.45,0,0,1-.75,4.42"/></g></g></svg>