<svg xmlns="http://www.w3.org/2000/svg" xmlns:xlink="http://www.w3.org/1999/xlink" viewBox="0 0 72.01 72.03"><defs><style>.cls-1,.cls-4{fill:none;}.cls-2{opacity:0.36;}.cls-3{fill:url(#linear-gradient);}.cls-4{stroke:#333;stroke-linecap:round;stroke-linejoin:round;stroke-width:2px;}.cls-5{fill:#333;}</style><linearGradient id="linear-gradient" x1="50.07" y1="-76.08" x2="57.13" y2="-76.08" gradientTransform="matrix(1, 0, 0, 0.68, -0.03, 78.79)" gradientUnits="userSpaceOnUse"><stop offset="0" stop-color="#78be1e"/><stop offset="0.1" stop-color="#72be28"/><stop offset="0.27" stop-color="#63be42"/><stop offset="0.49" stop-color="#49be6c"/><stop offset="0.75" stop-color="#26bea6"/><stop offset="1" stop-color="#00bee6"/></linearGradient></defs><g id="Layer_2" data-name="Layer 2"><g id="Layer_1-2" data-name="Layer 1"><rect class="cls-1" x="0.01" y="0.01" width="71.99" height="72"/><g class="cls-2"><polyline class="cls-3" points="57.09 39.45 50.03 45.05 50.03 34.48 50.04 34.81 50.04 9.38 57.02 14.91 57.09 39.53"/></g><polygon class="cls-4" points="50.02 45.23 50.03 9.56 57.01 15.09 57.08 39.71 50.02 45.23"/><polyline class="cls-4" points="49.93 40.72 41.03 45.09 41.05 9.42 49.92 14.19"/><polyline class="cls-4" points="40.91 41.48 29.84 45.09 29.85 30.18 29.85 30.07 29.86 9.42 40.91 13.18"/><polyline class="cls-4" points="29.46 41.52 14.92 45.13 14.92 30.22"/><polyline class="cls-4" points="14.93 18.39 14.94 9.46 29.45 13.23"/><line class="cls-4" x1="14.92" y1="24.53" x2="14.93" y2="22.36"/><path class="cls-5" d="M15.76,62.65V57.21H10.39v5.44H7.67V49.71h2.72V55h5.37V49.71h2.72V62.65Z"/><path class="cls-5" d="M20.91,49.71h3.9c4.57,0,7.52,2.74,7.52,6.47s-2.95,6.47-7.52,6.47h-3.9Zm4,10.76c2.76,0,4.74-1.59,4.74-4.29s-2-4.3-4.74-4.3H23.63v8.59Z"/><path class="cls-5" d="M40.38,57.42l4.37,5.23H41.37l-3.75-4.73h-.88v4.73H34V49.71h3.87c3.21,0,5.5,1.3,5.5,3.94C43.39,55.5,42.32,56.74,40.38,57.42Zm-2.51-5.6H36.74v4h.82c1.86,0,3.11-.74,3.11-2.16S39.52,51.82,37.87,51.82Z"/><path class="cls-5" d="M48.92,62.9V52.5l-2.49.91-.66-2.17,4.28-1.71h1.64V62.9Z"/><path class="cls-5" d="M59.42,63.14c-3.53,0-5.26-2.85-5.26-6.93s1.73-6.92,5.26-6.92,5.25,2.85,5.25,6.92S63,63.14,59.42,63.14Zm0-11.64c-1.83,0-2.49,1.77-2.49,4.71s.66,4.72,2.49,4.72,2.48-1.77,2.48-4.72S61.24,51.5,59.42,51.5Z"/></g></g></svg>