<svg xmlns="http://www.w3.org/2000/svg" viewBox="0 0 125.561 114.008">
  <defs>
    <style>
      .cls-1 {
        fill: none;
        stroke: #fff;
        stroke-linecap: round;
        stroke-linejoin: round;
        stroke-miterlimit: 10;
        stroke-width: 2px;
      }

      .cls-2, .cls-3 {
        fill: #fff;
      }

      .cls-3 {
        opacity: 0.4;
      }
    </style>
  </defs>
  <g id="Group_11206" data-name="Group 11206" transform="translate(1 1)">
    <g id="Group_11186" data-name="Group 11186" transform="translate(0 0)">
      <g id="Group_11183" data-name="Group 11183" transform="translate(0)">
        <path id="Path_7857" data-name="Path 7857" class="cls-1" d="M128.394,105.1v52.251H34.8V105.335" transform="translate(-16.445 -45.519)"/>
        <path id="Path_7858" data-name="Path 7858" class="cls-1" d="M130.9,65.218H19.6L28.514,34.9h93.477Z" transform="translate(-10.158 -16.486)"/>
        <path id="Path_7859" data-name="Path 7859" class="cls-1" d="M130.822,86.6a11.142,11.142,0,0,1-22.284,0,11.142,11.142,0,0,1-22.284,0,11.142,11.142,0,0,1-22.284,0,11.142,11.142,0,0,1-22.284,0,11.142,11.142,0,0,1-22.284,0" transform="translate(-10.076 -37.868)"/>
        <line id="Line_1373" data-name="Line 1373" class="cls-1" y1="45.214" transform="translate(53.952 66.618)"/>
        <line id="Line_1374" data-name="Line 1374" class="cls-1" x2="57.646" transform="translate(53.952 90.545)"/>
        <line id="Line_1375" data-name="Line 1375" class="cls-1" x1="9.148" y2="9.148" transform="translate(85.326 70.43)"/>
        <line id="Line_1376" data-name="Line 1376" class="cls-1" x1="6.451" y2="6.392" transform="translate(77.292 68.671)"/>
        <line id="Line_1377" data-name="Line 1377" class="cls-1" x1="1.349" y2="1.407" transform="translate(70.079 79.989)"/>
        <ellipse id="Ellipse_1242" data-name="Ellipse 1242" class="cls-2" cx="2.991" cy="2.991" rx="2.991" ry="2.991" transform="translate(40.229 87.026)"/>
        <line id="Line_1378" data-name="Line 1378" class="cls-1" x2="113.768" transform="translate(9.793 112.008)"/>
        <line id="Line_1379" data-name="Line 1379" class="cls-1" x2="2.346" transform="translate(0 112.008)"/>
        <rect id="Rectangle_4268" data-name="Rectangle 4268" class="cls-1" width="93.477" height="18.355" transform="translate(18.355)"/>
      </g>
      <g id="Group_11185" data-name="Group 11185" transform="translate(18.732 23.539)">
        <path id="Path_7863" data-name="Path 7863" class="cls-3" d="M35.142.466l5.385,18.267H-51.539Z" transform="translate(51.539 -0.466)"/>
      </g>
    </g>
  </g>
</svg>
