<?xml version="1.0" encoding="utf-8"?>
<!-- Generator: Adobe Illustrator 22.1.0, SVG Export Plug-In . SVG Version: 6.00 Build 0)  -->
<svg version="1.1" id="Layer_1" xmlns="http://www.w3.org/2000/svg" xmlns:xlink="http://www.w3.org/1999/xlink" x="0px" y="0px"
	 viewBox="0 0 22 22" enable-background="new 0 0 22 22" xml:space="preserve">
<path id="twitter_1_" fill="#9A9A9A" d="M21.1,4.4c-0.5,0.2-1,0.4-1.5,0.5c0.5-0.5,1-1.2,1.2-1.9l0,0c0-0.1,0-0.3-0.2-0.3
	c-0.1,0-0.1,0-0.2,0l0,0c-0.7,0.4-1.4,0.7-2.2,0.9h-0.1c-0.1,0-0.3-0.1-0.4-0.1c-0.8-0.7-1.9-1.1-3-1.1c-0.5,0-1,0.1-1.4,0.2
	c-1.5,0.5-2.6,1.6-2.9,3.1c-0.1,0.6-0.1,1.1-0.1,1.7v0.1l-0.1,0.1l0,0C7,7.3,4.1,5.7,2.1,3.3l0,0C2,3.2,1.9,3.2,1.8,3.3
	c0,0,0,0-0.1,0.1l0,0c-1,1.8-0.7,4,0.7,5.4C2,8.7,1.7,8.6,1.4,8.4l0,0c-0.1-0.1-0.3-0.1-0.3,0v0.1l0,0c0,1.8,1,3.4,2.6,4.1H3.6
	c-0.3,0-0.5,0-0.8-0.1l0,0c-0.1,0-0.2,0.1-0.3,0.2v0.1l0,0c0.5,1.6,1.9,2.8,3.6,3.1c-1.4,0.9-3,1.4-4.6,1.4H0.9
	c-0.2,0-0.3,0.1-0.3,0.3c0,0.2,0,0.3,0.2,0.4c1.9,1.1,4,1.7,6.2,1.7c1.8,0,3.6-0.4,5.3-1.1c1.5-0.7,2.8-1.7,3.9-2.9
	c1-1.2,1.8-2.5,2.4-4c0.5-1.4,0.8-2.9,0.8-4.3V7.3c0-0.2,0.1-0.4,0.3-0.6c0.7-0.6,1.3-1.2,1.8-2l0,0c0.1-0.1,0-0.3-0.1-0.3
	C21.2,4.4,21.1,4.4,21.1,4.4L21.1,4.4z"/>
</svg>
