<?xml version="1.0" encoding="utf-8"?>
<!-- Generator: Adobe Illustrator 22.1.0, SVG Export Plug-In . SVG Version: 6.00 Build 0)  -->
<svg version="1.1" id="Layer_1" xmlns="http://www.w3.org/2000/svg" xmlns:xlink="http://www.w3.org/1999/xlink" x="0px" y="0px"
	 viewBox="0 0 22 22" enable-background="new 0 0 22 22" xml:space="preserve">
<path id="Path_3216" fill="#9A9A9A" d="M15.1,0.8H6.8c-3.4,0-6.1,2.8-6.1,6.1v8.3c0,3.4,2.8,6.1,6.1,6.1h8.3c3.4,0,6.1-2.8,6.1-6.1
	V6.8C21.3,3.4,18.6,0.8,15.1,0.8z M19.3,15.3c0,2.3-1.8,4.1-4.1,4.1l0,0H6.8c-2.3,0-4.1-1.8-4.1-4.1l0,0V6.9c0-2.2,1.8-4.1,4.1-4.1
	h8.3c2.2,0,4.1,1.8,4.1,4.1l0,0V15.3z"/>
<path id="Path_3217" fill="#9A9A9A" d="M11,5.6c-2.9,0-5.3,2.4-5.3,5.3s2.4,5.3,5.3,5.3s5.3-2.4,5.3-5.3l0,0C16.4,8,14,5.8,11,5.6z
	 M11,14.3c-1.8,0-3.3-1.5-3.3-3.3S9.1,7.6,11,7.6s3.3,1.5,3.3,3.3l0,0C14.3,12.9,12.8,14.3,11,14.3z"/>
<circle id="Ellipse_598" fill="#9A9A9A" cx="16.4" cy="5.8" r="1.3"/>
</svg>
