<?xml version="1.0" encoding="utf-8"?>
<!-- Generator: Adobe Illustrator 22.1.0, SVG Export Plug-In . SVG Version: 6.00 Build 0)  -->
<svg version="1.1" id="linkedin" xmlns="http://www.w3.org/2000/svg" xmlns:xlink="http://www.w3.org/1999/xlink" x="0px" y="0px"
	 viewBox="0 0 22 22" enable-background="new 0 0 22 22" xml:space="preserve">
<path id="Path_3105" fill="#9A9A9A" d="M4.3,2.4c1.2,0,2.1,0.9,2.1,2.1S5.6,6.6,4.3,6.6S2.3,5.7,2.3,4.5S3.2,2.4,4.3,2.4"/>
<path id="Path_3106" fill="#9A9A9A" d="M5.6,19.6H3.2c-0.3,0-0.6-0.3-0.6-0.6V8.4c0-0.3,0.2-0.6,0.6-0.6l0,0h2.4
	c0.3,0,0.6,0.3,0.6,0.6V19C6.2,19.4,5.8,19.6,5.6,19.6"/>
<path id="Path_3107" fill="#9A9A9A" d="M19.8,11.5c0.1-2.1-1.6-3.9-3.7-4h-0.1h-0.7c-1.2,0-2.3,0.5-3,1.5l-0.4,0.3V8.1
	c0-0.2-0.1-0.3-0.3-0.3h-3C8.4,7.8,8.3,8,8.3,8.1v11.3c0,0.1,0.2,0.2,0.3,0.2h3.3c0.1,0,0.3-0.1,0.3-0.2v-6.5c0-1.1,0.8-2,1.9-2.1
	c0.6,0,1.1,0.2,1.5,0.6c0.4,0.4,0.5,0.9,0.5,1.4v6.5c0,0.2,0.1,0.3,0.3,0.3h3c0.2,0,0.3-0.1,0.3-0.3L19.8,11.5L19.8,11.5z"/>
</svg>
