<?xml version="1.0" encoding="utf-8"?>
<!-- Generator: Adobe Illustrator 22.1.0, SVG Export Plug-In . SVG Version: 6.00 Build 0)  -->
<svg version="1.1" id="Layer_1" xmlns="http://www.w3.org/2000/svg" xmlns:xlink="http://www.w3.org/1999/xlink" x="0px" y="0px"
	 viewBox="0 0 22 22" enable-background="new 0 0 22 22" xml:space="preserve">
<path id="XMLID_497_" fill="#9A9A9A" d="M0.8,10.6l4.9,1.8l1.9,6.1c0.1,0.3,0.4,0.5,0.7,0.4l0.1-0.1l2.7-2.2c0.3-0.2,0.7-0.2,1,0
	l4.9,3.6c0.3,0.2,0.6,0.1,0.8-0.1c0-0.1,0.1-0.1,0.1-0.2l3.6-17.3c0.1-0.4-0.1-0.7-0.4-0.8c-0.1,0-0.2,0-0.3,0l-20,7.7
	C0.5,9.7,0.3,10,0.4,10.3C0.5,10.4,0.6,10.6,0.8,10.6z M7.3,11.5l9.5-5.9c0.1,0,0.2,0,0.2,0.1s0,0.2,0,0.2l-7.9,7.3
	c-0.3,0.3-0.5,0.6-0.5,1l-0.3,2c0,0.1-0.1,0.2-0.3,0.2c-0.1,0-0.2-0.1-0.2-0.2l-1-3.6C6.8,12.1,6.9,11.7,7.3,11.5L7.3,11.5z"/>
</svg>
