<svg xmlns="http://www.w3.org/2000/svg" xmlns:xlink="http://www.w3.org/1999/xlink" viewBox="0 0 72.01 72.03"><defs><style>.cls-1,.cls-4{fill:none;}.cls-2{fill:#333;}.cls-3{opacity:0.36;fill:url(#linear-gradient);}.cls-4{stroke:#333;stroke-linecap:round;stroke-linejoin:round;stroke-width:2px;}</style><linearGradient id="linear-gradient" x1="12.19" y1="36.6" x2="21.8" y2="36.6" gradientUnits="userSpaceOnUse"><stop offset="0" stop-color="#78be1e"/><stop offset="0.1" stop-color="#72be28"/><stop offset="0.27" stop-color="#63be42"/><stop offset="0.49" stop-color="#49be6c"/><stop offset="0.75" stop-color="#26bea6"/><stop offset="1" stop-color="#00bee6"/></linearGradient></defs><g id="Layer_2" data-name="Layer 2"><g id="Layer_1-2" data-name="Layer 1"><rect class="cls-1" x="0.01" y="0.01" width="71.99" height="72"/><path class="cls-2" d="M32.79,44.49H29.34V28h3.45Z"/><path class="cls-2" d="M39.46,38.63H38.8v5.86H35.34V28h4.5c3.95,0,7,1.63,7,5.19S43.57,38.63,39.46,38.63Zm.35-7.91h-1v5.22h.84c2.3,0,3.7-.87,3.7-2.72S42,30.72,39.81,30.72Z"/><path class="cls-2" d="M53.13,44.78a11.89,11.89,0,0,1-5.06-1.11L48.78,41A10.23,10.23,0,0,0,53,42c1.66,0,2.79-.69,2.79-2s-1-1.83-3-2.64c-2.87-1.19-4.52-2.52-4.52-5,0-3,2.22-4.72,5.68-4.72a9.66,9.66,0,0,1,4.6,1l-.65,2.65a8.56,8.56,0,0,0-3.75-.94c-1.46,0-2.42.52-2.42,1.68s.54,1.48,2.52,2.34c2.62,1.12,5,2.43,5,5.29S56.81,44.78,53.13,44.78Z"/><path class="cls-2" d="M27.26,43.93l-3.39.65L20.79,28.41l3.39-.64Z"/><path class="cls-3" d="M21.8,43.64l-3.21,1.29-6.4-15.37,3.22-1.3Z"/><polyline class="cls-4" points="64.54 51.21 7.24 54.2 7.24 46.22"/><polyline class="cls-4" points="7.24 33.31 7.25 17.83 64.54 20.86 64.53 51.21"/><line class="cls-4" x1="7.24" y1="39.63" x2="7.24" y2="37.44"/></g></g></svg>