<svg xmlns="http://www.w3.org/2000/svg" xmlns:xlink="http://www.w3.org/1999/xlink" viewBox="0 0 72 72"><defs><style>.cls-1,.cls-4{fill:none;}.cls-2,.cls-3{opacity:0.36;}.cls-2{fill:url(#linear-gradient);}.cls-3{fill:url(#linear-gradient-2);}.cls-4{stroke:#333;stroke-linecap:round;stroke-linejoin:round;stroke-width:2px;}</style><linearGradient id="linear-gradient" x1="24.62" y1="56.69" x2="37.86" y2="56.69" gradientUnits="userSpaceOnUse"><stop offset="0" stop-color="#78be1e"/><stop offset="0.1" stop-color="#72be28"/><stop offset="0.27" stop-color="#63be42"/><stop offset="0.49" stop-color="#49be6c"/><stop offset="0.75" stop-color="#26bea6"/><stop offset="1" stop-color="#00bee6"/></linearGradient><linearGradient id="linear-gradient-2" x1="28.94" y1="36.54" x2="39.48" y2="36.54" xlink:href="#linear-gradient"/></defs><g id="Layer_2" data-name="Layer 2"><g id="Layer_1-2" data-name="Layer 1"><rect class="cls-1" width="72" height="72"/><path class="cls-2" d="M36.54,52.7H24.62V58a2.7,2.7,0,0,0,2.7,2.7H37.86"/><path class="cls-3" d="M38.25,39.87a5.17,5.17,0,0,0,1.23-3.33,5.27,5.27,0,1,0-7.18,4.9,15.41,15.41,0,0,0,1.56.36c-.35-1.2-.77-2.63.47-3.87C37,37,37.86,38.85,38.25,39.87Z"/><path class="cls-4" d="M41.67,65.4c-3.82-2.48-4.24-4.57-4.78-9.42-.13-1.1-.37-3.43-.37-3.43-.91-2.84-2.66-10.75-2.66-10.75-.38-1.86-.43-3.37.9-3.95,1.56-.68,2.51,0,3.36,1.38,0,0,4.4,7.77,5.35,9.08a1.75,1.75,0,0,0,2.36.72"/><path class="cls-4" d="M44.14,37.08l2,2.3c5.73,6.75,5.34,7.13,5.65,14.87.1,2.33.33,8.27.45,11.24"/><path class="cls-4" d="M29.14,13.07a7.32,7.32,0,0,1,10.34,0"/><path class="cls-4" d="M26,10A11.72,11.72,0,0,1,42.6,10"/><path class="cls-4" d="M24.6,40.9V58a2.7,2.7,0,0,0,2.7,2.7H37.59"/><line class="cls-4" x1="24.6" y1="34.4" x2="24.6" y2="35.72"/><path class="cls-4" d="M44,48.62V18.85a2.7,2.7,0,0,0-2.7-2.7h-14a2.7,2.7,0,0,0-2.7,2.7V30.59"/><line id="Line_843" data-name="Line 843" class="cls-4" x1="37.1" y1="21.22" x2="39.42" y2="21.22"/><line id="Line_843-2" data-name="Line 843" class="cls-4" x1="33.17" y1="25.93" x2="35.5" y2="25.93"/><line id="Line_843-3" data-name="Line 843" class="cls-4" x1="29.25" y1="21.22" x2="31.57" y2="21.22"/><path class="cls-4" d="M36,52.7H24.62V58a2.7,2.7,0,0,0,2.7,2.7H37.59"/><path class="cls-4" d="M38.52,39.52a5.12,5.12,0,0,0,1-3,5.27,5.27,0,1,0-6,5.19"/><circle class="cls-4" cx="34.21" cy="36.53" r="0.55"/></g></g></svg>