<svg xmlns="http://www.w3.org/2000/svg" xmlns:xlink="http://www.w3.org/1999/xlink" viewBox="0 0 72.03 72.03"><defs><style>.cls-1{fill:none;}.cls-2{opacity:0.36;fill:url(#linear-gradient);}.cls-3{fill:#333;}</style><linearGradient id="linear-gradient" x1="34.61" y1="23.4" x2="62.64" y2="23.4" gradientUnits="userSpaceOnUse"><stop offset="0" stop-color="#78be1e"/><stop offset="0.1" stop-color="#72be28"/><stop offset="0.27" stop-color="#63be42"/><stop offset="0.49" stop-color="#49be6c"/><stop offset="0.75" stop-color="#26bea6"/><stop offset="1" stop-color="#00bee6"/></linearGradient></defs><g id="Layer_2" data-name="Layer 2"><g id="Layer_1-2" data-name="Layer 1"><rect class="cls-1" x="0.01" y="0.01" width="72" height="72"/><rect class="cls-2" x="34.61" y="9.39" width="28.02" height="28.02"/><rect class="cls-3" x="9.39" y="59.84" width="2.8" height="2.8" rx="1.4"/><rect class="cls-3" x="17.8" y="59.84" width="2.8" height="2.8" rx="1.4"/><rect class="cls-3" x="26.21" y="59.84" width="2.8" height="2.8" rx="1.4"/><rect class="cls-3" x="34.61" y="59.84" width="2.8" height="2.8" rx="1.4"/><rect class="cls-3" x="9.39" y="51.43" width="2.8" height="2.8" rx="1.4"/><rect class="cls-3" x="17.8" y="51.43" width="2.8" height="2.8" rx="1.4"/><rect class="cls-3" x="26.21" y="51.43" width="2.8" height="2.8" rx="1.4"/><rect class="cls-3" x="34.61" y="51.43" width="2.8" height="2.8" rx="1.4"/><rect class="cls-3" x="9.39" y="43.02" width="2.8" height="2.8" rx="1.4"/><rect class="cls-3" x="17.8" y="43.02" width="2.8" height="2.8" rx="1.4"/><rect class="cls-3" x="26.21" y="43.02" width="2.8" height="2.8" rx="1.4"/><rect class="cls-3" x="34.61" y="43.02" width="2.8" height="2.8" rx="1.4"/><rect class="cls-3" x="9.39" y="34.61" width="2.8" height="2.8" rx="1.4"/><rect class="cls-3" x="17.8" y="34.61" width="2.8" height="2.8" rx="1.4"/><rect class="cls-3" x="26.21" y="34.61" width="2.8" height="2.8" rx="1.4"/><rect class="cls-3" x="22" y="46.97" width="2.8" height="2.8" rx="1.4"/><rect class="cls-3" x="30.41" y="46.97" width="2.8" height="2.8" rx="1.4"/><rect class="cls-3" x="38.82" y="46.97" width="2.8" height="2.8" rx="1.4"/><rect class="cls-3" x="47.22" y="46.97" width="2.8" height="2.8" rx="1.4"/><rect class="cls-3" x="22" y="38.56" width="2.8" height="2.8" rx="1.4"/><rect class="cls-3" x="30.41" y="38.56" width="2.8" height="2.8" rx="1.4"/><rect class="cls-3" x="38.82" y="38.56" width="2.8" height="2.8" rx="1.4"/><rect class="cls-3" x="47.22" y="38.56" width="2.8" height="2.8" rx="1.4"/><rect class="cls-3" x="22" y="30.15" width="2.8" height="2.8" rx="1.4"/><rect class="cls-3" x="30.41" y="30.15" width="2.8" height="2.8" rx="1.4"/><rect class="cls-3" x="22" y="34.61" width="2.8" height="2.8" rx="1.4"/><rect class="cls-3" x="30.41" y="34.61" width="2.8" height="2.8" rx="1.4"/><rect class="cls-3" x="22" y="43.02" width="2.8" height="2.8" rx="1.4"/><rect class="cls-3" x="30.41" y="43.02" width="2.8" height="2.8" rx="1.4"/><rect class="cls-3" x="38.82" y="43.02" width="2.8" height="2.8" rx="1.4"/><rect class="cls-3" x="47.22" y="43.02" width="2.8" height="2.8" rx="1.4"/><rect class="cls-3" x="43.12" y="46.97" width="2.8" height="2.8" rx="1.4"/><rect class="cls-3" x="43.12" y="38.56" width="2.8" height="2.8" rx="1.4"/><rect class="cls-3" x="43.12" y="43.02" width="2.8" height="2.8" rx="1.4"/><rect class="cls-3" x="26.31" y="38.56" width="2.8" height="2.8" rx="1.4"/><rect class="cls-3" x="26.31" y="46.97" width="2.8" height="2.8" rx="1.4"/><rect class="cls-3" x="34.61" y="38.56" width="2.8" height="2.8" rx="1.4"/><rect class="cls-3" x="34.61" y="46.97" width="2.8" height="2.8" rx="1.4"/><rect class="cls-3" x="26.31" y="30.15" width="2.8" height="2.8" rx="1.4"/><rect class="cls-3" x="22" y="25.69" width="2.8" height="2.8" rx="1.4"/><rect class="cls-3" x="30.41" y="25.69" width="2.8" height="2.8" rx="1.4"/><rect class="cls-3" x="26.31" y="25.69" width="2.8" height="2.8" rx="1.4"/><rect class="cls-3" x="26.31" y="21.75" width="2.8" height="2.8" rx="1.4"/><rect class="cls-3" x="22" y="21.75" width="2.8" height="2.8" rx="1.4"/><rect class="cls-3" x="30.41" y="21.75" width="2.8" height="2.8" rx="1.4"/></g></g></svg>