<svg xmlns="http://www.w3.org/2000/svg" xmlns:xlink="http://www.w3.org/1999/xlink" viewBox="0 0 72.03 72.03"><defs><style>.cls-1{opacity:0.36;fill:url(#linear-gradient);}.cls-2,.cls-3{fill:none;}.cls-3{stroke:#333;stroke-linecap:round;stroke-linejoin:round;stroke-width:1.92px;}</style><linearGradient id="linear-gradient" x1="1422.34" y1="-595.61" x2="1471.55" y2="-595.61" gradientTransform="matrix(-0.93, 0, 0, -1.39, 1387.44, -795.84)" gradientUnits="userSpaceOnUse"><stop offset="0" stop-color="#78be1e"/><stop offset="0.1" stop-color="#72be28"/><stop offset="0.27" stop-color="#63be42"/><stop offset="0.49" stop-color="#49be6c"/><stop offset="0.75" stop-color="#26bea6"/><stop offset="1" stop-color="#00bee6"/></linearGradient></defs><g id="Layer_2" data-name="Layer 2"><g id="Layer_1-2" data-name="Layer 1"><path id="Path_38" data-name="Path 38" class="cls-1" d="M12.94,46.52V18.8l46,0Z"/><rect class="cls-2" x="0.01" y="0.01" width="72" height="72"/><polyline class="cls-3" points="62.84 50.41 9.14 50.38 9.14 39.87"/><polyline class="cls-3" points="9.15 27.18 9.15 14.91 62.84 14.94 62.82 50.41"/><line class="cls-3" x1="9.14" y1="33.39" x2="9.15" y2="31.23"/><g id="Group_32" data-name="Group 32"><line id="Line_16" data-name="Line 16" class="cls-3" x1="17.68" y1="51.16" x2="14.65" y2="56.34"/><line id="Line_24" data-name="Line 24" class="cls-3" x1="52.74" y1="51.17" x2="55.91" y2="56.36"/></g><line id="Line_43" data-name="Line 43" class="cls-3" x1="5.3" y1="57.02" x2="8.09" y2="57.02"/><path id="Path_37" data-name="Path 37" class="cls-3" d="M11.81,57l48.36,0"/><line id="Line_42" data-name="Line 42" class="cls-3" x1="63.89" y1="57.05" x2="66.68" y2="57.05"/><path class="cls-3" d="M32.94,38a3.43,3.43,0,0,0-3.33,3.16h-.07a3.49,3.49,0,0,1-2.29-6.07,2.54,2.54,0,0,1,.46-4.69,2,2,0,0,1,.65-.09,2.49,2.49,0,0,1,2.15,1.25"/><path class="cls-3" d="M30.51,31.6a2.49,2.49,0,0,0-2.15-1.25,2,2,0,0,0-.65.09,3.49,3.49,0,0,1,2.56-5.78,3.24,3.24,0,0,1,1.09.18"/><path class="cls-3" d="M33.56,27.18a2.52,2.52,0,0,1-2.2-2.34,1.09,1.09,0,0,1,0-.18,2.49,2.49,0,1,1,5,0l.11,16.85a3.43,3.43,0,1,1-6.85,0c0-.1,0-.21,0-.31A3.43,3.43,0,0,1,32.94,38H33"/><path class="cls-3" d="M39.88,38.08a3.44,3.44,0,0,1,3.38,3.12h.07a3.47,3.47,0,0,0,3.38-3.53,3.51,3.51,0,0,0-1.18-2.57,2.5,2.5,0,0,0,1.34-2.28A2.52,2.52,0,0,0,45,30.41a2.39,2.39,0,0,0-.66-.08,2.48,2.48,0,0,0-2.13,1.29"/><path class="cls-3" d="M42.22,31.62a2.48,2.48,0,0,1,2.13-1.29,2.39,2.39,0,0,1,.66.08,3.49,3.49,0,0,0-2.65-5.74,3.23,3.23,0,0,0-1.08.2"/><path class="cls-3" d="M36.44,41.61a3.42,3.42,0,1,0,6.84-.1c0-.1,0-.21,0-.31a3.44,3.44,0,0,0-3.38-3.12h-.07"/><path class="cls-3" d="M39.11,27.24a2.54,2.54,0,0,0,2.17-2.37v-.18a2.49,2.49,0,1,0-5,.07"/></g></g></svg>