<?xml version="1.0" encoding="utf-8"?>
<!-- Generator: Adobe Illustrator 21.0.0, SVG Export Plug-In . SVG Version: 6.00 Build 0)  -->
<svg version="1.1" id="Layer_1" xmlns="http://www.w3.org/2000/svg" xmlns:xlink="http://www.w3.org/1999/xlink" x="0px" y="0px"
	 viewBox="0 0 84.3 69.4" style="enable-background:new 0 0 84.3 69.4;" xml:space="preserve">
<style type="text/css">
	.st0{fill:#005EB9;}
	.st1{fill:#FFFFFF;}
	.st2{fill:#0051B2;}
	.st3{fill:none;stroke:#FFFFFF;stroke-width:2;}
	.st4{fill:#0050B1;}
	.st5{fill:none;stroke:#FFFFFF;stroke-width:2;stroke-linecap:round;stroke-linejoin:round;stroke-miterlimit:10;}
	.st6{opacity:0.2;fill:#FFFFFF;enable-background:new    ;}
</style>
<g id="Group_9038" transform="translate(1)">
	<g id="Path_6806" transform="translate(11.401 11.461)">
		<path class="st0" d="M53.4,55.9h-46c-0.6,0-1-0.4-1-1V17.3c0-0.6,0.4-1,1-1h46c0.6,0,1,0.4,1,1v37.6C54.4,55.4,54,55.9,53.4,55.9z
			"/>
		<path class="st1" d="M7.4,17.3v37.6h46V17.3H7.4 M7.4,15.3h46c1.1,0,2,0.9,2,2v37.6c0,1.1-0.9,2-2,2h-46c-1.1,0-2-0.9-2-2V17.3
			C5.4,16.2,6.3,15.3,7.4,15.3z"/>
	</g>
	<g id="Group_87" transform="translate(7.271 7.242)">
		<g id="Ellipse_1" transform="translate(44.769)">
			<ellipse class="st2" cx="12.1" cy="22" rx="6.7" ry="6.7"/>
			<ellipse class="st3" cx="12.1" cy="22" rx="5.7" ry="5.7"/>
		</g>
		<g id="Ellipse_13" transform="translate(33.564)">
			<ellipse class="st2" cx="12.1" cy="22" rx="6.7" ry="6.7"/>
			<ellipse class="st3" cx="12.1" cy="22" rx="5.7" ry="5.7"/>
		</g>
		<g id="Ellipse_14" transform="translate(22.997)">
			<ellipse class="st2" cx="12.1" cy="22" rx="6.7" ry="6.7"/>
			<ellipse class="st3" cx="12.1" cy="22" rx="5.7" ry="5.7"/>
		</g>
		<g id="Ellipse_16" transform="translate(11.792)">
			<ellipse class="st2" cx="12.1" cy="22" rx="6.7" ry="6.7"/>
			<ellipse class="st3" cx="12.1" cy="22" rx="5.7" ry="5.7"/>
		</g>
		<g id="Ellipse_17">
			<ellipse class="st2" cx="12.1" cy="22" rx="6.7" ry="6.7"/>
			<ellipse class="st3" cx="12.1" cy="22" rx="5.7" ry="5.7"/>
		</g>
	</g>
	<g id="Path_44" transform="translate(7.271 -4)">
		<path class="st4" d="M61.7,33.1H7.3c-0.5,0-0.9-0.4-1-0.9l2.9-10.6l0-0.1v-0.1c0-0.6,0.4-1,1-1h49.5c0.5,0,1,0.5,1,1v0.1l0,0.1
			l1.9,10.7C62.6,32.7,62.2,33.1,61.7,33.1z"/>
		<path class="st1" d="M10.3,21.3C10.3,21.3,10.3,21.3,10.3,21.3l0,0.3l-0.1,0.3L7.4,32.1h54.2l-1.9-10.4l0-0.2v-0.2c0,0,0,0,0,0
			H10.3 M10.3,19.3h49.5c1.1,0,2,0.9,2,2l2,10.8c0,1.1-0.9,2-2,2H7.3c-1.1,0-2-0.9-2-2l2.9-10.8C8.3,20.2,9.2,19.3,10.3,19.3z"/>
	</g>
	<line id="Line_67" class="st5" x1="65.3" y1="54.6" x2="38.9" y2="54.6"/>
	<line id="Line_63" class="st5" x1="38.1" y1="66.8" x2="38.1" y2="37.4"/>
	<line id="Line_61" class="st5" x1="76.9" y1="67.3" x2="75" y2="67.3"/>
	<line id="Line_65" class="st5" x1="52.6" y1="40.1" x2="47" y2="46.5"/>
	<line id="Line_66" class="st5" x1="59.7" y1="40.1" x2="54.1" y2="46.5"/>
	<line id="Line_60" class="st5" x1="7.3" y1="67.3" x2="5.4" y2="67.3"/>
	<line id="Line_62" class="st5" x1="70.8" y1="67.3" x2="11.5" y2="67.3"/>
	<circle id="Ellipse_18" class="st1" cx="44.4" cy="49.1" r="1"/>
	<circle id="Ellipse_19" class="st1" cx="33.3" cy="49.1" r="1"/>
	<path id="Path_45" class="st6" d="M62.7,36.8v14.3H49.8L62.7,36.8z"/>
	<path id="Path_46" class="st6" d="M20.4,18.8H64c0.9,0,1.7,0.4,1.7,1l0.7,5.3c0,0.6-0.7,1-1.7,1H19c-0.9,0-1.7-0.4-1.7-1l1.5-5.3
		C18.8,19.2,19.5,18.8,20.4,18.8z"/>
</g>
</svg>
