<?xml version="1.0" encoding="UTF-8"?>
<svg id="Layer_2" data-name="Layer 2" xmlns="http://www.w3.org/2000/svg" xmlns:xlink="http://www.w3.org/1999/xlink" viewBox="0 0 72 72">
  <defs>
    <style>
      .cls-1 {
        fill: url(#linear-gradient);
        opacity: .36;
      }

      .cls-2 {
        fill: #333;
      }

      .cls-3, .cls-4 {
        fill: none;
      }

      .cls-4 {
        stroke: #333;
        stroke-linecap: round;
        stroke-linejoin: round;
        stroke-width: 2px;
      }
    </style>
    <linearGradient id="linear-gradient" x1="28.34" y1="35.5" x2="51.67" y2="35.5" gradientUnits="userSpaceOnUse">
      <stop offset="0" stop-color="#78be1e"/>
      <stop offset=".1" stop-color="#72be27"/>
      <stop offset=".27" stop-color="#62be41"/>
      <stop offset=".49" stop-color="#49be6c"/>
      <stop offset=".75" stop-color="#26bea6"/>
      <stop offset="1" stop-color="#00bee6"/>
    </linearGradient>
  </defs>
  <g id="Layer_1-2" data-name="Layer 1">
    <g>
      <polygon class="cls-1" points="51.67 56 28.34 56 28.34 15 51.67 56"/>
      <rect class="cls-3" width="72" height="72"/>
      <rect class="cls-4" x="14" y="9" width="44" height="53"/>
      <line class="cls-4" x1="22" y1="9" x2="22" y2="62"/>
      <rect class="cls-4" x="29.12" y="16" width="21.44" height="12"/>
      <g>
        <polygon class="cls-2" points="32.34 49.72 34.14 49.72 34.14 44.75 38.96 44.75 38.96 43.1 34.14 43.1 34.14 39.29 39.27 39.29 39.27 37.64 32.34 37.64 32.34 49.72"/>
        <path class="cls-2" d="M46.51,41.16c-.54-.5-1.37-.75-2.46-.75-.53,0-1.07,.07-1.6,.21-.53,.14-1.02,.33-1.46,.57l-.18,.1,.57,1.42,.22-.11c.88-.43,1.68-.65,2.37-.65,.58,0,1,.14,1.24,.41,.25,.28,.38,.74,.38,1.36v.32l-1.26,.04c-2.95,.09-4.44,1.1-4.44,2.99,0,.88,.27,1.58,.81,2.07,.53,.48,1.27,.73,2.18,.73,.68,0,1.25-.1,1.71-.31,.38-.17,.76-.46,1.13-.88l.22,1.03h1.39v-6.18c0-1.08-.28-1.88-.82-2.39Zm-.95,4.28v.55c0,.75-.21,1.32-.63,1.73-.42,.41-1.02,.61-1.78,.61-.46,0-.82-.11-1.07-.32-.24-.21-.35-.51-.35-.92,0-.53,.19-.91,.59-1.16,.43-.27,1.15-.42,2.16-.46l1.08-.05Z"/>
      </g>
    </g>
  </g>
</svg>