<svg xmlns="http://www.w3.org/2000/svg" xmlns:xlink="http://www.w3.org/1999/xlink" viewBox="0 0 157.936 42">
  <defs>
    <style>
      .cls-1 {
        fill: url(#linear-gradient);
      }

      .cls-2 {
        fill: #fff;
      }

      .cls-2, .cls-3, .cls-6 {
        fill-rule: evenodd;
      }

      .cls-3 {
        fill: url(#linear-gradient-3);
      }

      .cls-4 {
        clip-path: url(#clip-path);
      }

      .cls-5 {
        clip-path: url(#clip-path-2);
      }

      .cls-6 {
        fill: #034ea2;
      }
    </style>
    <linearGradient id="linear-gradient" x1="0.465" y1="0.268" x2="0.887" y2="0.81" gradientUnits="objectBoundingBox">
      <stop offset="0" stop-color="#00873a"/>
      <stop offset="1" stop-color="#b2d334"/>
    </linearGradient>
    <linearGradient id="linear-gradient-3" x1="0.157" y1="0.074" x2="0.801" y2="0.858" gradientUnits="objectBoundingBox">
      <stop offset="0" stop-color="#00b9f2"/>
      <stop offset="0.112" stop-color="#009fde"/>
      <stop offset="0.34" stop-color="#006ab5"/>
      <stop offset="0.663" stop-color="#033b83"/>
      <stop offset="1" stop-color="#033b83"/>
    </linearGradient>
    <clipPath id="clip-path">
      <path id="Path_6741" data-name="Path 6741" class="cls-1" d="M29.963,44.664c2.317-5.359-1.557-11.26-6.916-12.093-3.874-.905-5.938-4.743-3.621-8.436,2.317-3.657,8.255-2.607,10.174-1.666A13.292,13.292,0,0,0,18.2,19.718C9.4,21.311,4.075,27.611,2.663,35.794,1.9,17.111,21.961,9.507,33.041,17.328a15.748,15.748,0,0,1-3.078,27.336Z" transform="translate(-2.642 -14.279)"/>
    </clipPath>
    <clipPath id="clip-path-2">
      <rect id="Rectangle_3602" data-name="Rectangle 3602" class="cls-1" width="41.167" height="35.157" transform="translate(0 0)"/>
    </clipPath>
  </defs>
  <g id="Group_8839" data-name="Group 8839" transform="translate(11643 3861)">
    <path id="Path_6738" data-name="Path 6738" class="cls-2" d="M22.2,53.7a21,21,0,1,1,21-21,20.992,20.992,0,0,1-21,21Z" transform="translate(-11644.2 -3872.7)"/>
    <path id="Path_6739" data-name="Path 6739" class="cls-3" d="M20.946,41.2c-2.281,5.359,1.593,11.26,6.916,12.057,3.874.905,5.938,4.743,3.621,8.436-2.317,3.657-8.255,2.607-10.174,1.666A13.292,13.292,0,0,0,32.713,66.11c8.762-1.593,14.085-7.857,15.5-16.076.76,18.683-19.3,26.286-30.378,18.466a15.735,15.735,0,0,1,3.114-27.3Z" transform="translate(-11650.622 -3891.519)"/>
    <g id="Group_8838" data-name="Group 8838" transform="translate(-11642.478 -3860.066)">
      <path id="Path_6740" data-name="Path 6740" class="cls-1" d="M29.963,44.664c2.317-5.359-1.557-11.26-6.916-12.093-3.874-.905-5.938-4.743-3.621-8.436,2.317-3.657,8.255-2.607,10.174-1.666A13.292,13.292,0,0,0,18.2,19.718C9.4,21.311,4.075,27.611,2.663,35.794,1.9,17.111,21.961,9.507,33.041,17.328a15.748,15.748,0,0,1-3.078,27.336Z" transform="translate(-2.642 -14.279)"/>
      <g id="Group_8837" data-name="Group 8837" class="cls-4" transform="translate(0 0)">
        <rect id="Rectangle_3600" data-name="Rectangle 3600" class="cls-1" width="41.167" height="35.157" transform="translate(-0.739 -4.772)"/>
        <g id="Group_8836" data-name="Group 8836" class="cls-5" transform="translate(-0.739 -4.772)">
          <rect id="Rectangle_3601" data-name="Rectangle 3601" class="cls-1" width="42.406" height="35.801" transform="translate(-0.217 -0.398)"/>
        </g>
      </g>
    </g>
    <path id="Path_6742" data-name="Path 6742" class="cls-6" d="M179.747,40.479c0-5.214,4.96-6.7,9.667-6.7s9.848,1.484,9.848,6.7V51.7h3.621a4.065,4.065,0,0,0,2.969-1.122,2.4,2.4,0,0,0,.579-1.774V38.886a3.081,3.081,0,0,1,6.155,0v9.921a2.4,2.4,0,0,0,.579,1.774,4.431,4.431,0,0,0,5.974-.072,2.723,2.723,0,0,0,.616-1.919V36.605a3.089,3.089,0,0,1,6.155,0V48.7a2.529,2.529,0,0,0,.616,1.774,4.332,4.332,0,0,0,5.974.072c.8-.833.579-2.245.579-3.367V36.714h0v-.072a3.081,3.081,0,0,1,6.155,0v10.5c0,1.557-.145,2.5.616,3.295a4.332,4.332,0,0,0,5.974.072c.76-.8.579-1.81.579-3.367V36.714h0v-.072a3.083,3.083,0,0,1,6.155,0v.036h0V48.264c0,5.359-4.96,8.4-9.667,8.4a13.1,13.1,0,0,1-6.735-2.064,12.907,12.907,0,0,1-6.59,2.064,11,11,0,0,1-6.735-2.245,11.342,11.342,0,0,1-6.771,2.245,10.981,10.981,0,0,1-6.59-2.172,10.9,10.9,0,0,1-6.59,2.172h-4.055a10.972,10.972,0,0,1-.434,1.557c-2.86,7.241-9.957,4.671-6.372-.072a4.539,4.539,0,0,0,.724-1.521h-5.612c-3.8-.326-7.386-3.259-7.386-7.495V40.479Zm13.324,11.188V40.986a2.545,2.545,0,0,0-.616-1.738,4.443,4.443,0,0,0-5.974-.072c-.76.76-.579,2.064-.579,3.584v4.345c0,1.991.253,4.562,3.729,4.562ZM209.509,27.3a3.078,3.078,0,1,1-3.078,3.078,3.075,3.075,0,0,1,3.078-3.078Zm-35.954,2.824h0a3.089,3.089,0,0,0-6.155,0h0V53.84h0a3.089,3.089,0,0,0,6.155,0h0V30.124Zm91.6,0h0a3.089,3.089,0,0,0-6.155,0h0V53.84h0a3.089,3.089,0,0,0,6.155,0h0V30.124Z" transform="translate(-11750.224 -3882.652)"/>
  </g>
</svg>
